<?xml version="1.0" standalone="no"?>
<!DOCTYPE svg PUBLIC "-//W3C//DTD SVG 1.1//EN" "http://www.w3.org/Graphics/SVG/1.1/DTD/svg11.dtd" >
<svg xmlns="http://www.w3.org/2000/svg" xmlns:xlink="http://www.w3.org/1999/xlink" version="1.1">
<metadata>
Created by FontForge 20170731 at Mon May 26 18:26:18 2008
 By Aleksey,,,
Copyright (c) 2006-2008 by Envy Technologies Limited. All rights reserved.
</metadata>
<defs>
<font id="EnvyCodeR-Italic" horiz-adv-x="1100" >
  <font-face 
    font-family="Envy Code R"
    font-weight="400"
    font-style="italic"
    font-stretch="normal"
    units-per-em="2048"
    panose-1="2 0 5 9 0 0 0 2 0 4"
    ascent="1638"
    descent="-410"
    x-height="1106"
    cap-height="1422"
    bbox="-122 -632 1264 2054"
    underline-thickness="102"
    underline-position="-358"
    unicode-range="U+0020-FB06"
  />
<missing-glyph 
 />
    <glyph glyph-name=".notdef" 
 />
    <glyph glyph-name=".null" horiz-adv-x="0" 
 />
    <glyph glyph-name="nonmarkingreturn" 
 />
    <glyph glyph-name="space" unicode=" " 
 />
    <glyph glyph-name="space" unicode="&#xa0;" 
 />
    <glyph glyph-name="exclam" unicode="!" 
d="M618 1422h158l-202 -948h-158zM383 316h158l-67 -316h-158z" />
    <glyph glyph-name="quotedbl" unicode="&#x22;" 
d="M302 1422h158l-101 -474h-158zM776 1422h158l-101 -474h-158z" />
    <glyph glyph-name="numbersign" unicode="#" 
d="M450 790l-33 -158h158l33 158h-158zM134 790l34 158h158l67 316h158l-67 -316h158l67 316h158l-67 -316h158l-34 -158h-158l-33 -158h158l-34 -158h-158l-67 -316h-158l67 316h-158l-67 -316h-158l67 316h-158l34 158h158l33 158h-158z" />
    <glyph glyph-name="dollar" unicode="$" 
d="M316 158h-316l34 158h316l67 316q-59 0 -110.5 27t-86.5 71.5t-50 101.5t-2 116t52 116t93 101.5t116.5 71.5t121.5 27l34 158h158l-34 -158h316l-33 -158h-316l-68 -316q59 0 110.5 -27.5t86.5 -72t50 -101.5t2 -115q-13 -60 -52 -117t-92.5 -101t-116.5 -71t-122 -27
l-33 -158h-158zM326 948q-6 -30 1.5 -58t25 -50.5t42.5 -36t55 -13.5l68 316q-30 0 -61 -13.5t-58.5 -36t-47 -50.5t-25.5 -58zM699 474q7 30 -0.5 58t-25.5 50.5t-43 36t-55 13.5l-67 -316q30 0 60.5 13.5t58 36t47 50.5t25.5 58z" />
    <glyph glyph-name="percent" unicode="%" 
d="M158 158h-158l869 1106h158zM447 395q11 49 38.5 92t67 75.5t86.5 51t96 18.5t88 -18.5t64.5 -51t35 -75.5t-1.5 -92q-10 -49 -37.5 -92t-67 -75.5t-86.5 -51t-96 -18.5t-88 18.5t-64.5 51t-35 75.5t0.5 92zM108 1027q10 49 37.5 92t67 75.5t86.5 51t96 18.5t88 -18.5
t64.5 -51t35 -75.5t-0.5 -92q-11 -49 -38.5 -92t-67 -75.5t-86.5 -51t-96 -18.5t-88 18.5t-64.5 51t-35 75.5t1.5 92zM266 1027q-7 -33 11 -56t51 -23t61 23t35 56t-11 56t-51 23t-61 -23t-35 -56zM605 395q-7 -33 11.5 -56t51.5 -23t60.5 23t34.5 56t-11 56t-51 23t-61 -23
t-35 -56z" />
    <glyph glyph-name="ampersand" unicode="&#x26;" 
d="M662 107q-73 -51 -154 -79t-168 -28q-98 0 -164 37t-102 101.5t-43 151t14 184.5q14 67 45 129t74.5 115.5t98 97t115.5 73.5q-28 45 -41 99.5t1 117.5q13 65 50 122.5t89.5 100.5t115.5 68t128 25t118.5 -21.5t88.5 -60.5t48 -93.5t-2 -119.5q-10 -44 -36 -80.5
t-61.5 -67t-75.5 -54.5t-78.5 -42t-70.5 -30.5t-51 -19.5l153 -448q14 24 31 55.5t33.5 65t30 66.5t20.5 60h158q-32 -89 -60.5 -152t-54 -108.5t-48.5 -77.5t-42 -57l71 -237h-182zM373 158q61 0 122 22.5t130 70.5l-180 508q-42 -18 -81 -47t-71.5 -66t-56 -81t-33.5 -91
q-14 -65 -13.5 -122.5t19.5 -100.5t59 -68t105 -25zM496 1106q-7 -30 2.5 -64.5t37.5 -93.5q34 4 81 23.5t91 46.5t76.5 57t37.5 56q6 33 -2 57.5t-26.5 41.5t-46 25.5t-60.5 8.5t-64 -12.5t-57 -34t-44.5 -50t-25.5 -61.5z" />
    <glyph glyph-name="quotesingle" unicode="'" 
d="M618 1422h158l-101 -474h-158z" />
    <glyph glyph-name="parenleft" unicode="(" 
d="M564 -316q-94 31 -155.5 102t-95.5 170t-42.5 220t5.5 251.5t47 265t82 260.5t112 237t135 195.5t152 136t163 58.5l-33 -158q-75 -30 -144.5 -102.5t-130 -172.5t-108.5 -220.5t-79 -247.5t-42 -253.5t2 -238.5t53.5 -201.5t112.5 -143.5z" />
    <glyph glyph-name="parenright" unicode=")" 
d="M124 -158q75 30 144.5 102t130 172t108.5 221t79 248t42 254t-2 238.5t-53.5 201.5t-112.5 143l33 158q94 -31 156 -102t96 -170.5t42 -220.5t-5.5 -251.5t-47 -265t-82.5 -260t-111.5 -237t-135 -196t-152.5 -136t-163 -57.5z" />
    <glyph glyph-name="asterisk" unicode="*" 
d="M270 1185l221 -79l67 316h158l-67 -316l253 79l46 -158l-254 -79l108 -237l-175 -79l-108 237l-208 -237l-141 79l208 237l-220 79z" />
    <glyph glyph-name="plus" unicode="+" 
d="M450 632h-316l33 158h316l68 316h158l-68 -316h316l-33 -158h-316l-67 -316h-158z" />
    <glyph glyph-name="comma" unicode="," 
d="M327 -316q-33 0 -51 23t-11 56t35 56t61 23q30 0 48 10.5t30 30.5t19 49.5t16 67.5q-33 0 -59 12.5t-43 34t-23.5 50t0.5 61.5t25.5 61.5t44.5 50t57.5 34t64.5 12.5t58.5 -12.5t42.5 -34t23.5 -50t-0.5 -61.5l-33 -158q-13 -59 -40 -116t-66 -101.5t-89.5 -71.5
t-109.5 -27z" />
    <glyph glyph-name="hyphen" unicode="-" 
d="M167 790h790l-33 -158h-790z" />
    <glyph glyph-name="period" unicode="." 
d="M316 158q7 33 25.5 61.5t44.5 50t57.5 34t64.5 12.5t58.5 -12.5t42.5 -34t23.5 -50t-0.5 -61.5t-25.5 -61.5t-44.5 -50t-57 -34t-64 -12.5t-59 12.5t-43 34t-23.5 50t0.5 61.5z" />
    <glyph glyph-name="slash" unicode="/" 
d="M934 1422h158l-968 -1580h-158z" />
    <glyph glyph-name="zero" unicode="0" 
d="M218 1027q17 82 63 154t111.5 125.5t144 84.5t160.5 31t147.5 -31t107.5 -84.5t57.5 -125.5t-1.5 -154l-135 -632q-17 -82 -63 -154t-111 -125.5t-143.5 -84.5t-160.5 -31q-83 0 -148 31t-107 84.5t-58 125.5t1 154zM428 158q49 0 96 18.5t86 51t67 75.5t38 92l89 415
l-554 -375q-21 -53 -16.5 -103t29 -88.5t67 -62t98.5 -23.5zM663 1264q-49 0 -96 -19t-86 -51t-67 -75t-38 -92l-83 -390l554 375q11 55 2 101t-34 79.5t-64 52.5t-88 19z" />
    <glyph glyph-name="one" unicode="1" 
d="M426 1264h39q25 0 48.5 9t43 25t33.5 37.5t19 46.5l9 40h158l-269 -1264h158l-33 -158h-474l33 158h158l202 948h-158z" />
    <glyph glyph-name="two" unicode="2" 
d="M618 1422q-65 0 -128 -25t-115 -68t-89 -100.5t-51 -122.5h158q7 33 25.5 61.5t44.5 50t57 34t64 12.5h158q33 0 59 -12.5t43 -34t23.5 -50t-0.5 -61.5l-27 -127q-6 -30 -40.5 -62.5t-86.5 -68t-117 -73.5t-132.5 -78t-133.5 -81.5t-119.5 -84.5t-90 -87t-45.5 -88
l-75 -356h790l33 158h-632l34 158q8 37 43 74.5t87.5 75t117 75.5t132 77t133 78.5t118.5 80.5t89.5 84t45.5 87l34 158q14 65 1 122.5t-46.5 100.5t-86 68t-117.5 25h-158z" />
    <glyph glyph-name="three" unicode="3" 
d="M33 158h395q49 0 96 18.5t86 51t67 75.5t38 92q11 49 1.5 92t-35 75.5t-64.5 51t-88 18.5h-237l33 158h237q49 0 96 18.5t86 51t67 75.5t39 92q10 49 0.5 92t-35 75.5t-64.5 51t-88 18.5h-395l34 158h395q82 0 147.5 -31t107.5 -84.5t57.5 -125.5t-1.5 -154
q-21 -99 -81.5 -180.5t-144.5 -135.5q60 -54 86 -136.5t5 -179.5q-17 -82 -63 -154t-111 -125.5t-143.5 -84.5t-160.5 -31h-395z" />
    <glyph glyph-name="four" unicode="4" 
d="M776 1422h158l-202 -948h158l-33 -158h-158l-67 -316h-158l67 316h-474l33 158zM574 474l135 632l-451 -632h316z" />
    <glyph glyph-name="five" unicode="5" 
d="M33 158h395q49 0 95.5 18.5t84.5 51t65.5 75.5t37.5 92q11 49 2 92t-33.5 75.5t-63 51t-87.5 18.5h-395l168 790h790l-34 -158h-632l-101 -474h237q82 0 147.5 -31t108 -84.5t58 -125.5t-2.5 -154q-17 -82 -63 -154t-111 -125.5t-143.5 -84.5t-160.5 -31h-395z" />
    <glyph glyph-name="six" unicode="6" 
d="M395 0q-83 0 -148 31t-107 84.5t-58 125.5t1 154q20 91 41 170t52.5 153.5t78 149.5t117 158.5t169.5 180.5t235 215h158q-69 -74 -130.5 -133.5t-116.5 -112t-104 -101.5t-93.5 -102t-84.5 -113.5t-76 -136.5q55 32 113.5 49.5t119.5 17.5q82 0 147.5 -31t108 -84.5
t58 -125.5t-2.5 -154q-17 -82 -63 -154t-111 -125.5t-143.5 -84.5t-160.5 -31zM241 395q-10 -49 -0.5 -92t35 -75.5t64.5 -51t88 -18.5t96 18.5t86 51t67 75.5t38 92q11 49 1.5 92t-35 75.5t-64.5 51t-88 18.5t-96 -19t-86 -51t-67 -75t-39 -92z" />
    <glyph glyph-name="seven" unicode="7" 
d="M948 1264l-742 -1264h-157l737 1264h-628l34 158h790z" />
    <glyph glyph-name="eight" unicode="8" 
d="M83 395q23 98 86.5 179.5t149.5 136.5q-31 27 -54.5 61t-37.5 74.5t-17 86t8 94.5q17 82 63 154t111.5 125.5t144 84.5t160.5 31t147.5 -31t107.5 -84.5t57.5 -125.5t-1.5 -154q-23 -100 -87.5 -180.5t-148.5 -135.5q30 -27 53.5 -61.5t37.5 -75t17.5 -86t-7.5 -93.5
q-17 -82 -63 -154t-111 -125.5t-143.5 -84.5t-160.5 -31q-83 0 -148 31t-107 84.5t-58 125.5t1 154zM241 395q-10 -49 -0.5 -92t35 -75.5t64.5 -51t88 -18.5t96 18.5t86 51t67 75.5t38 92q11 49 5.5 92t-28.5 75t-63.5 51t-99.5 19t-107.5 -19t-85 -51t-60.5 -75t-35 -92z
M376 1027q-11 -49 -5.5 -92t28.5 -75.5t63.5 -51t99.5 -18.5t107.5 18.5t85 51t60.5 75.5t35 92q10 49 0.5 92t-35 75.5t-64.5 51t-88 18.5t-96 -19t-86 -51t-67 -75t-38 -92z" />
    <glyph glyph-name="nine" unicode="9" 
d="M697 1422q82 0 147.5 -31t107.5 -84.5t57.5 -125.5t-1.5 -154q-20 -92 -41.5 -170.5t-53 -153t-78 -149t-116.5 -158t-168.5 -180.5t-234.5 -216h-158q68 74 129 134t116 112.5t104 101.5t93.5 101.5t84.5 113.5t77 136q-55 -32 -113.5 -49.5t-119.5 -17.5
q-82 0 -147.5 31t-108 84.5t-58 125.5t2.5 154q17 82 63 154t111.5 125.5t144 84.5t160.5 31zM850 1027q10 49 0.5 92t-35 75.5t-64.5 51t-88 18.5t-96 -19t-86 -51t-67 -75t-38 -92q-11 -49 -1.5 -92t35 -75.5t64.5 -51t88 -18.5t96 18.5t86 51t67 75.5t39 92z" />
    <glyph glyph-name="colon" unicode=":" 
d="M325 790q7 33 25.5 61.5t45 50t58 34t63.5 12.5q33 0 59 -12.5t42.5 -34t23 -50t-0.5 -61.5t-25.5 -61.5t-44.5 -50t-57 -34t-64 -12.5t-59 12.5t-43 34t-23.5 50t0.5 61.5zM191 158q7 33 25.5 61.5t44.5 50t57.5 34t64.5 12.5q32 0 58 -12.5t43 -34t23.5 -50t-0.5 -61.5
t-25.5 -61.5t-44.5 -50t-57 -34t-64 -12.5t-59 12.5t-43 34t-23.5 50t0.5 61.5z" />
    <glyph glyph-name="semicolon" unicode=";" 
d="M325 790q7 33 25.5 61.5t45 50t58 34t63.5 12.5q33 0 59 -12.5t42.5 -34t23 -50t-0.5 -61.5t-25.5 -61.5t-44.5 -50t-57 -34t-64 -12.5t-59 12.5t-43 34t-23.5 50t0.5 61.5zM169 -316q-33 0 -51 23t-11 56t35 56t61 23q30 0 48.5 10.5t29.5 30.5t18.5 49.5t16.5 67.5
q-33 0 -59 12.5t-43 34t-23.5 50t0.5 61.5t25.5 61.5t44.5 50t57.5 34t64.5 12.5q32 0 58 -12.5t43 -34t23.5 -50t-0.5 -61.5l-33 -158q-13 -59 -40 -116t-66 -101.5t-89 -71.5t-110 -27z" />
    <glyph glyph-name="less" unicode="&#x3c;" 
d="M854 1150l-532 -439l345 -439l-138 -114l-390 496l24 114l601 496z" />
    <glyph glyph-name="equal" unicode="=" 
d="M-58 474l34 158h948l-34 -158h-948zM9 790l34 158h948l-34 -158h-948z" />
    <glyph glyph-name="greater" unicode="&#x3e;" 
d="M382 1264l391 -496l-24 -114l-602 -496l-90 114l533 439l-346 439z" />
    <glyph glyph-name="question" unicode="?" 
d="M201 948q22 102 66.5 189t108.5 150.5t145 99t176 35.5q89 0 156 -28.5t107.5 -80t53.5 -124.5t-6 -162q-17 -79 -51 -128.5t-76.5 -84.5t-89.5 -63t-89.5 -63t-76.5 -85t-51 -129h-158q21 99 58 162t81 104.5t91 69.5t88 56.5t72 65t44 95.5q49 237 -187 237
q-48 0 -94.5 -18.5t-87 -57t-72.5 -98t-50 -142.5h-158zM383 316h158l-67 -316h-158z" />
    <glyph glyph-name="at" unicode="@" 
d="M363 -316q-89 0 -165.5 40.5t-129 107.5t-75 152t-3.5 174l168 790q23 108 79 196t133.5 149.5t171 95t191.5 33.5q89 0 165.5 -40.5t129 -107.5t75 -152t3.5 -174l-168 -790h-316q-84 0 -136 35t-78.5 91.5t-29.5 127t12 141.5q16 76 50.5 147t85.5 126t117.5 88.5
t146.5 33.5h158q13 59 -2 116t-50 101.5t-86.5 71.5t-110.5 27t-121.5 -27t-116 -71.5t-93 -101.5t-52.5 -116l-168 -790q-12 -59 3 -116t49.5 -101.5t85.5 -71.5t111 -27h316l-34 -158h-316zM814 316l100 474h-158q-30 0 -61 -15t-59.5 -44.5t-51.5 -74t-36 -103.5
q-12 -59 -8 -103.5t20 -74t41 -44.5t55 -15h158z" />
    <glyph glyph-name="A" unicode="A" 
d="M158 0l218 474h395l19 -474h158l-93 1422h-158l-697 -1422h158zM725 1185l41 -553h-316z" />
    <glyph glyph-name="B" unicode="B" 
d="M302 1422h395q82 0 147.5 -31t107.5 -84.5t57.5 -125.5t-1.5 -154q-21 -98 -82 -180t-144 -136q60 -54 86 -136.5t5 -179.5q-17 -82 -63.5 -154t-111 -125.5t-143 -84.5t-160.5 -31h-395zM562 790q49 0 96 18.5t86.5 51t67 75.5t38.5 92q10 49 0.5 92t-35 75.5t-64.5 51
t-88 18.5h-237l-101 -474h237zM428 158q49 0 96 18.5t86.5 51t67 75.5t37.5 92q11 49 1.5 92t-35 75.5t-64.5 51t-88 18.5h-237l-101 -474h237z" />
    <glyph glyph-name="C" unicode="C" 
d="M666 1264q-51 0 -99 -18.5t-87 -51t-66.5 -75.5t-37.5 -92l-135 -632q-10 -49 -0.5 -92t34.5 -75.5t65 -51t91 -18.5q42 0 81.5 11.5t74.5 32.5t63.5 50t48.5 64h158q-29 -68 -76 -126t-107.5 -100t-130.5 -66t-145 -24q-84 0 -150 31t-109 84.5t-58 125.5t2 154l135 632
q17 82 63 154t111.5 125.5t144.5 84.5t163 31q75 0 135.5 -24t102 -66.5t64.5 -100.5t23 -125h-158q-5 34 -21.5 63t-42 50t-60.5 33t-77 12z" />
    <glyph glyph-name="D" unicode="D" 
d="M302 1422h395q82 0 147.5 -31t107.5 -84.5t57.5 -125.5t-1.5 -154l-135 -632q-17 -82 -63.5 -154t-111 -125.5t-143 -84.5t-160.5 -31h-395zM428 158q49 0 96 18.5t86.5 51t67 75.5t37.5 92l135 632q10 49 0.5 92t-35 75.5t-64.5 51t-88 18.5h-237l-235 -1106h237z" />
    <glyph glyph-name="E" unicode="E" 
d="M302 1422h790l-34 -158h-632l-101 -474h474l-33 -158h-474l-101 -474h632l-33 -158h-790z" />
    <glyph glyph-name="F" unicode="F" 
d="M302 1422h790l-34 -158h-632l-101 -474h474l-33 -158h-474l-134 -632h-158z" />
    <glyph glyph-name="G" unicode="G" 
d="M665 158q-6 -30 -36.5 -58t-71.5 -50.5t-85 -36t-77 -13.5q-82 0 -147.5 31t-108 84.5t-58 125.5t1.5 154l135 632q17 82 63.5 154t111.5 125.5t143.5 84.5t160.5 31q72 0 131 -24t100.5 -66.5t65 -100.5t23.5 -125h-164q-5 34 -21 63t-40.5 50t-57 33t-71.5 12
q-49 0 -96 -18.5t-86.5 -51t-67 -75.5t-37.5 -92l-135 -632q-10 -49 -0.5 -92t35 -75.5t64.5 -51t88 -18.5q48 0 96.5 26t89 63t68 77.5t33.5 70.5l51 237h-158l33 158h316l-167 -790h-158z" />
    <glyph glyph-name="H" unicode="H" 
d="M302 1422h158l-135 -632h474l135 632h158l-302 -1422h-158l134 632h-474l-134 -632h-158z" />
    <glyph glyph-name="I" unicode="I" 
d="M33 158h316l235 1106h-316l34 158h790l-34 -158h-316l-235 -1106h316l-33 -158h-790z" />
    <glyph glyph-name="J" unicode="J" 
d="M100 474h158q-17 -79 -10.5 -138t30 -98.5t62.5 -59.5t88 -20t96 18.5t86 51t67 75.5t38 92l219 1027h158l-219 -1027q-17 -82 -63 -154t-111 -125.5t-143.5 -84.5t-160.5 -31q-83 0 -148 32t-105.5 93t-52.5 149t11 200z" />
    <glyph glyph-name="K" unicode="K" 
d="M319 761l595 661h178l-625 -711l323 -711h-180l-317 638l-135 -638h-158l302 1422h158z" />
    <glyph glyph-name="L" unicode="L" 
d="M302 1422h158l-269 -1264h632l-33 -158h-790z" />
    <glyph glyph-name="M" unicode="M" 
d="M867 1106l-325 -414l-149 414l-235 -1106h-158l302 1422h158l136 -474l338 474h158l-302 -1422h-158z" />
    <glyph glyph-name="N" unicode="N" 
d="M0 0l302 1422h158l250 -1052l224 1052h158l-302 -1422h-158l-251 1052l-223 -1052h-158z" />
    <glyph glyph-name="O" unicode="O" 
d="M218 1027q17 82 63 154t111.5 125.5t144 84.5t160.5 31t147.5 -31t107.5 -84.5t57.5 -125.5t-1.5 -154l-135 -632q-17 -82 -63 -154t-111 -125.5t-143.5 -84.5t-160.5 -31q-83 0 -148 31t-107 84.5t-58 125.5t1 154zM663 1264q-49 0 -96 -19t-86 -51t-67 -75t-38 -92
l-135 -632q-10 -49 -0.5 -92t35 -75.5t64.5 -51t88 -18.5t96 18.5t86 51t67 75.5t38 92l135 632q10 49 0.5 92t-35 75.5t-64.5 51t-88 18.5z" />
    <glyph glyph-name="P" unicode="P" 
d="M158 0h-158l302 1422h395q82 0 147.5 -31t107.5 -84.5t57.5 -125.5t-1.5 -154q-18 -82 -64 -154t-111 -125.5t-143.5 -84.5t-160.5 -31h-237zM562 790q53 0 102 23t88 58t65 76.5t33 79.5q10 49 0.5 92t-35 75.5t-64.5 51t-88 18.5h-237l-101 -474h237z" />
    <glyph glyph-name="Q" unicode="Q" 
d="M539 25q-71 -25 -144 -25q-83 0 -148 31t-107 84.5t-58 125.5t1 154l135 632q17 82 63 154t111.5 125.5t144 84.5t160.5 31t147.5 -31t107.5 -84.5t57.5 -125.5t-1.5 -154l-135 -632q-18 -87 -68 -161.5t-119 -128.5l76 -263h-170zM663 1264q-49 0 -96 -19t-86 -51
t-67 -75t-38 -92l-135 -632q-9 -63 8.5 -112.5t54 -80.5t87.5 -41t107 7l-88 306h170l62 -217q26 29 45.5 64t27.5 74l135 632q10 49 0.5 92t-35 75.5t-64.5 51t-88 18.5z" />
    <glyph glyph-name="R" unicode="R" 
d="M621 642q176 -641 176 -642h-181q-176 629 -174 632h-150l-134 -632h-158l302 1422h395q82 0 147.5 -31t107.5 -84.5t57.5 -125.5t-1.5 -154q-15 -70 -52 -133t-88.5 -114t-115 -87t-131.5 -51zM562 790q49 0 96 18.5t86 51t67 75.5t39 92q10 49 0.5 92t-35 75.5
t-64.5 51t-88 18.5h-237l-101 -474h237z" />
    <glyph glyph-name="S" unicode="S" 
d="M376 1027q-11 -49 -1.5 -92t35 -75.5t64.5 -51t88 -18.5q82 0 147.5 -31t108 -84.5t58 -125.5t-2.5 -154q-17 -82 -63 -154t-111 -125.5t-143.5 -84.5t-160.5 -31h-395l33 158h395q49 0 96 18.5t86 51t67 75.5t38 92q11 49 1.5 92t-35 75.5t-64.5 51t-88 18.5
q-82 0 -147.5 31t-108 84.5t-58 125.5t2.5 154q17 82 63 154t111.5 125.5t144 84.5t160.5 31h395l-34 -158h-395q-49 0 -96 -19t-86 -51t-67 -75t-38 -92z" />
    <glyph glyph-name="T" unicode="T" 
d="M584 1264h-316l34 158h790l-34 -158h-316l-268 -1264h-158z" />
    <glyph glyph-name="U" unicode="U" 
d="M316 1422h158l-219 -1027q-10 -49 -0.5 -92t35 -75.5t64.5 -51t88 -18.5t96 18.5t86 51t67 75.5t38 92l219 1027h158l-219 -1027q-17 -82 -63 -154t-111 -125.5t-143.5 -84.5t-160.5 -31q-83 0 -148 31t-107 84.5t-58 125.5t1 154l84 395z" />
    <glyph glyph-name="V" unicode="V" 
d="M316 1422l16 -1040l458 1040h158l-618 -1422h-158l-14 1422h158z" />
    <glyph glyph-name="W" unicode="W" 
d="M934 1422h158l-302 -1422h-158l-137 474l-337 -474h-158l302 1422h158l-235 -1106l325 414l149 -414z" />
    <glyph glyph-name="X" unicode="X" 
d="M587 904l340 518h166l-461 -711l159 -711h-166l-121 517l-339 -517h-165l460 711l-159 711h166z" />
    <glyph glyph-name="Y" unicode="Y" 
d="M416 472l-114 950h158l86 -711l388 711h158l-518 -948l-100 -474h-158z" />
    <glyph glyph-name="Z" unicode="Z" 
d="M33 158l844 1106h-609l34 158h790l-34 -158l-832 -1106h597l-33 -158h-790z" />
    <glyph glyph-name="bracketleft" unicode="[" 
d="M493 1580h474l-33 -158h-316l-336 -1580h316l-34 -158h-474z" />
    <glyph glyph-name="backslash" unicode="\" 
d="M756 -158h-158l-296 1580h158z" />
    <glyph glyph-name="bracketright" unicode="]" 
d="M564 -316h-474l34 158h316l336 1580h-316l33 158h474z" />
    <glyph glyph-name="asciicircum" unicode="^" 
d="M592 1422h190l172 -632h-181l-127 442l-315 -442h-182z" />
    <glyph glyph-name="underscore" unicode="_" 
d="M1 -316l-33 -158h1105l33 158h-1105z" />
    <glyph glyph-name="grave" unicode="`" 
d="M302 1422l33 158l424 -237l-34 -158z" />
    <glyph glyph-name="a" unicode="a" 
d="M316 0q45 0 94 22t93.5 56.5t79 76.5t49.5 82q-2 -40 3.5 -82t23 -76.5t48.5 -56.5t82 -22l32 158q-38 1 -52 22.5t-6 56.5h-1l184 869h-77l-98 -79q-51 42 -106 60.5t-114 18.5q-82 0 -160.5 -31t-143.5 -84.5t-110.5 -125.5t-61.5 -154l-68 -316q-17 -83 0 -155
t59.5 -125.5t107 -84t142.5 -30.5zM316 158q-48 0 -81.5 20t-53 53t-24 76t4.5 88l68 316q10 49 37.5 92t66.5 75.5t86.5 51t96.5 18.5t86.5 -18.5t61.5 -50.5t34 -75t5 -93q-6 -57 -25 -120t-47.5 -124.5t-65 -117.5t-77.5 -98.5t-85 -67.5t-88 -25z" />
    <glyph glyph-name="b" unicode="b" 
d="M302 1422h157l-104 -468q22 27 52.5 54.5t66 49t75 35t80.5 13.5q82 0 147 -31t107 -84.5t58 -125.5t-1 -154l-68 -316q-17 -82 -63 -154t-111 -125.5t-143.5 -84.5t-159.5 -31q-63 0 -120 19.5t-102 58.5l-94 -78h-79zM240 395q-10 -49 -0.5 -92t35 -75.5t64.5 -51
t88 -18.5t96 18.5t86 51t67 75.5t38 92l68 316q10 49 0.5 92t-35 75.5t-64.5 51t-88 18.5q-37 0 -75.5 -15t-75.5 -45.5t-71.5 -77t-62.5 -109.5z" />
    <glyph glyph-name="c" unicode="c" 
d="M241 395q-10 -49 2 -92t39.5 -75.5t69 -51t90.5 -18.5q39 0 76.5 11.5t71 32.5t61.5 50t48 64h158q-29 -68 -76.5 -125.5t-107.5 -100t-129 -66.5t-141 -24q-82 0 -148.5 31t-110.5 84.5t-61 125.5t0 154l68 316q17 82 65 154t114 125.5t146 84.5t162 31q72 0 130.5 -24
t100.5 -66.5t65.5 -100.5t22.5 -125h-158q-4 34 -20 63t-40.5 50t-57 33t-71.5 12q-49 0 -98.5 -18.5t-91 -51t-71.5 -75.5t-40 -92z" />
    <glyph glyph-name="d" unicode="d" 
d="M934 1422l-104 -475q-6 32 -27 61t-49 50.5t-61 34.5t-63 13q-82 0 -160.5 -31t-143 -84.5t-110 -125.5t-61.5 -154l-68 -316q-14 -84 2 -156t57 -125.5t105 -83.5t145 -30q45 0 88 14t79.5 38.5t65 58.5t43.5 74q-2 -40 10 -74t36.5 -58.5t62 -38.5t88.5 -14l31 158
q-38 1 -52 22.5t-6 56.5h-1l251 1185h-158zM395 158q-48 0 -81.5 20t-53 53t-24 76t4.5 88l68 316q10 49 37.5 92t66.5 75.5t86.5 51t96.5 18.5q47 0 81.5 -24.5t55.5 -64t29 -89t1 -99.5q-16 -119 -53 -213.5t-87.5 -161.5t-109.5 -102.5t-118 -35.5z" />
    <glyph glyph-name="e" unicode="e" 
d="M83 395q-17 -82 3 -154t67 -125.5t116 -84.5t152 -31q72 0 142 24t131.5 66t109.5 100t76 126h-164q-20 -35 -49 -64t-63.5 -50t-73 -32.5t-76.5 -11.5q-39 0 -76 11.5t-66.5 32.5t-49 50t-24.5 64q90 29 166.5 60t148.5 66.5t143.5 77.5t152.5 92q52 47 73 101.5
t17.5 109.5t-29 106t-67 90.5t-96.5 63t-117 23.5q-82 0 -161 -31t-144 -84.5t-111 -125.5t-63 -154zM309 711q10 49 38 92t67 75t86 51t96 19q67 0 110.5 -26t61.5 -63t11.5 -78t-37.5 -70q-68 -36 -128.5 -69t-118.5 -62.5t-116 -55.5t-121 -50z" />
    <glyph glyph-name="f" unicode="f" 
d="M201 948h158l17 79q17 82 63.5 154t111.5 125.5t143.5 84.5t160.5 31h127l-34 -158h-127q-49 0 -96 -18.5t-86.5 -51t-67 -75.5t-37.5 -92l-17 -79h316l-34 -158h-316l-167 -790h-158l167 790h-158z" />
    <glyph glyph-name="g" unicode="g" 
d="M90 -316h237q49 0 96 18.5t86 51t67 75.5t39 92l43 208q-43 -63 -112 -96t-151 -33q-83 0 -148 31t-107 84.5t-58 125.5t1 154l68 316q17 82 63 154t111 125.5t144 84.5t161 31q43 0 78 -12t61 -31t42 -42t19 -45l118 130h77l-252 -1185q-18 -82 -64 -154t-111 -125.5
t-143.5 -84.5t-160.5 -31h-237zM241 395q-10 -49 -0.5 -92t35 -75.5t64.5 -51t88 -18.5q40 0 77.5 18t70 45.5t60 61t47 64.5t30 55t10.5 33l42 236q14 51 9.5 100.5t-26 89t-60 63.5t-92.5 24q-49 0 -96 -19t-86 -51t-67 -75t-38 -92z" />
    <glyph glyph-name="h" unicode="h" 
d="M783 711q10 49 0.5 92t-35 75.5t-64.5 51t-88 18.5q-33 0 -66 -14t-64 -38t-59.5 -55t-51.5 -65t-39.5 -69t-24.5 -66l-133 -641h-158l302 1422h158l-104 -476q26 35 58.5 64.5t68 50.5t73.5 33t74 12q82 0 147 -31t107 -84.5t58 -125.5t-1 -154l-151 -711h-158z" />
    <glyph glyph-name="i" unicode="i" 
d="M316 158q-6 -30 1.5 -58t25.5 -50.5t43.5 -36t54.5 -13.5h159l33 158h-79q-40 0 -55 22t-7 57l151 711q6 30 -1.5 58t-25 50.5t-43 36t-55.5 13.5h-158l-34 -158h80q36 0 53 -22.5t9 -56.5zM551 1264h158l34 158h-158z" />
    <glyph glyph-name="j" unicode="j" 
d="M15 0q-19 -89 -9.5 -149.5t42.5 -97.5t87.5 -53t126.5 -16q60 0 122.5 27t116 71.5t93 101.5t53.5 116l234 1106h-316l-34 -158h158l-185 -869q-50 -237 -286 -237q-14 0 -26.5 7.5t-19.5 25.5t-7.5 48.5t8.5 76.5h-158zM756 1264h158l34 158h-158z" />
    <glyph glyph-name="k" unicode="k" 
d="M292 632h38l501 474h194l-571 -553l336 -553h-194l-300 474h-38l-100 -474h-158l302 1422h158z" />
    <glyph glyph-name="l" unicode="l" 
d="M348 158q-6 -30 1.5 -58t25.5 -50.5t44 -36t55 -13.5h159l32 158h-79q-40 0 -55 22t-7 57l219 1027q6 30 -1.5 58t-25 50.5t-43 36t-55.5 13.5h-158l-34 -158h80q36 0 53 -22.5t9 -56.5z" />
    <glyph glyph-name="m" unicode="m" 
d="M500 869h-1q18 79 -61 79t-95 -79h-1l-184 -869h-158l235 1106h197q36 0 65.5 -12t50.5 -33t32.5 -50t11.5 -63h7q14 34 37.5 63t54 50t65.5 33t71 12q41 0 73.5 -15.5t53.5 -42t29 -62.5t0 -77l-193 -909h-158l184 869q16 79 -62 79q-80 0 -96 -79l-184 -869h-158z" />
    <glyph glyph-name="n" unicode="n" 
d="M596 948q-33 0 -66 -14t-64 -38t-59.5 -55t-51.5 -65t-39.5 -69t-24.5 -66l-133 -641h-158l235 1106h81l40 -160q19 33 48.5 62t65.5 50.5t77 34.5t83 13q82 0 147 -31t107 -84.5t58 -125.5t-1 -154l-151 -711h-158l151 711q10 49 0.5 92t-35 75.5t-64.5 51t-88 18.5z
" />
    <glyph glyph-name="o" unicode="o" 
d="M151 711q17 82 63.5 154t111 125.5t143.5 84.5t161 31t147 -31t107.5 -84.5t58 -125.5t-1.5 -154l-68 -316q-17 -82 -63.5 -154t-111 -125.5t-143 -84.5t-160.5 -31t-147.5 31t-108 84.5t-58 125.5t1.5 154zM241 395q-10 -49 -0.5 -92t35 -75.5t64.5 -51t88 -18.5
t96 18.5t86.5 51t67 75.5t37.5 92l68 316q10 49 0.5 92t-35 75.5t-64.5 51t-88 18.5t-96 -18.5t-86.5 -51t-67 -75.5t-37.5 -92z" />
    <glyph glyph-name="p" unicode="p" 
d="M235 1106h81l40 -160q11 18 36 45t61 52.5t81 44t96 18.5q82 0 147 -31t107 -84.5t58 -125.5t-1 -154l-68 -316q-17 -82 -63 -154t-111 -125.5t-143.5 -84.5t-160.5 -31q-46 0 -80 12.5t-58 34.5t-39 50.5t-24 61.5l-137 -633h-158zM596 948q-48 0 -97 -27.5t-92 -72
t-74.5 -101.5t-43.5 -116l-28 -156q-12 -59 -5.5 -116t28.5 -101.5t59 -72t85 -27.5q49 0 96 18.5t86 51t67 75.5t38 92l68 316q10 49 0.5 92t-35 75.5t-64.5 51t-88 18.5z" />
    <glyph glyph-name="q" unicode="q" 
d="M668 159q-25 -38 -56.5 -67.5t-67.5 -50t-74 -31t-75 -10.5q-83 0 -148 31t-107 84.5t-58 125.5t1 154l68 316q17 82 63 154t111 125.5t144 84.5t161 31q49 0 84.5 -15.5t59.5 -39t37.5 -52t18.5 -53.5l118 160h77l-336 -1580h-158zM241 395q-10 -49 -0.5 -92t35 -75.5
t64.5 -51t88 -18.5q48 0 97 27.5t92 72t74.5 101.5t43.5 116l28 156q12 59 5.5 116t-28.5 101.5t-59 72t-85 27.5q-49 0 -96 -19t-86 -51t-67 -75t-38 -92z" />
    <glyph glyph-name="r" unicode="r" 
d="M0 0l235 1106h81l43 -160q23 31 68 59.5t97 51t102 36t83 13.5q71 0 117.5 -24t74.5 -66.5t38.5 -100.5t9.5 -125h-164q-4 34 -7.5 63t-13.5 50t-30.5 33t-58.5 12q-32 0 -70.5 -12.5t-78.5 -35t-78.5 -53t-70.5 -65.5t-54.5 -73.5t-30.5 -77.5l-134 -631h-158z" />
    <glyph glyph-name="s" unicode="s" 
d="M1025 1106l-34 -158h-395q-59 0 -106.5 -13.5t-81.5 -36t-55 -50.5t-28 -58q-6 -30 3 -58t34 -50.5t66.5 -36t100.5 -13.5q39 0 82.5 -7t84 -22t75.5 -39.5t58 -59.5t32 -81t-4 -105q-13 -60 -53.5 -117t-101.5 -102t-139.5 -72t-167.5 -27h-395l33 158h395
q59 0 106.5 13.5t81.5 36t55.5 51.5t27.5 59q6 29 -3 57t-33.5 50t-66.5 35.5t-101 13.5q-39 0 -82.5 7t-84 22.5t-75.5 40t-58 59.5t-31.5 81.5t3.5 105.5q13 59 53.5 116t101.5 101.5t140 71.5t168 27h395z" />
    <glyph glyph-name="t" unicode="t" 
d="M235 1106h158l67 316h158l-67 -316h316l-34 -158h-316l-118 -553q-10 -49 -0.5 -92t35 -75.5t64.5 -51t88 -18.5h237l-33 -158h-237q-82 0 -147.5 31t-108 84.5t-58 125.5t1.5 154l118 553h-158z" />
    <glyph glyph-name="u" unicode="u" 
d="M766 632q-23 -104 -64 -191t-92 -150t-108 -98t-111 -35q-46 0 -80 20t-54 53t-24.5 76t8.5 88l152 711h-158l-152 -711q-13 -62 -7.5 -118t26.5 -103t57 -83.5t85 -59.5q32 -16 70 -23.5t79 -7.5q45 0 87.5 14t79.5 38.5t65 58.5t43 74q-2 -40 9 -74t28.5 -58.5
t40 -38.5t44.5 -14h76l30 158q-38 1 -51 22.5t-5 56.5l185 869h-158z" />
    <glyph glyph-name="v" unicode="v" 
d="M1027 1106l-553 -1106h-237v1106h158v-948l474 948h158z" />
    <glyph glyph-name="w" unicode="w" 
d="M524 237q-17 -79 62 -79t96 79l185 869h158l-194 -909q-8 -41 -31.5 -77t-56 -62.5t-71.5 -42t-80 -15.5q-36 0 -66 12t-51 33t-32.5 50t-11.5 63h-7q-14 -34 -38 -63t-54 -50t-64.5 -33t-70.5 -12q-41 0 -74 15.5t-54 42t-28.5 62.5t0.5 77l194 909h158l-185 -869h1
q-18 -79 61 -79t95 79h1l84 395h158z" />
    <glyph glyph-name="x" unicode="x" 
d="M545 706l309 400h173l-429 -553l194 -553h-173l-140 398l-309 -398h-173l428 553l-193 553h173z" />
    <glyph glyph-name="y" unicode="y" 
d="M241 395q-10 -49 -0.5 -92t35 -75.5t64.5 -51t88 -18.5q48 1 97 30.5t91 74.5t73.5 101t45.5 111l132 631h158l-252 -1185q-18 -82 -64 -154t-111 -125.5t-143.5 -84.5t-160.5 -31h-237l33 158h237q49 0 96 18.5t86 51t67 75.5t39 92l53 238q-15 -32 -42 -61t-63 -51
t-78.5 -34.5t-89.5 -12.5q-83 0 -148 31t-107 84.5t-58 125.5t1 154l152 711h158z" />
    <glyph glyph-name="z" unicode="z" 
d="M803 948h-602l34 158h790l-34 -158l-771 -790h603l-33 -158h-790l33 158z" />
    <glyph glyph-name="braceleft" unicode="{" 
d="M513 732q-4 -21 -0.5 -39t13.5 -31.5t26.5 -21.5t36.5 -8q17 0 11 -33.5t-28.5 -87.5t-55.5 -122.5t-69.5 -138.5t-71.5 -136t-59 -114q-7 -30 13 -58t52.5 -50.5t70 -36t67.5 -13.5h237l-34 -158h-237q-89 0 -156 27t-109 71.5t-58.5 101.5t-3.5 116q45 118 89 211
t81 163.5t63 119.5t34.5 79.5t-3.5 44.5t-51 14h-237l33 158h237q39 0 52 13t9.5 39.5t-16 66t-23.5 92t-14 118.5t14 145q13 59 53.5 116t101.5 101.5t139.5 71.5t167.5 27h237l-33 -158h-237q-59 0 -106.5 -13.5t-82 -36t-55 -50.5t-27.5 -58q0 -23 5.5 -63.5t12.5 -88.5
t13.5 -98t12 -90t7 -66t-3.5 -26q-20 0 -39.5 -8t-35.5 -21.5t-27 -31.5t-16 -39z" />
    <glyph glyph-name="bar" unicode="|" 
d="M651 1580h158l-403 -1896h-158z" />
    <glyph glyph-name="braceright" unicode="}" 
d="M587 732q5 21 1 39t-14 31.5t-26.5 21.5t-36.5 8q-5 0 7.5 26t35 66t51 90t55.5 98t49.5 88.5t32.5 63.5q7 30 -2.5 58t-34 50.5t-66 36t-100.5 13.5h-237l33 158h237q89 0 156.5 -27t109.5 -71.5t58.5 -101.5t3.5 -116q-17 -79 -48 -145t-64 -118.5t-62.5 -92t-44 -66
t-8 -39.5t46.5 -13h237l-33 -158h-237q-40 0 -57.5 -14t-22 -44.5t0.5 -79.5t12 -119.5t12 -163.5t0 -211q-13 -59 -53.5 -116t-101.5 -101.5t-140 -71.5t-168 -27h-237l34 158h237q30 0 73.5 13.5t85 36t73.5 50.5t39 58q-5 48 -11.5 114t-13 136t-10.5 138.5t-3.5 122.5
t8.5 87.5t25 33.5q20 0 39.5 8t35.5 21.5t27.5 31.5t15.5 39z" />
    <glyph glyph-name="asciitilde" unicode="~" 
d="M991 948q-8 -40 -20 -90t-29.5 -103t-43 -103.5t-60.5 -90t-80.5 -63.5t-104.5 -24q-40 0 -68.5 20.5t-50 52.5t-38 70.5t-31 73.5t-29 62t-32.5 37q-16 9 -31.5 -5.5t-30.5 -43t-28 -66.5t-24 -76t-19 -71.5t-13 -53.5h-158q9 39 20.5 89.5t29.5 103.5t43 103.5t60 90
t80.5 63.5t104.5 24q39 0 68 -21t50.5 -53.5t38 -71.5t31 -74t29 -61.5t32.5 -34.5q16 -8 32.5 7.5t31.5 44t28 66t23.5 75t18.5 70.5t12 53h158z" />
    <glyph glyph-name="exclamdown" unicode="&#xa1;" 
d="M316 0h158l201 948h-158zM551 1106h158l67 316h-158z" />
    <glyph glyph-name="cent" unicode="&#xa2;" 
d="M209 52q-39 25 -68 61.5t-45.5 80.5t-20 95t7.5 106l68 316q17 82 63.5 154t111 125.5t143.5 84.5t161 31q9 0 18 -0.5t18 -1.5l70 160h170l-92 -211q63 -42 99.5 -110t35.5 -153h-164q-4 28 -15 52t-28 44l-317 -728h3q39 0 76.5 11.5t71 32.5t61.5 50t48 64h164
q-29 -68 -76.5 -125.5t-107.5 -100t-129 -66.5t-141 -24q-10 0 -19 0.5t-19 1.5l-69 -160h-170zM241 395q-11 -54 0.5 -98.5t39.5 -77.5l317 729h-2q-49 0 -96 -18.5t-86.5 -51t-67 -75.5t-37.5 -92z" />
    <glyph glyph-name="sterling" unicode="&#xa3;" 
d="M776 1422q59 0 110 -27t86 -71.5t50 -101.5t3 -116h-158q6 30 -1.5 58t-25.5 50.5t-43.5 36t-54.5 13.5q-30 0 -61 -13.5t-58 -36t-46.5 -50.5t-25.5 -58l-68 -316h316l-33 -158h-316l-101 -474h474l-33 -158h-790l33 158h158l101 474h-158l33 158h158l68 316
q12 59 51 116t93 101.5t117 71.5t122 27z" />
    <glyph glyph-name="currency" unicode="&#xa4;" 
d="M1095 1066l-171 -141q19 -48 24.5 -100.5t-7.5 -112.5t-41 -113.5t-66 -99.5l111 -141l-146 -120l-111 141q-54 -30 -110 -46t-116 -16t-110 16t-90 46l-171 -141l-93 120l170 141q-21 46 -25.5 99.5t8.5 113.5t40 112.5t67 100.5l-111 141l146 120l111 -141
q52 29 109 45.5t117 16.5t109 -16.5t91 -45.5l171 141zM309 712q-11 -49 -1.5 -92t35 -75.5t64.5 -51t88 -18.5t96 18.5t86.5 51t67 75.5t38.5 92q10 49 1 92t-35 75.5t-65 51t-88 18.5t-96 -18.5t-86 -51t-67 -75.5t-38 -92z" />
    <glyph glyph-name="yen" unicode="&#xa5;" 
d="M67 316h318l33 158h-318l34 158h289l-121 790h176l86 -625l351 625h177l-458 -790h290l-34 -158h-318l-33 -158h318l-34 -158h-318l-33 -158h-154l33 158h-318z" />
    <glyph glyph-name="brokenbar" unicode="&#xa6;" 
d="M416 474h158l-168 -790h-158zM651 1580h158l-168 -790h-158z" />
    <glyph glyph-name="section" unicode="&#xa7;" 
d="M1092 1422l-34 -158h-395q-59 0 -106.5 -13.5t-81.5 -36t-55 -50.5t-27 -58q-7 -30 2 -58t34 -50.5t66.5 -36t100.5 -13.5q39 0 82.5 -7t84.5 -22t75.5 -39.5t57.5 -59.5t32 -81t-4 -105q-14 -66 -60.5 -127.5t-118.5 -107.5q24 -19 42.5 -43t29.5 -53.5t13 -65t-6 -77.5
q-13 -60 -53.5 -117t-102 -102t-140 -72t-167.5 -27h-394l33 158h395q59 0 106 13.5t81.5 36t55.5 51.5t28 59q6 29 -3 57t-34 50t-66.5 35.5t-100.5 13.5q-39 0 -82.5 7t-84.5 22.5t-75.5 40t-57.5 59.5t-32 81.5t4 105.5q14 65 60.5 126.5t116.5 106.5q-48 38 -71.5 96.5
t-4.5 144.5q12 59 52.5 116t101.5 101.5t140 71.5t168 27h395zM292 632q-7 -30 2.5 -58t34 -50.5t66 -36t100.5 -13.5t106.5 13.5t82 36t55.5 51.5t27 59q6 29 -3 57t-33.5 50t-66.5 35.5t-101 13.5h-12q-56 -2 -101.5 -16t-78 -36t-52.5 -49.5t-26 -56.5z" />
    <glyph glyph-name="dieresis" unicode="&#xa8;" 
d="M316 1343q0 33 23 56t56 23t56 -23t23 -56t-23 -56t-56 -23t-56 23t-23 56zM632 1343q0 33 23 56t56 23t56 -23t23 -56t-23 -56t-56 -23t-56 23t-23 56z" />
    <glyph glyph-name="copyright" unicode="&#xa9;" 
d="M-6 711q30 147 98 276.5t161.5 226t207 152.5t236.5 56t212.5 -56t142 -152.5t65.5 -226t-18 -276.5q-32 -147 -100 -276.5t-161.5 -226t-206.5 -152.5t-236 -56t-213 56t-142 152.5t-65 226t19 276.5zM151 711q-25 -114 -18.5 -215t42.5 -176t99.5 -118.5t153.5 -43.5
t172.5 43.5t149.5 118.5t116.5 176t74.5 215q24 114 17.5 215t-42 176t-99.5 118.5t-154 43.5t-172 -43.5t-149.5 -118.5t-117 -176t-73.5 -215zM467 711q-11 -49 -17 -92t-4.5 -75.5t13 -51t36.5 -18.5q19 0 33 11.5t26 32.5t22.5 50t24.5 64h159q-24 -68 -54.5 -125.5
t-68 -100t-81.5 -66.5t-94 -24q-57 0 -95 31t-56.5 84.5t-19 125.5t17.5 154q17 82 48 154t72 125.5t92.5 84.5t108.5 31q50 0 83.5 -24t53 -66.5t26 -100.5t0.5 -125h-159q2 34 3.5 63t-1.5 50t-12 33t-28 12q-25 0 -44.5 -18.5t-35 -51t-27.5 -75.5t-22 -92z" />
    <glyph glyph-name="ordfeminine" unicode="&#xaa;" 
d="M237 1422h158q237 0 237 -237v-553h-237q-237 0 -237 237t237 237h79v79q0 15 -6.5 29t-17 25t-25 18t-30.5 7h-158v158zM395 948q-38 0 -58.5 -22.5t-20.5 -57.5t23 -56.5t56 -21.5h79v158h-79z" />
    <glyph glyph-name="guillemotleft" unicode="&#xab;" 
d="M474 948l79 -79l-237 -316l237 -316l-80 -79l-315 395zM869 948l79 -79l-237 -316l237 -316l-80 -79l-315 395z" />
    <glyph glyph-name="logicalnot" unicode="&#xac;" 
d="M790 790h-632l34 158h790l-101 -474h-158z" />
    <glyph glyph-name="uni00AD" unicode="&#xad;" 
d="M191 790h790l-33 -158h-790z" />
    <glyph glyph-name="registered" unicode="&#xae;" 
d="M-6 711q30 147 98 276.5t161.5 226t207 152.5t236.5 56t212.5 -56t142 -152.5t65.5 -226t-18 -276.5q-32 -147 -100 -276.5t-161.5 -226t-206.5 -152.5t-236 -56t-213 56t-142 152.5t-65 226t19 276.5zM151 711q-25 -114 -18.5 -215t42.5 -176t99.5 -118.5t153.5 -43.5
t172.5 43.5t149.5 118.5t116.5 176t74.5 215q24 114 17.5 215t-42 176t-99.5 118.5t-154 43.5t-172 -43.5t-149.5 -118.5t-117 -176t-73.5 -215zM450 632l-67 -316h-158l168 790h237q49 0 88 -18.5t64.5 -51t35 -75.5t-1.5 -92q-10 -46 -32.5 -88.5t-52 -75.5t-61.5 -53
t-62 -20l91 -316h-158zM562 790q33 0 61 23t35 56t-11 56t-51 23h-79l-34 -158h79z" />
    <glyph glyph-name="macron" unicode="&#xaf;" 
d="M158 1422l33 158h790l-33 -158h-790z" />
    <glyph glyph-name="degree" unicode="&#xb0;" 
d="M158 1106q13 65 50.5 122.5t89.5 100.5t115 68t128 25t117 -25t86 -68t46.5 -100.5t-0.5 -122.5q-14 -65 -51.5 -122.5t-89.5 -100.5t-115 -68t-128 -25t-117 25t-86 68t-46.5 100.5t1.5 122.5zM316 1106q-7 -33 -1 -61.5t23 -50t43 -34t59 -12.5t64 12.5t57 34t45 50
t26 61.5t0.5 61.5t-23.5 50t-43 34t-59 12.5t-64 -12.5t-57 -34t-44.5 -50t-25.5 -61.5z" />
    <glyph glyph-name="plusminus" unicode="&#xb1;" 
d="M100 474h316l67 316h-316l34 158h316l67 316h158l-67 -316h316l-34 -158h-316l-67 -316h316l-33 -158h-790z" />
    <glyph glyph-name="twosuperior" unicode="&#xb2;" 
d="M158 948q0 20 23.5 51.5t58.5 68.5t76 77.5t76 77.5t58.5 68.5t23.5 51.5q0 30 -13.5 46t-36 23.5t-51 8.5t-57.5 1h-158v158h236q238 0 238 -237q0 -30 -27 -73.5t-71.5 -95t-101.5 -109.5t-116 -117h316v-158h-474v158z" />
    <glyph glyph-name="threesuperior" unicode="&#xb3;" 
d="M158 948h158q30 0 58 2t50.5 10t36 24t13.5 43t-13.5 43t-36 24t-50.5 10t-58 2v158q30 0 58.5 2t51 10t36 24t13.5 43t-13.5 43t-36 24t-51 10t-58.5 2h-158v158h237q237 0 237 -237q0 -59 -18.5 -93.5t-61.5 -64.5q43 -30 61.5 -64.5t18.5 -93.5q0 -237 -237 -237h-237
v158z" />
    <glyph glyph-name="acute" unicode="&#xb4;" 
d="M395 1264l-79 79l395 237l79 -79z" />
    <glyph glyph-name="mu" unicode="&#xb5;" 
d="M867 1106h158l-152 -711q-17 -82 -63.5 -154t-111 -125.5t-143 -84.5t-160.5 -31q-67 0 -123 21t-97 59l-85 -396h-157l302 1422h158l-152 -711q-12 -59 -2.5 -103.5t35.5 -74t66 -44.5t88 -15q49 0 96 18.5t86.5 51t67 75.5t37.5 92z" />
    <glyph glyph-name="paragraph" unicode="&#xb6;" 
d="M450 632q-59 0 -110.5 27t-86.5 71.5t-50 101.5t-2 116l34 158q12 59 51 116t93 101.5t117 71.5t122 27h474l-369 -1737h-158l335 1579h-158l-336 -1580h-158z" />
    <glyph glyph-name="periodcentered" unicode="&#xb7;" 
d="M316 790q0 33 12.5 61.5t34 50t50 34t61.5 12.5t61.5 -12.5t50 -34t34 -50t12.5 -61.5t-12.5 -61.5t-34 -50t-50 -34t-61.5 -12.5t-61.5 12.5t-50 34t-34 50t-12.5 61.5z" />
    <glyph glyph-name="cedilla" unicode="&#xb8;" 
d="M632 0q0 -89 -29.5 -160.5t-89 -116t-148.5 -57t-207 17.5v158q89 -30 149.5 -31t97.5 21t53 65.5t16 102.5h158z" />
    <glyph glyph-name="onesuperior" unicode="&#xb9;" 
d="M316 948v474l-158 -158v158l158 158h158v-632h158v-158h-474v158h158z" />
    <glyph glyph-name="ordmasculine" unicode="&#xba;" 
d="M158 1027q0 82 31 154t84.5 125.5t125.5 84.5t154 31t154 -31t125.5 -84.5t84.5 -125.5t31 -154t-31 -154t-84.5 -125.5t-125.5 -84.5t-154 -31t-154 31t-125.5 84.5t-84.5 125.5t-31 154zM316 1027q0 -49 18.5 -92t51 -75.5t75.5 -51t92 -18.5t92 18.5t75.5 51t51 75.5
t18.5 92t-18.5 92t-51 75.5t-75.5 51t-92 18.5t-92 -18.5t-75.5 -51t-51 -75.5t-18.5 -92zM158 473h790v-157h-790v157z" />
    <glyph glyph-name="guillemotright" unicode="&#xbb;" 
d="M632.029 948l-78.9951 -79l236.985 -316l-236.985 -316l79.9951 -79l314.98 395zM237.053 948l-78.9951 -79l236.985 -316l-236.985 -316l79.9951 -79l314.981 395z" />
    <glyph glyph-name="onequarter" unicode="&#xbc;" 
d="M159 948v474l-158 -158v158l158 158h158v-632h158v-158h-474v158h158zM790 1580h158l-632 -1580h-158zM632 475l316 316h158v-790h-158v158h-316v316zM948 317v237l-158 -158v-79h158z" />
    <glyph glyph-name="onehalf" unicode="&#xbd;" 
d="M159 948v474l-158 -158v158l158 158h158v-632h158v-158h-474v158h158zM622.337 159q0 20 23.9961 51.5t59.7354 68.5t77.6055 77.5q41.8652 40.5 77.6045 77.5t59.7354 68.5t23.9961 51.5q0 30 -13.7852 46t-36.7598 23.5q-22.9756 7.5 -52.0771 8.5t-58.7139 1h-161.337
v158h240.983q243.026 0 243.026 -237q0 -30 -27.5703 -73.5t-73.0098 -95t-103.644 -109.5t-118.449 -117h322.673v-158h-484.01v158zM790 1580h158l-632 -1580h-158z" />
    <glyph glyph-name="threequarters" unicode="&#xbe;" 
d="M790 1580h158l-632 -1580h-158zM632 475l316 316h158v-790h-158v158h-316v316zM948 317v237l-158 -158v-79h158zM1 948h158q30 0 58 2t50.5 10t36 24t13.5 43t-13.5 43t-36 24t-50.5 10t-58 2v158q30 0 58.5 2t51 10t36 24t13.5 43t-13.5 43t-36 24t-51 10t-58.5 2h-158
v158h237q237 0 237 -237q0 -59 -18.5 -93.5t-61.5 -64.5q43 -30 61.5 -64.5t18.5 -93.5q0 -237 -237 -237h-237v158z" />
    <glyph glyph-name="questiondown" unicode="&#xbf;" 
d="M873 395q-17 -82 -61 -154t-106.5 -125.5t-142 -84.5t-168.5 -31t-156 28.5t-107.5 80t-53.5 124.5t5 162q17 79 52.5 134t79 97t92 75t91 68.5t74.5 77.5t45 101h158q-17 -79 -52 -134t-79 -97t-92 -75t-90.5 -68.5t-75 -77.5t-45.5 -101q-50 -237 187 -237t287 237
l17 79h158zM709 1106h-158l67 316h158z" />
    <glyph glyph-name="Agrave" unicode="&#xc0;" 
d="M158 0l218 474h395l19 -474h158l-93 1422h-158l-697 -1422h158zM725 1185l41 -553h-316zM460 1738l33 158l424 -237l-34 -158z" />
    <glyph glyph-name="Aacute" unicode="&#xc1;" 
d="M158 0l218 474h395l19 -474h158l-93 1422h-158l-697 -1422h158zM725 1185l41 -553h-316zM553 1580l-79 79l395 237l79 -79z" />
    <glyph glyph-name="Acircumflex" unicode="&#xc2;" 
d="M158 0l218 474h395l19 -474h158l-93 1422h-158l-697 -1422h158zM725 1185l41 -553h-316zM711 1896l237 -237l-79 -79l-158 158l-158 -158l-79 79z" />
    <glyph glyph-name="Atilde" unicode="&#xc3;" 
d="M158 0l218 474h395l19 -474h158l-93 1422h-158l-697 -1422h158zM725 1185l41 -553h-316zM1106 1817q-119 -237 -237 -237q-59 0 -94.5 11.5t-57.5 29.5t-35.5 38t-29 38t-38 29.5t-61.5 11.5q-30 0 -58 -13.5t-50.5 -36t-36 -50.5t-13.5 -58l-79 79q118 237 237 237
q59 0 94.5 -11.5t57.5 -29.5t35.5 -38t29 -38t37.5 -29.5t62 -11.5q30 0 58 13.5t50.5 36t36 50.5t13.5 58z" />
    <glyph glyph-name="Adieresis" unicode="&#xc4;" 
d="M158 0l218 474h395l19 -474h158l-93 1422h-158l-697 -1422h158zM725 1185l41 -553h-316zM474 1659q0 33 23 56t56 23t56 -23t23 -56t-23 -56t-56 -23t-56 23t-23 56zM790 1659q0 33 23 56t56 23t56 -23t23 -56t-23 -56t-56 -23t-56 23t-23 56z" />
    <glyph glyph-name="Aring" unicode="&#xc5;" 
d="M158 0l218 474h395l19 -474h158l-93 1422h-158l-697 -1422h158zM725 1185l41 -553h-316zM474 1817q0 49 18.5 92t51 75.5t75.5 51t92 18.5t92 -18.5t75.5 -51t51 -75.5t18.5 -92t-18.5 -92t-51 -75.5t-75.5 -51t-92 -18.5t-92 18.5t-75.5 51t-51 75.5t-18.5 92zM632 1817
q0 -33 23 -56t56 -23t56 23t23 56t-23 56t-56 23t-56 -23t-23 -56z" />
    <glyph glyph-name="AE" unicode="&#xc6;" 
d="M235 1106q12 59 51 116t93 101.5t117 71.5t122 27h474l-34 -158h-316l-101 -474h158l-33 -158h-158l-101 -474h316l-33 -158h-474l134 632h-158l-134 -632h-158zM483 790l101 474q-45 0 -79 -18.5t-58 -44t-37.5 -52.5t-16.5 -43l-68 -316h158z" />
    <glyph glyph-name="Ccedilla" unicode="&#xc7;" 
d="M671.829 1264q-51.5225 0 -100.015 -18.5t-87.8926 -51t-67.1816 -75.5q-27.7822 -43 -37.8848 -92l-136.385 -632q-10.1016 -49 -0.504883 -92q9.59766 -43 34.8545 -75.5q25.2559 -32.5 65.666 -51t91.9336 -18.5q42.4297 0 82.335 11.5t75.2646 32.5
q35.3584 21 64.1504 50q28.793 29 48.998 64h159.619q-29.2969 -68 -76.7793 -126q-47.4814 -58 -108.602 -100q-61.1211 -42 -131.838 -66q-70.7188 -24 -146.487 -24q-84.8613 0 -151.538 31t-110.117 84.5q-43.4414 53.5 -58.5957 125.5q-15.1533 72 2.02148 154
l136.384 632q17.1748 82 63.6455 154q46.4727 72 112.644 125.5q66.1719 53.5 145.981 84.5q79.8105 31 164.672 31q75.7695 0 136.89 -24t103.046 -66.5t65.1611 -100.5t23.2354 -125h-159.619q-5.05176 34 -21.7207 63q-16.6699 29 -42.4307 50q-25.7617 21 -61.1201 33
q-35.3594 12 -77.79 12zM475 0q0 -81.2812 -29.5 -146.58t-89 -105.938q-59.5 -40.6406 -148.5 -52.0566t-207 15.9824v144.296q89 -27.3975 149.5 -28.3105q60.5 -0.914062 97.5 19.1777q37 20.0928 53 59.8193q16 39.7275 16 93.6104h158z" />
    <glyph glyph-name="Egrave" unicode="&#xc8;" 
d="M302 1422h790l-34 -158h-632l-101 -474h474l-33 -158h-474l-101 -474h632l-33 -158h-790zM460 1738l33 158l424 -237l-34 -158z" />
    <glyph glyph-name="Eacute" unicode="&#xc9;" 
d="M302 1422h790l-34 -158h-632l-101 -474h474l-33 -158h-474l-101 -474h632l-33 -158h-790zM553 1580l-79 79l395 237l79 -79z" />
    <glyph glyph-name="Ecircumflex" unicode="&#xca;" 
d="M302 1422h790l-34 -158h-632l-101 -474h474l-33 -158h-474l-101 -474h632l-33 -158h-790zM711 1896l237 -237l-79 -79l-158 158l-158 -158l-79 79z" />
    <glyph glyph-name="Edieresis" unicode="&#xcb;" 
d="M302 1422h790l-34 -158h-632l-101 -474h474l-33 -158h-474l-101 -474h632l-33 -158h-790zM474 1659q0 33 23 56t56 23t56 -23t23 -56t-23 -56t-56 -23t-56 23t-23 56zM790 1659q0 33 23 56t56 23t56 -23t23 -56t-23 -56t-56 -23t-56 23t-23 56z" />
    <glyph glyph-name="Igrave" unicode="&#xcc;" 
d="M33 158h316l235 1106h-316l34 158h790l-34 -158h-316l-235 -1106h316l-33 -158h-790zM460 1738l33 158l424 -237l-34 -158z" />
    <glyph glyph-name="Iacute" unicode="&#xcd;" 
d="M33 158h316l235 1106h-316l34 158h790l-34 -158h-316l-235 -1106h316l-33 -158h-790zM553 1580l-79 79l395 237l79 -79z" />
    <glyph glyph-name="Icircumflex" unicode="&#xce;" 
d="M33 158h316l235 1106h-316l34 158h790l-34 -158h-316l-235 -1106h316l-33 -158h-790zM711 1896l237 -237l-79 -79l-158 158l-158 -158l-79 79z" />
    <glyph glyph-name="Idieresis" unicode="&#xcf;" 
d="M33 158h316l235 1106h-316l34 158h790l-34 -158h-316l-235 -1106h316l-33 -158h-790zM474 1659q0 33 23 56t56 23t56 -23t23 -56t-23 -56t-56 -23t-56 23t-23 56zM790 1659q0 33 23 56t56 23t56 -23t23 -56t-23 -56t-56 -23t-56 23t-23 56z" />
    <glyph glyph-name="Eth" unicode="&#xd0;" 
d="M9 790h158l135 632h395q82 0 147.5 -31t107.5 -84.5t57.5 -125.5t-1.5 -154l-135 -632q-17 -82 -63.5 -154t-111 -125.5t-143 -84.5t-160.5 -31h-395l134 632h-157zM428 158q49 0 96 18.5t86.5 51t67 75.5t37.5 92l135 632q10 49 0.5 92t-35 75.5t-64.5 51t-88 18.5h-237
l-101 -474h158l-33 -158h-158l-101 -474h237z" />
    <glyph glyph-name="Ntilde" unicode="&#xd1;" 
d="M0 0l302 1422h158l250 -1052l224 1052h158l-302 -1422h-158l-251 1052l-223 -1052h-158zM1106 1817q-119 -237 -237 -237q-59 0 -94.5 11.5t-57.5 29.5t-35.5 38t-29 38t-38 29.5t-61.5 11.5q-30 0 -58 -13.5t-50.5 -36t-36 -50.5t-13.5 -58l-79 79q118 237 237 237
q59 0 94.5 -11.5t57.5 -29.5t35.5 -38t29 -38t37.5 -29.5t62 -11.5q30 0 58 13.5t50.5 36t36 50.5t13.5 58z" />
    <glyph glyph-name="Ograve" unicode="&#xd2;" 
d="M218 1027q17 82 63 154t111.5 125.5t144 84.5t160.5 31t147.5 -31t107.5 -84.5t57.5 -125.5t-1.5 -154l-135 -632q-17 -82 -63 -154t-111 -125.5t-143.5 -84.5t-160.5 -31q-83 0 -148 31t-107 84.5t-58 125.5t1 154zM663 1264q-49 0 -96 -19t-86 -51t-67 -75t-38 -92
l-135 -632q-10 -49 -0.5 -92t35 -75.5t64.5 -51t88 -18.5t96 18.5t86 51t67 75.5t38 92l135 632q10 49 0.5 92t-35 75.5t-64.5 51t-88 18.5zM460 1738l33 158l424 -237l-34 -158z" />
    <glyph glyph-name="Oacute" unicode="&#xd3;" 
d="M218 1027q17 82 63 154t111.5 125.5t144 84.5t160.5 31t147.5 -31t107.5 -84.5t57.5 -125.5t-1.5 -154l-135 -632q-17 -82 -63 -154t-111 -125.5t-143.5 -84.5t-160.5 -31q-83 0 -148 31t-107 84.5t-58 125.5t1 154zM663 1264q-49 0 -96 -19t-86 -51t-67 -75t-38 -92
l-135 -632q-10 -49 -0.5 -92t35 -75.5t64.5 -51t88 -18.5t96 18.5t86 51t67 75.5t38 92l135 632q10 49 0.5 92t-35 75.5t-64.5 51t-88 18.5zM553 1580l-79 79l395 237l79 -79z" />
    <glyph glyph-name="Ocircumflex" unicode="&#xd4;" 
d="M218 1027q17 82 63 154t111.5 125.5t144 84.5t160.5 31t147.5 -31t107.5 -84.5t57.5 -125.5t-1.5 -154l-135 -632q-17 -82 -63 -154t-111 -125.5t-143.5 -84.5t-160.5 -31q-83 0 -148 31t-107 84.5t-58 125.5t1 154zM663 1264q-49 0 -96 -19t-86 -51t-67 -75t-38 -92
l-135 -632q-10 -49 -0.5 -92t35 -75.5t64.5 -51t88 -18.5t96 18.5t86 51t67 75.5t38 92l135 632q10 49 0.5 92t-35 75.5t-64.5 51t-88 18.5zM711 1896l237 -237l-79 -79l-158 158l-158 -158l-79 79z" />
    <glyph glyph-name="Otilde" unicode="&#xd5;" 
d="M218 1027q17 82 63 154t111.5 125.5t144 84.5t160.5 31t147.5 -31t107.5 -84.5t57.5 -125.5t-1.5 -154l-135 -632q-17 -82 -63 -154t-111 -125.5t-143.5 -84.5t-160.5 -31q-83 0 -148 31t-107 84.5t-58 125.5t1 154zM663 1264q-49 0 -96 -19t-86 -51t-67 -75t-38 -92
l-135 -632q-10 -49 -0.5 -92t35 -75.5t64.5 -51t88 -18.5t96 18.5t86 51t67 75.5t38 92l135 632q10 49 0.5 92t-35 75.5t-64.5 51t-88 18.5zM1106 1817q-119 -237 -237 -237q-59 0 -94.5 11.5t-57.5 29.5t-35.5 38t-29 38t-38 29.5t-61.5 11.5q-30 0 -58 -13.5t-50.5 -36
t-36 -50.5t-13.5 -58l-79 79q118 237 237 237q59 0 94.5 -11.5t57.5 -29.5t35.5 -38t29 -38t37.5 -29.5t62 -11.5q30 0 58 13.5t50.5 36t36 50.5t13.5 58z" />
    <glyph glyph-name="Odieresis" unicode="&#xd6;" 
d="M218 1027q17 82 63 154t111.5 125.5t144 84.5t160.5 31t147.5 -31t107.5 -84.5t57.5 -125.5t-1.5 -154l-135 -632q-17 -82 -63 -154t-111 -125.5t-143.5 -84.5t-160.5 -31q-83 0 -148 31t-107 84.5t-58 125.5t1 154zM663 1264q-49 0 -96 -19t-86 -51t-67 -75t-38 -92
l-135 -632q-10 -49 -0.5 -92t35 -75.5t64.5 -51t88 -18.5t96 18.5t86 51t67 75.5t38 92l135 632q10 49 0.5 92t-35 75.5t-64.5 51t-88 18.5zM474 1659q0 33 23 56t56 23t56 -23t23 -56t-23 -56t-56 -23t-56 23t-23 56zM790 1659q0 33 23 56t56 23t56 -23t23 -56t-23 -56
t-56 -23t-56 23t-23 56z" />
    <glyph glyph-name="multiply" unicode="&#xd7;" 
d="M977 828l-310 -256l202 -256l-146 -120l-201 256l-311 -256l-94 120l310 256l-202 256l146 120l202 -256l310 256z" />
    <glyph glyph-name="Oslash" unicode="&#xd8;" 
d="M165 0h-166q1 4 3.5 10t13 23t31.5 49.5t58 89.5q-23 48 -29 104t7 119l135 632q17 82 63.5 154t111.5 125.5t143.5 84.5t160.5 31q57 0 104.5 -15t87.5 -42l37 57h167q-1 -4 -4.5 -10t-13.5 -23t-31 -49.5t-58 -89.5q22 -48 28.5 -104.5t-6.5 -118.5l-135 -632
q-17 -82 -63.5 -154t-111 -125.5t-143 -84.5t-160.5 -31q-57 0 -105.5 15t-87.5 42zM715 395q35 164 69 325.5t69 326.5l-555 -844q24 -22 57.5 -33.5t72.5 -11.5q49 0 96 18.5t86.5 51t67 75.5t37.5 92zM663 1264q-49 0 -96 -18.5t-86.5 -51t-67 -75.5t-37.5 -92
q-34 -160 -57.5 -270t-39 -182t-23.5 -111.5t-12.5 -59t-5 -24t-0.5 -6.5l555 845q-25 21 -58 33t-72 12z" />
    <glyph glyph-name="Ugrave" unicode="&#xd9;" 
d="M316 1422h158l-219 -1027q-10 -49 -0.5 -92t35 -75.5t64.5 -51t88 -18.5t96 18.5t86 51t67 75.5t38 92l219 1027h158l-219 -1027q-17 -82 -63 -154t-111 -125.5t-143.5 -84.5t-160.5 -31q-83 0 -148 31t-107 84.5t-58 125.5t1 154l84 395zM460 1738l33 158l424 -237
l-34 -158z" />
    <glyph glyph-name="Uacute" unicode="&#xda;" 
d="M316 1422h158l-219 -1027q-10 -49 -0.5 -92t35 -75.5t64.5 -51t88 -18.5t96 18.5t86 51t67 75.5t38 92l219 1027h158l-219 -1027q-17 -82 -63 -154t-111 -125.5t-143.5 -84.5t-160.5 -31q-83 0 -148 31t-107 84.5t-58 125.5t1 154l84 395zM553 1580l-79 79l395 237
l79 -79z" />
    <glyph glyph-name="Ucircumflex" unicode="&#xdb;" 
d="M316 1422h158l-219 -1027q-10 -49 -0.5 -92t35 -75.5t64.5 -51t88 -18.5t96 18.5t86 51t67 75.5t38 92l219 1027h158l-219 -1027q-17 -82 -63 -154t-111 -125.5t-143.5 -84.5t-160.5 -31q-83 0 -148 31t-107 84.5t-58 125.5t1 154l84 395zM711 1896l237 -237l-79 -79
l-158 158l-158 -158l-79 79z" />
    <glyph glyph-name="Udieresis" unicode="&#xdc;" 
d="M316 1422h158l-219 -1027q-10 -49 -0.5 -92t35 -75.5t64.5 -51t88 -18.5t96 18.5t86 51t67 75.5t38 92l219 1027h158l-219 -1027q-17 -82 -63 -154t-111 -125.5t-143.5 -84.5t-160.5 -31q-83 0 -148 31t-107 84.5t-58 125.5t1 154l84 395zM474 1659q0 33 23 56t56 23
t56 -23t23 -56t-23 -56t-56 -23t-56 23t-23 56zM790 1659q0 33 23 56t56 23t56 -23t23 -56t-23 -56t-56 -23t-56 23t-23 56z" />
    <glyph glyph-name="Yacute" unicode="&#xdd;" 
d="M416 472l-114 950h158l86 -711l388 711h158l-518 -948l-100 -474h-158zM553 1580l-79 79l395 237l79 -79z" />
    <glyph glyph-name="Thorn" unicode="&#xde;" 
d="M709 1106q59 0 110 -27t86 -71.5t50 -101.5t2 -116l-33 -158q-13 -59 -52 -116t-93 -101.5t-116.5 -71.5t-121.5 -27h-316l-67 -316h-158l302 1422h158l-67 -316h316zM799 790q7 30 -0.5 58t-25.5 50.5t-43 36t-55 13.5h-316l-101 -474h316q30 0 61 13.5t58.5 36
t46.5 50.5t26 58z" />
    <glyph glyph-name="germandbls" unicode="&#xdf;" 
d="M218 1027q21 102 71.5 176.5t117 123t142 72t148.5 23.5q82 0 147.5 -31t107.5 -84.5t57.5 -125.5t-1.5 -154q-21 -98 -82 -180t-144 -136q60 -54 86 -136.5t5 -179.5q-17 -82 -63.5 -154t-111 -125.5t-143 -84.5t-160.5 -31h-79l33 158h79q49 0 96 18.5t86.5 51t67 75.5
t37.5 92q11 49 1.5 92t-35 75.5t-64.5 51t-88 18.5h-79l33 158h79q49 0 96 18.5t86.5 51t67 75.5t38.5 92q10 49 0.5 92t-35 75.5t-64.5 51t-88 18.5q-43 0 -88.5 -15t-85.5 -44.5t-70.5 -74t-42.5 -103.5l-218 -1027h-158z" />
    <glyph glyph-name="agrave" unicode="&#xe0;" 
d="M316 0q45 0 94 22t93.5 56.5t79 76.5t49.5 82q-2 -40 3.5 -82t23 -76.5t48.5 -56.5t82 -22l32 158q-38 1 -52 22.5t-6 56.5h-1l184 869h-77l-98 -79q-51 42 -106 60.5t-114 18.5q-82 0 -160.5 -31t-143.5 -84.5t-110.5 -125.5t-61.5 -154l-68 -316q-17 -83 0 -155
t59.5 -125.5t107 -84t142.5 -30.5zM316 158q-48 0 -81.5 20t-53 53t-24 76t4.5 88l68 316q10 49 37.5 92t66.5 75.5t86.5 51t96.5 18.5t86.5 -18.5t61.5 -50.5t34 -75t5 -93q-6 -57 -25 -120t-47.5 -124.5t-65 -117.5t-77.5 -98.5t-85 -67.5t-88 -25zM460 1422l33 158
l424 -237l-34 -158z" />
    <glyph glyph-name="aacute" unicode="&#xe1;" 
d="M316 0q45 0 94 22t93.5 56.5t79 76.5t49.5 82q-2 -40 3.5 -82t23 -76.5t48.5 -56.5t82 -22l32 158q-38 1 -52 22.5t-6 56.5h-1l184 869h-77l-98 -79q-51 42 -106 60.5t-114 18.5q-82 0 -160.5 -31t-143.5 -84.5t-110.5 -125.5t-61.5 -154l-68 -316q-17 -83 0 -155
t59.5 -125.5t107 -84t142.5 -30.5zM316 158q-48 0 -81.5 20t-53 53t-24 76t4.5 88l68 316q10 49 37.5 92t66.5 75.5t86.5 51t96.5 18.5t86.5 -18.5t61.5 -50.5t34 -75t5 -93q-6 -57 -25 -120t-47.5 -124.5t-65 -117.5t-77.5 -98.5t-85 -67.5t-88 -25zM553 1264l-79 79
l395 237l79 -79z" />
    <glyph glyph-name="acircumflex" unicode="&#xe2;" 
d="M316 0q45 0 94 22t93.5 56.5t79 76.5t49.5 82q-2 -40 3.5 -82t23 -76.5t48.5 -56.5t82 -22l32 158q-38 1 -52 22.5t-6 56.5h-1l184 869h-77l-98 -79q-51 42 -106 60.5t-114 18.5q-82 0 -160.5 -31t-143.5 -84.5t-110.5 -125.5t-61.5 -154l-68 -316q-17 -83 0 -155
t59.5 -125.5t107 -84t142.5 -30.5zM316 158q-48 0 -81.5 20t-53 53t-24 76t4.5 88l68 316q10 49 37.5 92t66.5 75.5t86.5 51t96.5 18.5t86.5 -18.5t61.5 -50.5t34 -75t5 -93q-6 -57 -25 -120t-47.5 -124.5t-65 -117.5t-77.5 -98.5t-85 -67.5t-88 -25zM711 1580l237 -237
l-79 -79l-158 158l-158 -158l-79 79z" />
    <glyph glyph-name="atilde" unicode="&#xe3;" 
d="M316 0q45 0 94 22t93.5 56.5t79 76.5t49.5 82q-2 -40 3.5 -82t23 -76.5t48.5 -56.5t82 -22l32 158q-38 1 -52 22.5t-6 56.5h-1l184 869h-77l-98 -79q-51 42 -106 60.5t-114 18.5q-82 0 -160.5 -31t-143.5 -84.5t-110.5 -125.5t-61.5 -154l-68 -316q-17 -83 0 -155
t59.5 -125.5t107 -84t142.5 -30.5zM316 158q-48 0 -81.5 20t-53 53t-24 76t4.5 88l68 316q10 49 37.5 92t66.5 75.5t86.5 51t96.5 18.5t86.5 -18.5t61.5 -50.5t34 -75t5 -93q-6 -57 -25 -120t-47.5 -124.5t-65 -117.5t-77.5 -98.5t-85 -67.5t-88 -25zM1106 1501
q-119 -237 -237 -237q-59 0 -94.5 11.5t-57.5 29.5t-35.5 38t-29 38t-38 29.5t-61.5 11.5q-30 0 -58 -13.5t-50.5 -36t-36 -50.5t-13.5 -58l-79 79q118 237 237 237q59 0 94.5 -11.5t57.5 -29.5t35.5 -38t29 -38t37.5 -29.5t62 -11.5q30 0 58 13.5t50.5 36t36 50.5t13.5 58z
" />
    <glyph glyph-name="adieresis" unicode="&#xe4;" 
d="M316 0q45 0 94 22t93.5 56.5t79 76.5t49.5 82q-2 -40 3.5 -82t23 -76.5t48.5 -56.5t82 -22l32 158q-38 1 -52 22.5t-6 56.5h-1l184 869h-77l-98 -79q-51 42 -106 60.5t-114 18.5q-82 0 -160.5 -31t-143.5 -84.5t-110.5 -125.5t-61.5 -154l-68 -316q-17 -83 0 -155
t59.5 -125.5t107 -84t142.5 -30.5zM316 158q-48 0 -81.5 20t-53 53t-24 76t4.5 88l68 316q10 49 37.5 92t66.5 75.5t86.5 51t96.5 18.5t86.5 -18.5t61.5 -50.5t34 -75t5 -93q-6 -57 -25 -120t-47.5 -124.5t-65 -117.5t-77.5 -98.5t-85 -67.5t-88 -25zM474 1343q0 33 23 56
t56 23t56 -23t23 -56t-23 -56t-56 -23t-56 23t-23 56zM790 1343q0 33 23 56t56 23t56 -23t23 -56t-23 -56t-56 -23t-56 23t-23 56z" />
    <glyph glyph-name="aring" unicode="&#xe5;" 
d="M316 0q45 0 94 22t93.5 56.5t79 76.5t49.5 82q-2 -40 3.5 -82t23 -76.5t48.5 -56.5t82 -22l32 158q-38 1 -52 22.5t-6 56.5h-1l184 869h-77l-98 -79q-51 42 -106 60.5t-114 18.5q-82 0 -160.5 -31t-143.5 -84.5t-110.5 -125.5t-61.5 -154l-68 -316q-17 -83 0 -155
t59.5 -125.5t107 -84t142.5 -30.5zM316 158q-48 0 -81.5 20t-53 53t-24 76t4.5 88l68 316q10 49 37.5 92t66.5 75.5t86.5 51t96.5 18.5t86.5 -18.5t61.5 -50.5t34 -75t5 -93q-6 -57 -25 -120t-47.5 -124.5t-65 -117.5t-77.5 -98.5t-85 -67.5t-88 -25zM474 1501q0 49 18.5 92
t51 75.5t75.5 51t92 18.5t92 -18.5t75.5 -51t51 -75.5t18.5 -92t-18.5 -92t-51 -75.5t-75.5 -51t-92 -18.5t-92 18.5t-75.5 51t-51 75.5t-18.5 92zM632 1501q0 -33 23 -56t56 -23t56 23t23 56t-23 56t-56 23t-56 -23t-23 -56z" />
    <glyph glyph-name="ae" unicode="&#xe6;" 
d="M237 0q-59 0 -98 27t-59 71.5t-23 101.5t10 116q12 59 39 116t66 101.5t89.5 71.5t109.5 27h79q25 118 25 182.5t-16 94t-43 34.5t-57 5l34 158q16 0 39.5 -1t50 -5.5t54.5 -15t51 -29.5q28 23 59.5 37t61.5 14h79q59 0 97.5 -27t58.5 -71.5t23 -101.5t-9.5 -116
t-39.5 -116t-66 -101.5t-89.5 -71.5t-109.5 -27h-79q-17 -79 -25 -133t-10 -89t1 -54.5t10.5 -28t16.5 -10t19 -1.5q18 0 35.5 13.5t32.5 36t26.5 50.5t18.5 58h158q-19 -89 -47 -149.5t-65.5 -97.5t-85 -53t-106.5 -16h-316zM337 474q-17 0 -34 -13.5t-32.5 -36
t-27.5 -50.5t-18 -58q-7 -30 -7 -58t6 -50.5t17.5 -36t28.5 -13.5h79l67 316h-79zM687 632q17 0 34.5 13.5t32.5 36t27 50.5t18 58q7 30 7 58t-6 50.5t-17.5 36t-28.5 13.5h-79l-67 -316h79z" />
    <glyph glyph-name="ccedilla" unicode="&#xe7;" 
d="M241 395q-10 -49 2 -92t39.5 -75.5t69 -51t90.5 -18.5q39 0 76.5 11.5t71 32.5t61.5 50t48 64h158q-29 -68 -76.5 -125.5t-107.5 -100t-129 -66.5t-141 -24q-82 0 -148.5 31t-110.5 84.5t-61 125.5t0 154l68 316q17 82 65 154t114 125.5t146 84.5t162 31q72 0 130.5 -24
t100.5 -66.5t65.5 -100.5t22.5 -125h-158q-4 34 -20 63t-40.5 50t-57 33t-71.5 12q-49 0 -98.5 -18.5t-91 -51t-71.5 -75.5t-40 -92zM475 0q0 -81.2812 -29.5 -146.58t-89 -105.938q-59.5 -40.6406 -148.5 -52.0566t-207 15.9824v144.296q89 -27.3975 149.5 -28.3105
q60.5 -0.914062 97.5 19.1777q37 20.0928 53 59.8193q16 39.7275 16 93.6104h158z" />
    <glyph glyph-name="egrave" unicode="&#xe8;" 
d="M83 395q-17 -82 3 -154t67 -125.5t116 -84.5t152 -31q72 0 142 24t131.5 66t109.5 100t76 126h-164q-20 -35 -49 -64t-63.5 -50t-73 -32.5t-76.5 -11.5q-39 0 -76 11.5t-66.5 32.5t-49 50t-24.5 64q90 29 166.5 60t148.5 66.5t143.5 77.5t152.5 92q52 47 73 101.5
t17.5 109.5t-29 106t-67 90.5t-96.5 63t-117 23.5q-82 0 -161 -31t-144 -84.5t-111 -125.5t-63 -154zM309 711q10 49 38 92t67 75t86 51t96 19q67 0 110.5 -26t61.5 -63t11.5 -78t-37.5 -70q-68 -36 -128.5 -69t-118.5 -62.5t-116 -55.5t-121 -50zM460 1422l33 158l424 -237
l-34 -158z" />
    <glyph glyph-name="eacute" unicode="&#xe9;" 
d="M83 395q-17 -82 3 -154t67 -125.5t116 -84.5t152 -31q72 0 142 24t131.5 66t109.5 100t76 126h-164q-20 -35 -49 -64t-63.5 -50t-73 -32.5t-76.5 -11.5q-39 0 -76 11.5t-66.5 32.5t-49 50t-24.5 64q90 29 166.5 60t148.5 66.5t143.5 77.5t152.5 92q52 47 73 101.5
t17.5 109.5t-29 106t-67 90.5t-96.5 63t-117 23.5q-82 0 -161 -31t-144 -84.5t-111 -125.5t-63 -154zM309 711q10 49 38 92t67 75t86 51t96 19q67 0 110.5 -26t61.5 -63t11.5 -78t-37.5 -70q-68 -36 -128.5 -69t-118.5 -62.5t-116 -55.5t-121 -50zM553 1264l-79 79l395 237
l79 -79z" />
    <glyph glyph-name="ecircumflex" unicode="&#xea;" 
d="M83 395q-17 -82 3 -154t67 -125.5t116 -84.5t152 -31q72 0 142 24t131.5 66t109.5 100t76 126h-164q-20 -35 -49 -64t-63.5 -50t-73 -32.5t-76.5 -11.5q-39 0 -76 11.5t-66.5 32.5t-49 50t-24.5 64q90 29 166.5 60t148.5 66.5t143.5 77.5t152.5 92q52 47 73 101.5
t17.5 109.5t-29 106t-67 90.5t-96.5 63t-117 23.5q-82 0 -161 -31t-144 -84.5t-111 -125.5t-63 -154zM309 711q10 49 38 92t67 75t86 51t96 19q67 0 110.5 -26t61.5 -63t11.5 -78t-37.5 -70q-68 -36 -128.5 -69t-118.5 -62.5t-116 -55.5t-121 -50zM711 1580l237 -237
l-79 -79l-158 158l-158 -158l-79 79z" />
    <glyph glyph-name="edieresis" unicode="&#xeb;" 
d="M83 395q-17 -82 3 -154t67 -125.5t116 -84.5t152 -31q72 0 142 24t131.5 66t109.5 100t76 126h-164q-20 -35 -49 -64t-63.5 -50t-73 -32.5t-76.5 -11.5q-39 0 -76 11.5t-66.5 32.5t-49 50t-24.5 64q90 29 166.5 60t148.5 66.5t143.5 77.5t152.5 92q52 47 73 101.5
t17.5 109.5t-29 106t-67 90.5t-96.5 63t-117 23.5q-82 0 -161 -31t-144 -84.5t-111 -125.5t-63 -154zM309 711q10 49 38 92t67 75t86 51t96 19q67 0 110.5 -26t61.5 -63t11.5 -78t-37.5 -70q-68 -36 -128.5 -69t-118.5 -62.5t-116 -55.5t-121 -50zM474 1343q0 33 23 56
t56 23t56 -23t23 -56t-23 -56t-56 -23t-56 23t-23 56zM790 1343q0 33 23 56t56 23t56 -23t23 -56t-23 -56t-56 -23t-56 23t-23 56z" />
    <glyph glyph-name="igrave" unicode="&#xec;" 
d="M517 948h-158l34 158h316l-235 -1106h-158zM477 1501l95 79l187 -237l-96 -79z" />
    <glyph glyph-name="iacute" unicode="&#xed;" 
d="M517 948h-158l34 158h316l-235 -1106h-158zM505 1264l-62 79l287 237l63 -79z" />
    <glyph glyph-name="icircumflex" unicode="&#xee;" 
d="M517 948h-158l34 158h316l-235 -1106h-158zM727 1580l187 -237l-96 -79l-124 158l-192 -158l-62 79z" />
    <glyph glyph-name="idieresis" unicode="&#xef;" 
d="M517 948h-158l34 158h316l-235 -1106h-158zM460 1422h158l-34 -158h-158zM776 1422h158l-34 -158h-158z" />
    <glyph glyph-name="eth" unicode="&#xf0;" 
d="M855 1422l-34 -158l-62 -51q57 -75 102 -186l96 -237l-100 -474q-13 -59 -52 -116t-93 -101.5t-116.5 -71.5t-121.5 -27h-158q-59 0 -110.5 27t-86.5 71.5t-50 101.5t-2 116l33 158q13 59 52 116t93 101.5t116.5 71.5t121.5 27h316l-108 237q-23 50 -48 90l-205 -169
l34 158l109 90q-70 68 -155 68l34 158l152 -79q42 -21 80 -55zM428 158q237 0 287 237l51 237h-237q-237 0 -288 -237q-50 -237 187 -237z" />
    <glyph glyph-name="ntilde" unicode="&#xf1;" 
d="M596 948q-33 0 -66 -14t-64 -38t-59.5 -55t-51.5 -65t-39.5 -69t-24.5 -66l-133 -641h-158l235 1106h81l40 -160q19 33 48.5 62t65.5 50.5t77 34.5t83 13q82 0 147 -31t107 -84.5t58 -125.5t-1 -154l-151 -711h-158l151 711q10 49 0.5 92t-35 75.5t-64.5 51t-88 18.5z
M946 1501q-119 -237 -237 -237q-59 0 -94.5 11.5t-57.5 29.5t-35.5 38t-29 38t-38 29.5t-61.5 11.5q-30 0 -58 -13.5t-50.5 -36t-36 -50.5t-13.5 -58l-79 79q118 237 237 237q59 0 94.5 -11.5t57.5 -29.5t35.5 -38t29 -38t37.5 -29.5t62 -11.5q30 0 58 13.5t50.5 36t36 50.5
t13.5 58z" />
    <glyph glyph-name="ograve" unicode="&#xf2;" 
d="M151 711q17 82 63.5 154t111 125.5t143.5 84.5t161 31t147 -31t107.5 -84.5t58 -125.5t-1.5 -154l-68 -316q-17 -82 -63.5 -154t-111 -125.5t-143 -84.5t-160.5 -31t-147.5 31t-108 84.5t-58 125.5t1.5 154zM241 395q-10 -49 -0.5 -92t35 -75.5t64.5 -51t88 -18.5
t96 18.5t86.5 51t67 75.5t37.5 92l68 316q10 49 0.5 92t-35 75.5t-64.5 51t-88 18.5t-96 -18.5t-86.5 -51t-67 -75.5t-37.5 -92zM460 1422l33 158l424 -237l-34 -158z" />
    <glyph glyph-name="oacute" unicode="&#xf3;" 
d="M151 711q17 82 63.5 154t111 125.5t143.5 84.5t161 31t147 -31t107.5 -84.5t58 -125.5t-1.5 -154l-68 -316q-17 -82 -63.5 -154t-111 -125.5t-143 -84.5t-160.5 -31t-147.5 31t-108 84.5t-58 125.5t1.5 154zM241 395q-10 -49 -0.5 -92t35 -75.5t64.5 -51t88 -18.5
t96 18.5t86.5 51t67 75.5t37.5 92l68 316q10 49 0.5 92t-35 75.5t-64.5 51t-88 18.5t-96 -18.5t-86.5 -51t-67 -75.5t-37.5 -92zM553 1264l-79 79l395 237l79 -79z" />
    <glyph glyph-name="ocircumflex" unicode="&#xf4;" 
d="M151 711q17 82 63.5 154t111 125.5t143.5 84.5t161 31t147 -31t107.5 -84.5t58 -125.5t-1.5 -154l-68 -316q-17 -82 -63.5 -154t-111 -125.5t-143 -84.5t-160.5 -31t-147.5 31t-108 84.5t-58 125.5t1.5 154zM241 395q-10 -49 -0.5 -92t35 -75.5t64.5 -51t88 -18.5
t96 18.5t86.5 51t67 75.5t37.5 92l68 316q10 49 0.5 92t-35 75.5t-64.5 51t-88 18.5t-96 -18.5t-86.5 -51t-67 -75.5t-37.5 -92zM711 1580l237 -237l-79 -79l-158 158l-158 -158l-79 79z" />
    <glyph glyph-name="otilde" unicode="&#xf5;" 
d="M151 711q17 82 63.5 154t111 125.5t143.5 84.5t161 31t147 -31t107.5 -84.5t58 -125.5t-1.5 -154l-68 -316q-17 -82 -63.5 -154t-111 -125.5t-143 -84.5t-160.5 -31t-147.5 31t-108 84.5t-58 125.5t1.5 154zM241 395q-10 -49 -0.5 -92t35 -75.5t64.5 -51t88 -18.5
t96 18.5t86.5 51t67 75.5t37.5 92l68 316q10 49 0.5 92t-35 75.5t-64.5 51t-88 18.5t-96 -18.5t-86.5 -51t-67 -75.5t-37.5 -92zM1106 1501q-119 -237 -237 -237q-59 0 -94.5 11.5t-57.5 29.5t-35.5 38t-29 38t-38 29.5t-61.5 11.5q-30 0 -58 -13.5t-50.5 -36t-36 -50.5
t-13.5 -58l-79 79q118 237 237 237q59 0 94.5 -11.5t57.5 -29.5t35.5 -38t29 -38t37.5 -29.5t62 -11.5q30 0 58 13.5t50.5 36t36 50.5t13.5 58z" />
    <glyph glyph-name="odieresis" unicode="&#xf6;" 
d="M151 711q17 82 63.5 154t111 125.5t143.5 84.5t161 31t147 -31t107.5 -84.5t58 -125.5t-1.5 -154l-68 -316q-17 -82 -63.5 -154t-111 -125.5t-143 -84.5t-160.5 -31t-147.5 31t-108 84.5t-58 125.5t1.5 154zM241 395q-10 -49 -0.5 -92t35 -75.5t64.5 -51t88 -18.5
t96 18.5t86.5 51t67 75.5t37.5 92l68 316q10 49 0.5 92t-35 75.5t-64.5 51t-88 18.5t-96 -18.5t-86.5 -51t-67 -75.5t-37.5 -92zM474 1343q0 33 23 56t56 23t56 -23t23 -56t-23 -56t-56 -23t-56 23t-23 56zM790 1343q0 33 23 56t56 23t56 -23t23 -56t-23 -56t-56 -23t-56 23
t-23 56z" />
    <glyph glyph-name="divide" unicode="&#xf7;" 
d="M496 1106q7 33 25.5 61.5t44.5 50t57 34t64 12.5t59 -12.5t43 -34t23.5 -50t-0.5 -61.5t-26 -61.5t-45 -50t-57 -34t-64 -12.5t-59 12.5t-43 34t-23 50t1 61.5zM328 316q7 33 25.5 61.5t44.5 50t57 34t64 12.5t59 -12.5t43 -34t23.5 -50t-0.5 -61.5t-25.5 -61.5t-45 -50
t-57.5 -34t-64 -12.5t-59 12.5t-42.5 34t-23 50t0.5 61.5zM112 790h948l-33 -158h-948z" />
    <glyph glyph-name="oslash" unicode="&#xf8;" 
d="M177 0h-185q2 5 5 12t14.5 23.5t34.5 47t63 81.5q-24 49 -31.5 107.5t5.5 123.5l68 316q17 82 63.5 154t111 125.5t143.5 84.5t161 31q52 0 96.5 -13t82.5 -36l39 49h185q-1 -5 -5 -12.5t-16 -24t-34.5 -46.5t-62.5 -81q24 -49 31.5 -107.5t-5.5 -123.5l-68 -316
q-17 -82 -63.5 -154t-111 -125.5t-143 -84.5t-160.5 -31q-52 0 -97.5 13t-82.5 36zM783 711q3 17 4 34t0 33l-465 -592q45 -28 106 -28q49 0 96 18.5t86.5 51t67 75.5t37.5 92zM241 395q-8 -38 -4 -68l464 593q-22 13 -48.5 20.5t-56.5 7.5q-49 0 -96 -18.5t-86.5 -51
t-67 -75.5t-37.5 -92z" />
    <glyph glyph-name="ugrave" unicode="&#xf9;" 
d="M766 632q-23 -104 -64 -191t-92 -150t-108 -98t-111 -35q-46 0 -80 20t-54 53t-24.5 76t8.5 88l152 711h-158l-152 -711q-13 -62 -7.5 -118t26.5 -103t57 -83.5t85 -59.5q32 -16 70 -23.5t79 -7.5q45 0 87.5 14t79.5 38.5t65 58.5t43 74q-2 -40 9 -74t28.5 -58.5
t40 -38.5t44.5 -14h76l30 158q-38 1 -51 22.5t-5 56.5l185 869h-158zM460 1422l33 158l424 -237l-34 -158z" />
    <glyph glyph-name="uacute" unicode="&#xfa;" 
d="M766 632q-23 -104 -64 -191t-92 -150t-108 -98t-111 -35q-46 0 -80 20t-54 53t-24.5 76t8.5 88l152 711h-158l-152 -711q-13 -62 -7.5 -118t26.5 -103t57 -83.5t85 -59.5q32 -16 70 -23.5t79 -7.5q45 0 87.5 14t79.5 38.5t65 58.5t43 74q-2 -40 9 -74t28.5 -58.5
t40 -38.5t44.5 -14h76l30 158q-38 1 -51 22.5t-5 56.5l185 869h-158zM553 1264l-79 79l395 237l79 -79z" />
    <glyph glyph-name="ucircumflex" unicode="&#xfb;" 
d="M766 632q-23 -104 -64 -191t-92 -150t-108 -98t-111 -35q-46 0 -80 20t-54 53t-24.5 76t8.5 88l152 711h-158l-152 -711q-13 -62 -7.5 -118t26.5 -103t57 -83.5t85 -59.5q32 -16 70 -23.5t79 -7.5q45 0 87.5 14t79.5 38.5t65 58.5t43 74q-2 -40 9 -74t28.5 -58.5
t40 -38.5t44.5 -14h76l30 158q-38 1 -51 22.5t-5 56.5l185 869h-158zM711 1580l237 -237l-79 -79l-158 158l-158 -158l-79 79z" />
    <glyph glyph-name="udieresis" unicode="&#xfc;" 
d="M766 632q-23 -104 -64 -191t-92 -150t-108 -98t-111 -35q-46 0 -80 20t-54 53t-24.5 76t8.5 88l152 711h-158l-152 -711q-13 -62 -7.5 -118t26.5 -103t57 -83.5t85 -59.5q32 -16 70 -23.5t79 -7.5q45 0 87.5 14t79.5 38.5t65 58.5t43 74q-2 -40 9 -74t28.5 -58.5
t40 -38.5t44.5 -14h76l30 158q-38 1 -51 22.5t-5 56.5l185 869h-158zM474 1343q0 33 23 56t56 23t56 -23t23 -56t-23 -56t-56 -23t-56 23t-23 56zM790 1343q0 33 23 56t56 23t56 -23t23 -56t-23 -56t-56 -23t-56 23t-23 56z" />
    <glyph glyph-name="yacute" unicode="&#xfd;" 
d="M241 395q-10 -49 -0.5 -92t35 -75.5t64.5 -51t88 -18.5q48 1 97 30.5t91 74.5t73.5 101t45.5 111l132 631h158l-252 -1185q-18 -82 -64 -154t-111 -125.5t-143.5 -84.5t-160.5 -31h-237l33 158h237q49 0 96 18.5t86 51t67 75.5t39 92l53 238q-15 -32 -42 -61t-63 -51
t-78.5 -34.5t-89.5 -12.5q-83 0 -148 31t-107 84.5t-58 125.5t1 154l152 711h158zM553 1264l-79 79l395 237l79 -79z" />
    <glyph glyph-name="thorn" unicode="&#xfe;" 
d="M890 474q-25 -119 -86 -207.5t-147.5 -148t-194 -89t-225.5 -29.5h-80l-101 -473h-156l402 1895h158l-101 -474h79q118 0 213 -29.5t156.5 -89t84.5 -148.5t-2 -207zM190 158h159q20 0 52.5 7t71 22.5t79 40t76.5 59.5t64 81.5t40 105.5q13 59 5 105.5t-29.5 81.5
t-51.5 59.5t-62 40t-61.5 22.5t-49.5 7h-158z" />
    <glyph glyph-name="ydieresis" unicode="&#xff;" 
d="M241 395q-10 -49 -0.5 -92t35 -75.5t64.5 -51t88 -18.5q48 1 97 30.5t91 74.5t73.5 101t45.5 111l132 631h158l-252 -1185q-18 -82 -64 -154t-111 -125.5t-143.5 -84.5t-160.5 -31h-237l33 158h237q49 0 96 18.5t86 51t67 75.5t39 92l53 238q-15 -32 -42 -61t-63 -51
t-78.5 -34.5t-89.5 -12.5q-83 0 -148 31t-107 84.5t-58 125.5t1 154l152 711h158zM474 1343q0 33 23 56t56 23t56 -23t23 -56t-23 -56t-56 -23t-56 23t-23 56zM790 1343q0 33 23 56t56 23t56 -23t23 -56t-23 -56t-56 -23t-56 23t-23 56z" />
    <glyph glyph-name="Amacron" unicode="&#x100;" 
d="M158 0l218 474h395l19 -474h158l-93 1422h-158l-697 -1422h158zM725 1185l41 -553h-316zM316 1580l33 158h790l-33 -158h-790z" />
    <glyph glyph-name="amacron" unicode="&#x101;" 
d="M316 0q45 0 94 22t93.5 56.5t79 76.5t49.5 82q-2 -40 3.5 -82t23 -76.5t48.5 -56.5t82 -22l32 158q-38 1 -52 22.5t-6 56.5h-1l184 869h-77l-98 -79q-51 42 -106 60.5t-114 18.5q-82 0 -160.5 -31t-143.5 -84.5t-110.5 -125.5t-61.5 -154l-68 -316q-17 -83 0 -155
t59.5 -125.5t107 -84t142.5 -30.5zM316 158q-48 0 -81.5 20t-53 53t-24 76t4.5 88l68 316q10 49 37.5 92t66.5 75.5t86.5 51t96.5 18.5t86.5 -18.5t61.5 -50.5t34 -75t5 -93q-6 -57 -25 -120t-47.5 -124.5t-65 -117.5t-77.5 -98.5t-85 -67.5t-88 -25zM316 1265l33 158h790
l-33 -158h-790z" />
    <glyph glyph-name="Abreve" unicode="&#x102;" 
d="M158 0l218 474h395l19 -474h158l-93 1422h-158l-697 -1422h158zM725 1185l41 -553h-316zM711 1580q-59 0 -103.5 27t-74 71.5t-44.5 101.5t-15 116h158q0 -30 1 -58t8.5 -50.5t23.5 -36t46 -13.5t46 13.5t23.5 36t8.5 50.5t1 58h158q0 -59 -15 -116t-44.5 -101.5
t-74 -71.5t-103.5 -27z" />
    <glyph glyph-name="abreve" unicode="&#x103;" 
d="M316 0q45 0 94 22t93.5 56.5t79 76.5t49.5 82q-2 -40 3.5 -82t23 -76.5t48.5 -56.5t82 -22l32 158q-38 1 -52 22.5t-6 56.5h-1l184 869h-77l-98 -79q-51 42 -106 60.5t-114 18.5q-82 0 -160.5 -31t-143.5 -84.5t-110.5 -125.5t-61.5 -154l-68 -316q-17 -83 0 -155
t59.5 -125.5t107 -84t142.5 -30.5zM316 158q-48 0 -81.5 20t-53 53t-24 76t4.5 88l68 316q10 49 37.5 92t66.5 75.5t86.5 51t96.5 18.5t86.5 -18.5t61.5 -50.5t34 -75t5 -93q-6 -57 -25 -120t-47.5 -124.5t-65 -117.5t-77.5 -98.5t-85 -67.5t-88 -25zM711 1264
q-59 0 -103.5 27t-74 71.5t-44.5 101.5t-15 116h158q0 -30 1 -58t8.5 -50.5t23.5 -36t46 -13.5t46 13.5t23.5 36t8.5 50.5t1 58h158q0 -59 -15 -116t-44.5 -101.5t-74 -71.5t-103.5 -27z" />
    <glyph glyph-name="Aogonek" unicode="&#x104;" 
d="M158.309 5l218.426 472.322h395.771l19.0371 -472.322h158.309l-93.1816 1416.97h-158.309l-698.361 -1416.97h158.309zM726.416 1185.8l41.0801 -551.042h-316.617zM948 0q0 -56.4434 16 -98.0586q16 -41.6143 53 -62.6611t97.5 -20.0898q60.5 0.956055 149.5 29.6562
v-151.153q-118 -28.6992 -207 -16.7412t-148.5 54.5303q-59.5 42.5713 -89 110.973t-29.5 153.545h158z" />
    <glyph glyph-name="aogonek" unicode="&#x105;" 
d="M316 0q45 0 94 22t93.5 56.5t79 76.5t49.5 82q-2 -40 3.5 -82t23 -76.5t48.5 -56.5t82 -22l32 158q-38 1 -52 22.5t-6 56.5h-1l184 869h-77l-98 -79q-51 42 -106 60.5t-114 18.5q-82 0 -160.5 -31t-143.5 -84.5t-110.5 -125.5t-61.5 -154l-68 -316q-17 -83 0 -155
t59.5 -125.5t107 -84t142.5 -30.5zM316 158q-48 0 -81.5 20t-53 53t-24 76t4.5 88l68 316q10 49 37.5 92t66.5 75.5t86.5 51t96.5 18.5t86.5 -18.5t61.5 -50.5t34 -75t5 -93q-6 -57 -25 -120t-47.5 -124.5t-65 -117.5t-77.5 -98.5t-85 -67.5t-88 -25zM790 0
q0 -53.8828 16 -93.6104q16 -39.7266 53 -59.8193q37 -20.0918 97.5 -19.1777q60.5 0.913086 149.5 28.3105v-144.296q-118 -27.3984 -207 -15.9824t-148.5 52.0566q-59.5 40.6396 -89 105.938t-29.5 146.58h158z" />
    <glyph glyph-name="Cacute" unicode="&#x106;" 
d="M671.829 1264q-51.5225 0 -100.015 -18.5t-87.8926 -51t-67.1816 -75.5q-27.7822 -43 -37.8848 -92l-136.385 -632q-10.1016 -49 -0.504883 -92q9.59766 -43 34.8545 -75.5q25.2559 -32.5 65.666 -51t91.9336 -18.5q42.4297 0 82.335 11.5t75.2646 32.5
q35.3584 21 64.1504 50q28.793 29 48.998 64h159.619q-29.2969 -68 -76.7793 -126q-47.4814 -58 -108.602 -100q-61.1211 -42 -131.838 -66q-70.7188 -24 -146.487 -24q-84.8613 0 -151.538 31t-110.117 84.5q-43.4414 53.5 -58.5957 125.5q-15.1533 72 2.02148 154
l136.384 632q17.1748 82 63.6455 154q46.4727 72 112.644 125.5q66.1719 53.5 145.981 84.5q79.8105 31 164.672 31q75.7695 0 136.89 -24t103.046 -66.5t65.1611 -100.5t23.2354 -125h-159.619q-5.05176 34 -21.7207 63q-16.6699 29 -42.4307 50q-25.7617 21 -61.1201 33
q-35.3594 12 -77.79 12zM553 1580l-79 79l395 237l79 -79z" />
    <glyph glyph-name="cacute" unicode="&#x107;" 
d="M241 395q-10 -49 2 -92t39.5 -75.5t69 -51t90.5 -18.5q39 0 76.5 11.5t71 32.5t61.5 50t48 64h158q-29 -68 -76.5 -125.5t-107.5 -100t-129 -66.5t-141 -24q-82 0 -148.5 31t-110.5 84.5t-61 125.5t0 154l68 316q17 82 65 154t114 125.5t146 84.5t162 31q72 0 130.5 -24
t100.5 -66.5t65.5 -100.5t22.5 -125h-158q-4 34 -20 63t-40.5 50t-57 33t-71.5 12q-49 0 -98.5 -18.5t-91 -51t-71.5 -75.5t-40 -92zM553 1264l-79 79l395 237l79 -79z" />
    <glyph glyph-name="Ccircumflex" unicode="&#x108;" 
d="M671.829 1264q-51.5225 0 -100.015 -18.5t-87.8926 -51t-67.1816 -75.5q-27.7822 -43 -37.8848 -92l-136.385 -632q-10.1016 -49 -0.504883 -92q9.59766 -43 34.8545 -75.5q25.2559 -32.5 65.666 -51t91.9336 -18.5q42.4297 0 82.335 11.5t75.2646 32.5
q35.3584 21 64.1504 50q28.793 29 48.998 64h159.619q-29.2969 -68 -76.7793 -126q-47.4814 -58 -108.602 -100q-61.1211 -42 -131.838 -66q-70.7188 -24 -146.487 -24q-84.8613 0 -151.538 31t-110.117 84.5q-43.4414 53.5 -58.5957 125.5q-15.1533 72 2.02148 154
l136.384 632q17.1748 82 63.6455 154q46.4727 72 112.644 125.5q66.1719 53.5 145.981 84.5q79.8105 31 164.672 31q75.7695 0 136.89 -24t103.046 -66.5t65.1611 -100.5t23.2354 -125h-159.619q-5.05176 34 -21.7207 63q-16.6699 29 -42.4307 50q-25.7617 21 -61.1201 33
q-35.3594 12 -77.79 12zM711 1896l237 -237l-79 -79l-158 158l-158 -158l-79 79z" />
    <glyph glyph-name="ccircumflex" unicode="&#x109;" 
d="M241 395q-10 -49 2 -92t39.5 -75.5t69 -51t90.5 -18.5q39 0 76.5 11.5t71 32.5t61.5 50t48 64h158q-29 -68 -76.5 -125.5t-107.5 -100t-129 -66.5t-141 -24q-82 0 -148.5 31t-110.5 84.5t-61 125.5t0 154l68 316q17 82 65 154t114 125.5t146 84.5t162 31q72 0 130.5 -24
t100.5 -66.5t65.5 -100.5t22.5 -125h-158q-4 34 -20 63t-40.5 50t-57 33t-71.5 12q-49 0 -98.5 -18.5t-91 -51t-71.5 -75.5t-40 -92zM711 1580l237 -237l-79 -79l-158 158l-158 -158l-79 79z" />
    <glyph glyph-name="Cdotaccent" unicode="&#x10a;" 
d="M671.829 1264q-51.5225 0 -100.015 -18.5t-87.8926 -51t-67.1816 -75.5q-27.7822 -43 -37.8848 -92l-136.385 -632q-10.1016 -49 -0.504883 -92q9.59766 -43 34.8545 -75.5q25.2559 -32.5 65.666 -51t91.9336 -18.5q42.4297 0 82.335 11.5t75.2646 32.5
q35.3584 21 64.1504 50q28.793 29 48.998 64h159.619q-29.2969 -68 -76.7793 -126q-47.4814 -58 -108.602 -100q-61.1211 -42 -131.838 -66q-70.7188 -24 -146.487 -24q-84.8613 0 -151.538 31t-110.117 84.5q-43.4414 53.5 -58.5957 125.5q-15.1533 72 2.02148 154
l136.384 632q17.1748 82 63.6455 154q46.4727 72 112.644 125.5q66.1719 53.5 145.981 84.5q79.8105 31 164.672 31q75.7695 0 136.89 -24t103.046 -66.5t65.1611 -100.5t23.2354 -125h-159.619q-5.05176 34 -21.7207 63q-16.6699 29 -42.4307 50q-25.7617 21 -61.1201 33
q-35.3594 12 -77.79 12zM632 1659q0 33 23 56t56 23t56 -23t23 -56t-23 -56t-56 -23t-56 23t-23 56z" />
    <glyph glyph-name="cdotaccent" unicode="&#x10b;" 
d="M241 395q-10 -49 2 -92t39.5 -75.5t69 -51t90.5 -18.5q39 0 76.5 11.5t71 32.5t61.5 50t48 64h158q-29 -68 -76.5 -125.5t-107.5 -100t-129 -66.5t-141 -24q-82 0 -148.5 31t-110.5 84.5t-61 125.5t0 154l68 316q17 82 65 154t114 125.5t146 84.5t162 31q72 0 130.5 -24
t100.5 -66.5t65.5 -100.5t22.5 -125h-158q-4 34 -20 63t-40.5 50t-57 33t-71.5 12q-49 0 -98.5 -18.5t-91 -51t-71.5 -75.5t-40 -92zM632 1343q0 33 23 56t56 23t56 -23t23 -56t-23 -56t-56 -23t-56 23t-23 56z" />
    <glyph glyph-name="Ccaron" unicode="&#x10c;" 
d="M671.829 1264q-51.5225 0 -100.015 -18.5t-87.8926 -51t-67.1816 -75.5q-27.7822 -43 -37.8848 -92l-136.385 -632q-10.1016 -49 -0.504883 -92q9.59766 -43 34.8545 -75.5q25.2559 -32.5 65.666 -51t91.9336 -18.5q42.4297 0 82.335 11.5t75.2646 32.5
q35.3584 21 64.1504 50q28.793 29 48.998 64h159.619q-29.2969 -68 -76.7793 -126q-47.4814 -58 -108.602 -100q-61.1211 -42 -131.838 -66q-70.7188 -24 -146.487 -24q-84.8613 0 -151.538 31t-110.117 84.5q-43.4414 53.5 -58.5957 125.5q-15.1533 72 2.02148 154
l136.384 632q17.1748 82 63.6455 154q46.4727 72 112.644 125.5q66.1719 53.5 145.981 84.5q79.8105 31 164.672 31q75.7695 0 136.89 -24t103.046 -66.5t65.1611 -100.5t23.2354 -125h-159.619q-5.05176 34 -21.7207 63q-16.6699 29 -42.4307 50q-25.7617 21 -61.1201 33
q-35.3594 12 -77.79 12zM474 1817l79 79l158 -158l158 158l79 -79l-237 -237z" />
    <glyph glyph-name="ccaron" unicode="&#x10d;" 
d="M241 395q-10 -49 2 -92t39.5 -75.5t69 -51t90.5 -18.5q39 0 76.5 11.5t71 32.5t61.5 50t48 64h158q-29 -68 -76.5 -125.5t-107.5 -100t-129 -66.5t-141 -24q-82 0 -148.5 31t-110.5 84.5t-61 125.5t0 154l68 316q17 82 65 154t114 125.5t146 84.5t162 31q72 0 130.5 -24
t100.5 -66.5t65.5 -100.5t22.5 -125h-158q-4 34 -20 63t-40.5 50t-57 33t-71.5 12q-49 0 -98.5 -18.5t-91 -51t-71.5 -75.5t-40 -92zM474 1501l79 79l158 -158l158 158l79 -79l-237 -237z" />
    <glyph glyph-name="Dcaron" unicode="&#x10e;" 
d="M302 1422h395q82 0 147.5 -31t107.5 -84.5t57.5 -125.5t-1.5 -154l-135 -632q-17 -82 -63.5 -154t-111 -125.5t-143 -84.5t-160.5 -31h-395zM428 158q49 0 96 18.5t86.5 51t67 75.5t37.5 92l135 632q10 49 0.5 92t-35 75.5t-64.5 51t-88 18.5h-237l-235 -1106h237z
M474 1817l79 79l158 -158l158 158l79 -79l-237 -237z" />
    <glyph glyph-name="dcaron" unicode="&#x10f;" 
d="M869.912 1422l-104.102 -475q-6.00586 32 -27.0264 61t-49.0479 50.5t-61.0596 34.5t-63.0615 13q-82.0801 0 -160.656 -31q-78.5771 -31 -143.141 -84.5q-64.5625 -53.5 -110.107 -125.5q-45.5439 -72 -61.5596 -154l-68.0664 -316q-14.0137 -84 2.00195 -156
t57.0557 -125.5t105.103 -83.5t145.142 -30q45.0439 0 88.0859 14t79.5781 38.5q36.5352 24.5 65.0625 58.5q28.5283 34 43.543 74q-2.00195 -40 10.0098 -74t36.5352 -58.5q24.5244 -24.5 62.0605 -38.5q37.5371 -14 88.5869 -14l31.0303 158q-38.0371 1 -52.0508 22.5
t-6.00586 56.5h-1.00098l251.245 1185h-158.154zM330.386 158q-48.0469 0 -81.5791 20q-33.5332 20 -53.0527 53q-19.5186 33 -24.0234 76q-4.50391 43 4.50488 88l68.0664 316q10.0098 49 37.5361 92q27.5273 43 66.5654 75.5t86.585 51q47.5459 18.5 96.5938 18.5
q47.0459 0 81.5801 -24.5q34.5332 -24.5 55.5537 -64t29.0283 -89t1.00098 -99.5q-16.0156 -119 -53.0518 -213.5t-87.5859 -161.5q-50.5488 -67 -109.606 -102.5t-118.115 -35.5zM474 1659l79 79l158 -158l158 158l79 -79l-237 -237z" />
    <glyph glyph-name="Dcroat" unicode="&#x110;" 
d="M43 948h474l-34 -158h-474zM302 1422h395q82 0 147.5 -31t107.5 -84.5t57.5 -125.5t-1.5 -154l-135 -632q-17 -82 -63.5 -154t-111 -125.5t-143 -84.5t-160.5 -31h-395zM428 158q49 0 96 18.5t86.5 51t67 75.5t37.5 92l135 632q10 49 0.5 92t-35 75.5t-64.5 51t-88 18.5
h-237l-235 -1106h237z" />
    <glyph glyph-name="dcroat" unicode="&#x111;" 
d="M934 1422l-104 -475q-6 32 -27 61t-49 50.5t-61 34.5t-63 13q-82 0 -160.5 -31t-143 -84.5t-110 -125.5t-61.5 -154l-68 -316q-14 -84 2 -156t57 -125.5t105 -83.5t145 -30q45 0 88 14t79.5 38.5t65 58.5t43.5 74q-2 -40 10 -74t36.5 -58.5t62 -38.5t88.5 -14l31 158
q-38 1 -52 22.5t-6 56.5h-1l251 1185h-158zM395 158q-48 0 -81.5 20t-53 53t-24 76t4.5 88l68 316q10 49 37.5 92t66.5 75.5t86.5 51t96.5 18.5q47 0 81.5 -24.5t55.5 -64t29 -89t1 -99.5q-16 -119 -53 -213.5t-87.5 -161.5t-109.5 -102.5t-118 -35.5zM637.196 1264h473.98
l-19.7998 -158h-473.98z" />
    <glyph glyph-name="Emacron" unicode="&#x112;" 
d="M302 1422h790l-34 -158h-632l-101 -474h474l-33 -158h-474l-101 -474h632l-33 -158h-790zM316 1580l33 158h790l-33 -158h-790z" />
    <glyph glyph-name="emacron" unicode="&#x113;" 
d="M83 395q-17 -82 3 -154t67 -125.5t116 -84.5t152 -31q72 0 142 24t131.5 66t109.5 100t76 126h-164q-20 -35 -49 -64t-63.5 -50t-73 -32.5t-76.5 -11.5q-39 0 -76 11.5t-66.5 32.5t-49 50t-24.5 64q90 29 166.5 60t148.5 66.5t143.5 77.5t152.5 92q52 47 73 101.5
t17.5 109.5t-29 106t-67 90.5t-96.5 63t-117 23.5q-82 0 -161 -31t-144 -84.5t-111 -125.5t-63 -154zM309 711q10 49 38 92t67 75t86 51t96 19q67 0 110.5 -26t61.5 -63t11.5 -78t-37.5 -70q-68 -36 -128.5 -69t-118.5 -62.5t-116 -55.5t-121 -50zM316.398 1265l26.3994 158
h631.99l-26.3994 -158h-631.99z" />
    <glyph glyph-name="Ebreve" unicode="&#x114;" 
d="M302 1422h790l-34 -158h-632l-101 -474h474l-33 -158h-474l-101 -474h632l-33 -158h-790zM711 1580q-59 0 -103.5 27t-74 71.5t-44.5 101.5t-15 116h158q0 -30 1 -58t8.5 -50.5t23.5 -36t46 -13.5t46 13.5t23.5 36t8.5 50.5t1 58h158q0 -59 -15 -116t-44.5 -101.5
t-74 -71.5t-103.5 -27z" />
    <glyph glyph-name="ebreve" unicode="&#x115;" 
d="M83 395q-17 -82 3 -154t67 -125.5t116 -84.5t152 -31q72 0 142 24t131.5 66t109.5 100t76 126h-164q-20 -35 -49 -64t-63.5 -50t-73 -32.5t-76.5 -11.5q-39 0 -76 11.5t-66.5 32.5t-49 50t-24.5 64q90 29 166.5 60t148.5 66.5t143.5 77.5t152.5 92q52 47 73 101.5
t17.5 109.5t-29 106t-67 90.5t-96.5 63t-117 23.5q-82 0 -161 -31t-144 -84.5t-111 -125.5t-63 -154zM309 711q10 49 38 92t67 75t86 51t96 19q67 0 110.5 -26t61.5 -63t11.5 -78t-37.5 -70q-68 -36 -128.5 -69t-118.5 -62.5t-116 -55.5t-121 -50zM711 1264q-59 0 -103.5 27
t-74 71.5t-44.5 101.5t-15 116h158q0 -30 1 -58t8.5 -50.5t23.5 -36t46 -13.5t46 13.5t23.5 36t8.5 50.5t1 58h158q0 -59 -15 -116t-44.5 -101.5t-74 -71.5t-103.5 -27z" />
    <glyph glyph-name="Edotaccent" unicode="&#x116;" 
d="M302 1422h790l-34 -158h-632l-101 -474h474l-33 -158h-474l-101 -474h632l-33 -158h-790zM632 1659q0 33 23 56t56 23t56 -23t23 -56t-23 -56t-56 -23t-56 23t-23 56z" />
    <glyph glyph-name="edotaccent" unicode="&#x117;" 
d="M83 395q-17 -82 3 -154t67 -125.5t116 -84.5t152 -31q72 0 142 24t131.5 66t109.5 100t76 126h-164q-20 -35 -49 -64t-63.5 -50t-73 -32.5t-76.5 -11.5q-39 0 -76 11.5t-66.5 32.5t-49 50t-24.5 64q90 29 166.5 60t148.5 66.5t143.5 77.5t152.5 92q52 47 73 101.5
t17.5 109.5t-29 106t-67 90.5t-96.5 63t-117 23.5q-82 0 -161 -31t-144 -84.5t-111 -125.5t-63 -154zM309 711q10 49 38 92t67 75t86 51t96 19q67 0 110.5 -26t61.5 -63t11.5 -78t-37.5 -70q-68 -36 -128.5 -69t-118.5 -62.5t-116 -55.5t-121 -50zM632 1343q0 33 23 56
t56 23t56 -23t23 -56t-23 -56t-56 -23t-56 23t-23 56z" />
    <glyph glyph-name="Eogonek" unicode="&#x118;" 
d="M302 1422h790l-34 -158h-632l-101 -474h474l-33 -158h-474l-101 -474h632l-33 -158h-790zM474 0q0 -53.8828 16 -93.6104q16 -39.7266 53 -59.8193q37 -20.0918 97.5 -19.1777q60.5 0.913086 149.5 28.3105v-144.296q-118 -27.3984 -207 -15.9824t-148.5 52.0566
q-59.5 40.6396 -89 105.938t-29.5 146.58h158z" />
    <glyph glyph-name="eogonek" unicode="&#x119;" 
d="M83 395q-17 -82 3 -154t67 -125.5t116 -84.5t152 -31q72 0 142 24t131.5 66t109.5 100t76 126h-164q-20 -35 -49 -64t-63.5 -50t-73 -32.5t-76.5 -11.5q-39 0 -76 11.5t-66.5 32.5t-49 50t-24.5 64q90 29 166.5 60t148.5 66.5t143.5 77.5t152.5 92q52 47 73 101.5
t17.5 109.5t-29 106t-67 90.5t-96.5 63t-117 23.5q-82 0 -161 -31t-144 -84.5t-111 -125.5t-63 -154zM309 711q10 49 38 92t67 75t86 51t96 19q67 0 110.5 -26t61.5 -63t11.5 -78t-37.5 -70q-68 -36 -128.5 -69t-118.5 -62.5t-116 -55.5t-121 -50zM474 0
q0 -53.8828 16 -93.6104q16 -39.7266 53 -59.8193q37 -20.0918 97.5 -19.1777q60.5 0.913086 149.5 28.3105v-144.296q-118 -27.3984 -207 -15.9824t-148.5 52.0566q-59.5 40.6396 -89 105.938t-29.5 146.58h158z" />
    <glyph glyph-name="Ecaron" unicode="&#x11a;" 
d="M302 1422h790l-34 -158h-632l-101 -474h474l-33 -158h-474l-101 -474h632l-33 -158h-790zM474 1817l79 79l158 -158l158 158l79 -79l-237 -237z" />
    <glyph glyph-name="ecaron" unicode="&#x11b;" 
d="M83 395q-17 -82 3 -154t67 -125.5t116 -84.5t152 -31q72 0 142 24t131.5 66t109.5 100t76 126h-164q-20 -35 -49 -64t-63.5 -50t-73 -32.5t-76.5 -11.5q-39 0 -76 11.5t-66.5 32.5t-49 50t-24.5 64q90 29 166.5 60t148.5 66.5t143.5 77.5t152.5 92q52 47 73 101.5
t17.5 109.5t-29 106t-67 90.5t-96.5 63t-117 23.5q-82 0 -161 -31t-144 -84.5t-111 -125.5t-63 -154zM309 711q10 49 38 92t67 75t86 51t96 19q67 0 110.5 -26t61.5 -63t11.5 -78t-37.5 -70q-68 -36 -128.5 -69t-118.5 -62.5t-116 -55.5t-121 -50zM474 1501l79 79l158 -158
l158 158l79 -79l-237 -237z" />
    <glyph glyph-name="Gcircumflex" unicode="&#x11c;" 
d="M675.89 158q-5.98145 -30 -36.3848 -58t-71.2725 -50.5q-40.8701 -22.5 -84.7305 -36t-76.7559 -13.5q-81.7393 0 -147.031 31q-65.293 31 -107.657 84.5q-42.3652 53.5 -57.8164 125.5q-15.4502 72 1.49512 154l134.572 632q16.9453 82 63.2979 154t111.146 125.5
t143.044 84.5q78.251 31 159.991 31q71.7715 0 130.584 -24t100.181 -66.5q41.3691 -42.5 64.7939 -100.5q23.4258 -58 23.4258 -125h-163.479q-4.98438 34 -20.9336 63t-40.3711 50q-24.4229 21 -56.8193 33q-32.3975 12 -71.2734 12q-48.8447 0 -95.6953 -18.5
t-86.2256 -51q-39.374 -32.5 -66.7871 -75.5q-27.4121 -43 -37.3809 -92l-134.571 -632q-9.96875 -49 -0.499023 -92q9.4707 -43 34.8896 -75.5t64.2949 -51t87.7207 -18.5q47.8477 0 96.1934 26q48.3467 26 88.7178 63t67.7842 77.5t33.3936 70.5l50.8379 237h-157.498
l32.8955 158h314.997l-166.471 -790h-157.498zM711 1896l237 -237l-79 -79l-158 158l-158 -158l-79 79z" />
    <glyph glyph-name="gcircumflex" unicode="&#x11d;" 
d="M90 -316h237q49 0 96 18.5t86 51t67 75.5t39 92l43 208q-43 -63 -112 -96t-151 -33q-83 0 -148 31t-107 84.5t-58 125.5t1 154l68 316q17 82 63 154t111 125.5t144 84.5t161 31q43 0 78 -12t61 -31t42 -42t19 -45l118 130h77l-252 -1185q-18 -82 -64 -154t-111 -125.5
t-143.5 -84.5t-160.5 -31h-237zM241 395q-10 -49 -0.5 -92t35 -75.5t64.5 -51t88 -18.5q40 0 77.5 18t70 45.5t60 61t47 64.5t30 55t10.5 33l42 236q14 51 9.5 100.5t-26 89t-60 63.5t-92.5 24q-49 0 -96 -19t-86 -51t-67 -75t-38 -92zM711 1580l237 -237l-79 -79l-158 158
l-158 -158l-79 79z" />
    <glyph glyph-name="Gbreve" unicode="&#x11e;" 
d="M665 158q-6 -30 -36.5 -58t-71.5 -50.5t-85 -36t-77 -13.5q-82 0 -147.5 31t-108 84.5t-58 125.5t1.5 154l135 632q17 82 63.5 154t111.5 125.5t143.5 84.5t160.5 31q72 0 131 -24t100.5 -66.5t65 -100.5t23.5 -125h-164q-5 34 -21 63t-40.5 50t-57 33t-71.5 12
q-49 0 -96 -18.5t-86.5 -51t-67 -75.5t-37.5 -92l-135 -632q-10 -49 -0.5 -92t35 -75.5t64.5 -51t88 -18.5q48 0 96.5 26t89 63t68 77.5t33.5 70.5l51 237h-158l33 158h316l-167 -790h-158zM711 1580q-59 0 -103.5 27t-74 71.5t-44.5 101.5t-15 116h158q0 -30 1 -58
t8.5 -50.5t23.5 -36t46 -13.5t46 13.5t23.5 36t8.5 50.5t1 58h158q0 -59 -15 -116t-44.5 -101.5t-74 -71.5t-103.5 -27z" />
    <glyph glyph-name="gbreve" unicode="&#x11f;" 
d="M90 -316h237q49 0 96 18.5t86 51t67 75.5t39 92l43 208q-43 -63 -112 -96t-151 -33q-83 0 -148 31t-107 84.5t-58 125.5t1 154l68 316q17 82 63 154t111 125.5t144 84.5t161 31q43 0 78 -12t61 -31t42 -42t19 -45l118 130h77l-252 -1185q-18 -82 -64 -154t-111 -125.5
t-143.5 -84.5t-160.5 -31h-237zM241 395q-10 -49 -0.5 -92t35 -75.5t64.5 -51t88 -18.5q40 0 77.5 18t70 45.5t60 61t47 64.5t30 55t10.5 33l42 236q14 51 9.5 100.5t-26 89t-60 63.5t-92.5 24q-49 0 -96 -19t-86 -51t-67 -75t-38 -92zM711 1264q-59 0 -103.5 27t-74 71.5
t-44.5 101.5t-15 116h158q0 -30 1 -58t8.5 -50.5t23.5 -36t46 -13.5t46 13.5t23.5 36t8.5 50.5t1 58h158q0 -59 -15 -116t-44.5 -101.5t-74 -71.5t-103.5 -27z" />
    <glyph glyph-name="Gdotaccent" unicode="&#x120;" 
d="M665 158q-6 -30 -36.5 -58t-71.5 -50.5t-85 -36t-77 -13.5q-82 0 -147.5 31t-108 84.5t-58 125.5t1.5 154l135 632q17 82 63.5 154t111.5 125.5t143.5 84.5t160.5 31q72 0 131 -24t100.5 -66.5t65 -100.5t23.5 -125h-164q-5 34 -21 63t-40.5 50t-57 33t-71.5 12
q-49 0 -96 -18.5t-86.5 -51t-67 -75.5t-37.5 -92l-135 -632q-10 -49 -0.5 -92t35 -75.5t64.5 -51t88 -18.5q48 0 96.5 26t89 63t68 77.5t33.5 70.5l51 237h-158l33 158h316l-167 -790h-158zM632 1659q0 33 23 56t56 23t56 -23t23 -56t-23 -56t-56 -23t-56 23t-23 56z" />
    <glyph glyph-name="gdotaccent" unicode="&#x121;" 
d="M90 -316h237q49 0 96 18.5t86 51t67 75.5t39 92l43 208q-43 -63 -112 -96t-151 -33q-83 0 -148 31t-107 84.5t-58 125.5t1 154l68 316q17 82 63 154t111 125.5t144 84.5t161 31q43 0 78 -12t61 -31t42 -42t19 -45l118 130h77l-252 -1185q-18 -82 -64 -154t-111 -125.5
t-143.5 -84.5t-160.5 -31h-237zM241 395q-10 -49 -0.5 -92t35 -75.5t64.5 -51t88 -18.5q40 0 77.5 18t70 45.5t60 61t47 64.5t30 55t10.5 33l42 236q14 51 9.5 100.5t-26 89t-60 63.5t-92.5 24q-49 0 -96 -19t-86 -51t-67 -75t-38 -92zM632 1343q0 33 23 56t56 23t56 -23
t23 -56t-23 -56t-56 -23t-56 23t-23 56z" />
    <glyph glyph-name="Gcommaaccent" unicode="&#x122;" 
d="M665 158q-6 -30 -36.5 -58t-71.5 -50.5t-85 -36t-77 -13.5q-82 0 -147.5 31t-108 84.5t-58 125.5t1.5 154l135 632q17 82 63.5 154t111.5 125.5t143.5 84.5t160.5 31q72 0 131 -24t100.5 -66.5t65 -100.5t23.5 -125h-164q-5 34 -21 63t-40.5 50t-57 33t-71.5 12
q-49 0 -96 -18.5t-86.5 -51t-67 -75.5t-37.5 -92l-135 -632q-10 -49 -0.5 -92t35 -75.5t64.5 -51t88 -18.5q48 0 96.5 26t89 63t68 77.5t33.5 70.5l51 237h-158l33 158h316l-167 -790h-158zM374.991 -631q-31.4854 0 -48.6592 23t-10.4951 56t33.3936 56t58.2002 23
q28.623 0 45.7969 10.5t28.623 30.5t18.1279 49.5t15.2656 67.5q-31.4854 0 -56.292 12.5t-41.0264 34t-22.4219 50q-6.20117 28.5 0.477539 61.5t24.3291 61.5q17.6514 28.5 42.458 50t54.8604 34q30.0547 12.5 61.54 12.5t55.8154 -12.5q24.3291 -12.5 40.5488 -34
t22.4219 -50q6.20117 -28.5 -0.477539 -61.5l-31.4854 -158q-12.4033 -59 -38.1641 -116t-62.9707 -101.5t-85.3926 -71.5q-48.1816 -27 -104.474 -27z" />
    <glyph glyph-name="gcommaaccent" unicode="&#x123;" 
d="M90 -316h237q49 0 96 18.5t86 51t67 75.5t39 92l43 208q-43 -63 -112 -96t-151 -33q-83 0 -148 31t-107 84.5t-58 125.5t1 154l68 316q17 82 63 154t111 125.5t144 84.5t161 31q43 0 78 -12t61 -31t42 -42t19 -45l118 130h77l-252 -1185q-18 -82 -64 -154t-111 -125.5
t-143.5 -84.5t-160.5 -31h-237zM241 395q-10 -49 -0.5 -92t35 -75.5t64.5 -51t88 -18.5q40 0 77.5 18t70 45.5t60 61t47 64.5t30 55t10.5 33l42 236q14 51 9.5 100.5t-26 89t-60 63.5t-92.5 24q-49 0 -96 -19t-86 -51t-67 -75t-38 -92zM802.494 1896q31.4854 0 49.1367 -23
q17.6504 -23 10.9717 -56t-33.3936 -56t-58.2002 -23q-28.623 0 -46.2744 -10.5q-17.6504 -10.5 -28.623 -30.5q-10.9717 -20 -18.127 -49.5q-7.15625 -29.5 -14.7891 -67.5q31.4854 0 56.292 -12.5t41.0264 -34t22.4219 -50q6.20117 -28.5 -0.477539 -61.5t-24.8066 -61.5
t-42.9346 -50t-54.3838 -34t-61.0625 -12.5t-56.292 12.5t-41.0264 34t-21.9443 50t0.954102 61.5l31.4854 158q12.4033 59 38.1641 116t62.9707 101.5t84.915 71.5t103.997 27z" />
    <glyph glyph-name="Hcircumflex" unicode="&#x124;" 
d="M302 1422h158l-135 -632h474l135 632h158l-302 -1422h-158l134 632h-474l-134 -632h-158zM711 1896l237 -237l-79 -79l-158 158l-158 -158l-79 79z" />
    <glyph glyph-name="hcircumflex" unicode="&#x125;" 
d="M783 711q10 49 0.5 92t-35 75.5t-64.5 51t-88 18.5q-33 0 -66 -14t-64 -38t-59.5 -55t-51.5 -65t-39.5 -69t-24.5 -66l-133 -641h-158l302 1422h158l-104 -476q26 35 58.5 64.5t68 50.5t73.5 33t74 12q82 0 147 -31t107 -84.5t58 -125.5t-1 -154l-151 -711h-158z
M711 1580l237 -237l-79 -79l-158 158l-158 -158l-79 79z" />
    <glyph glyph-name="Hbar" unicode="&#x126;" 
d="M302 1422h158l-68 -316h474l68 316h158l-302 -1422h-158l134 632h-474l-134 -632h-158zM799 790l38 179h-474l-38 -179h474z" />
    <glyph glyph-name="hbar" unicode="&#x127;" 
d="M110 1264h158l34 158h158l-34 -158h158l-33 -158h-158l-17 -80q58 38 122.5 59t131.5 21q82 0 147 -31t107.5 -84.5t58 -125.5t-1.5 -154l-151 -711h-158l151 711q10 49 0.5 92t-35 75.5t-64.5 51t-88 18.5q-48 0 -94.5 -18t-85 -48.5t-66 -72t-39.5 -88.5l-153 -721
h-158l235 1106h-158z" />
    <glyph glyph-name="Itilde" unicode="&#x128;" 
d="M33 158h316l235 1106h-316l34 158h790l-34 -158h-316l-235 -1106h316l-33 -158h-790zM1106 1817q-119 -237 -237 -237q-59 0 -94.5 11.5t-57.5 29.5t-35.5 38t-29 38t-38 29.5t-61.5 11.5q-30 0 -58 -13.5t-50.5 -36t-36 -50.5t-13.5 -58l-79 79q118 237 237 237
q59 0 94.5 -11.5t57.5 -29.5t35.5 -38t29 -38t37.5 -29.5t62 -11.5q30 0 58 13.5t50.5 36t36 50.5t13.5 58z" />
    <glyph glyph-name="itilde" unicode="&#x129;" 
d="M946 1501q-119 -237 -237 -237q-59 0 -94.5 11.5t-57.5 29.5t-35.5 38t-29 38t-38 29.5t-61.5 11.5q-30 0 -58 -13.5t-50.5 -36t-36 -50.5t-13.5 -58l-79 79q118 237 237 237q59 0 94.5 -11.5t57.5 -29.5t35.5 -38t29 -38t37.5 -29.5t62 -11.5q30 0 58 13.5t50.5 36
t36 50.5t13.5 58zM517 948h-158l34 158h316l-235 -1106h-158z" />
    <glyph glyph-name="Imacron" unicode="&#x12a;" 
d="M33 158h316l235 1106h-316l34 158h790l-34 -158h-316l-235 -1106h316l-33 -158h-790zM316 1580l33 158h790l-33 -158h-790z" />
    <glyph glyph-name="imacron" unicode="&#x12b;" 
d="M158.798 1265l32.957 158h788.987l-32.957 -158h-788.987zM517 948h-158l34 158h316l-235 -1106h-158z" />
    <glyph glyph-name="Ibreve" unicode="&#x12c;" 
d="M33 158h316l235 1106h-316l34 158h790l-34 -158h-316l-235 -1106h316l-33 -158h-790zM711 1580q-59 0 -103.5 27t-74 71.5t-44.5 101.5t-15 116h158q0 -30 1 -58t8.5 -50.5t23.5 -36t46 -13.5t46 13.5t23.5 36t8.5 50.5t1 58h158q0 -59 -15 -116t-44.5 -101.5t-74 -71.5
t-103.5 -27z" />
    <glyph glyph-name="ibreve" unicode="&#x12d;" 
d="M711 1264q-59 0 -103.5 27t-74 71.5t-44.5 101.5t-15 116h158q0 -30 1 -58t8.5 -50.5t23.5 -36t46 -13.5t46 13.5t23.5 36t8.5 50.5t1 58h158q0 -59 -15 -116t-44.5 -101.5t-74 -71.5t-103.5 -27zM517 948h-158l34 158h316l-235 -1106h-158z" />
    <glyph glyph-name="Iogonek" unicode="&#x12e;" 
d="M33 158h316l235 1106h-316l34 158h790l-34 -158h-316l-235 -1106h316l-33 -158h-790zM474 0q0 -53.8828 16 -93.6104q16 -39.7266 53 -59.8193q37 -20.0918 97.5 -19.1777q60.5 0.913086 149.5 28.3105v-144.296q-118 -27.3984 -207 -15.9824t-148.5 52.0566
q-59.5 40.6396 -89 105.938t-29.5 146.58h158z" />
    <glyph glyph-name="iogonek" unicode="&#x12f;" 
d="M501 869q8 34 -9 56.5t-53 22.5h-80l34 158h158q30 0 55.5 -13.5t43 -36t25 -50.5t1.5 -58l-202 -948h-158zM618 1422h158l-34 -158h-158zM474 0q0 -54 16 -93.5t53 -60t97.5 -19.5t149.5 29v-145q-118 -27 -207 -15.5t-148.5 52t-89 106t-29.5 146.5h158z" />
    <glyph glyph-name="Idotaccent" unicode="&#x130;" 
d="M33 158h316l235 1106h-316l34 158h790l-34 -158h-316l-235 -1106h316l-33 -158h-790zM632 1659q0 33 23 56t56 23t56 -23t23 -56t-23 -56t-56 -23t-56 23t-23 56z" />
    <glyph glyph-name="dotlessi" unicode="&#x131;" 
d="M517 948h-158l34 158h316l-235 -1106h-158z" />
    <glyph glyph-name="IJ" unicode="&#x132;" 
d="M-45 158h157l235 1106h-158l34 158h474l-34 -158h-158l-235 -1106h158l-33 -158h-474zM632 0q-59 0 -100.5 16t-63 53t-23.5 97.5t17 149.5h163q-9 -30 -14.5 -58t-3.5 -50.5t15 -36t43 -13.5t49 13.5t31 36t19 50.5t14 58l235 1106h158l-235 -1106q-19 -89 -47 -149.5
t-65.5 -97.5t-85 -53t-106.5 -16z" />
    <glyph glyph-name="ij" unicode="&#x133;" 
d="M19.3506 158q-6.40527 -30 1.60156 -58t27.2227 -50.5q19.2168 -22.5 46.4395 -36t58.1826 -13.5h169.742l35.2305 158h-84.3379q-42.7031 0 -58.7158 22q-16.0137 22 -7.47363 57l161.203 711q6.40527 30 -1.60156 58t-26.6895 50.5t-45.9053 36t-59.25 13.5h-168.675
l-36.2979 -158h85.4053q38.4326 0 56.5811 -22.5t9.6084 -56.5zM270.229 1264h168.676l36.2969 158h-168.675zM173 0q-19 -89 -9.5 -149.5t42.5 -97.5t87.5 -53t126.5 -16q60 0 122.5 27t116 71.5t93 101.5t53.5 116l234 1106h-316l-34 -158h158l-185 -869
q-50 -237 -286 -237q-14 0 -26.5 7.5t-19.5 25.5t-7.5 48.5t8.5 76.5h-158zM914 1264h158l34 158h-158z" />
    <glyph glyph-name="Jcircumflex" unicode="&#x134;" 
d="M100 474h158q-17 -79 -10.5 -138t30 -98.5t62.5 -59.5t88 -20t96 18.5t86 51t67 75.5t38 92l219 1027h158l-219 -1027q-17 -82 -63 -154t-111 -125.5t-143.5 -84.5t-160.5 -31q-83 0 -148 32t-105.5 93t-52.5 149t11 200zM711 1896l237 -237l-79 -79l-158 158l-158 -158
l-79 79z" />
    <glyph glyph-name="jcircumflex" unicode="&#x135;" 
d="M127 -158h236q237 0 287 237l185 869h-158l34 158h316l-235 -1106q-13 -59 -52 -116t-93 -101.5t-117 -71.5t-122 -27h-315zM553 1580l237 -237l-79 -79l-158 158l-158 -158l-79 79z" />
    <glyph glyph-name="Kcommaaccent" unicode="&#x136;" 
d="M319 761l595 661h178l-625 -711l323 -711h-180l-317 638l-135 -638h-158l302 1422h158zM374.991 -631q-31.4854 0 -48.6592 23t-10.4951 56t33.3936 56t58.2002 23q28.623 0 45.7969 10.5t28.623 30.5t18.1279 49.5t15.2656 67.5q-31.4854 0 -56.292 12.5t-41.0264 34
t-22.4219 50q-6.20117 28.5 0.477539 61.5t24.3291 61.5q17.6514 28.5 42.458 50t54.8604 34q30.0547 12.5 61.54 12.5t55.8154 -12.5q24.3291 -12.5 40.5488 -34t22.4219 -50q6.20117 -28.5 -0.477539 -61.5l-31.4854 -158q-12.4033 -59 -38.1641 -116t-62.9707 -101.5
t-85.3926 -71.5q-48.1816 -27 -104.474 -27z" />
    <glyph glyph-name="kcommaaccent" unicode="&#x137;" 
d="M292 632h38l501 474h194l-571 -553l336 -553h-194l-300 474h-38l-100 -474h-158l302 1422h158zM374.991 -631q-31.4854 0 -48.6592 23t-10.4951 56t33.3936 56t58.2002 23q28.623 0 45.7969 10.5t28.623 30.5t18.1279 49.5t15.2656 67.5q-31.4854 0 -56.292 12.5
t-41.0264 34t-22.4219 50q-6.20117 28.5 0.477539 61.5t24.3291 61.5q17.6514 28.5 42.458 50t54.8604 34q30.0547 12.5 61.54 12.5t55.8154 -12.5q24.3291 -12.5 40.5488 -34t22.4219 -50q6.20117 -28.5 -0.477539 -61.5l-31.4854 -158q-12.4033 -59 -38.1641 -116
t-62.9707 -101.5t-85.3926 -71.5q-48.1816 -27 -104.474 -27z" />
    <glyph glyph-name="kgreenlandic" unicode="&#x138;" 
d="M285 600l547 506h193l-592 -553l357 -553h-195l-329 509l-108 -509h-158l235 1106h158z" />
    <glyph glyph-name="Lacute" unicode="&#x139;" 
d="M302 1422h158l-269 -1264h632l-33 -158h-790zM395 1580l-79 79l395 237l79 -79z" />
    <glyph glyph-name="lacute" unicode="&#x13a;" 
d="M348 158q-6 -30 1.5 -58t25.5 -50.5t44 -36t55 -13.5h159l32 158h-79q-40 0 -55 22t-7 57l219 1027q6 30 -1.5 58t-25 50.5t-43 36t-55.5 13.5h-158l-34 -158h80q36 0 53 -22.5t9 -56.5zM553 1580l-79 79l395 237l79 -79z" />
    <glyph glyph-name="Lcommaaccent" unicode="&#x13b;" 
d="M302 1422h158l-269 -1264h632l-33 -158h-790zM374.991 -631q-31.4854 0 -48.6592 23t-10.4951 56t33.3936 56t58.2002 23q28.623 0 45.7969 10.5t28.623 30.5t18.1279 49.5t15.2656 67.5q-31.4854 0 -56.292 12.5t-41.0264 34t-22.4219 50q-6.20117 28.5 0.477539 61.5
t24.3291 61.5q17.6514 28.5 42.458 50t54.8604 34q30.0547 12.5 61.54 12.5t55.8154 -12.5q24.3291 -12.5 40.5488 -34t22.4219 -50q6.20117 -28.5 -0.477539 -61.5l-31.4854 -158q-12.4033 -59 -38.1641 -116t-62.9707 -101.5t-85.3926 -71.5q-48.1816 -27 -104.474 -27z
" />
    <glyph glyph-name="lcommaaccent" unicode="&#x13c;" 
d="M348 158q-6 -30 1.5 -58t25.5 -50.5t44 -36t55 -13.5h159l32 158h-79q-40 0 -55 22t-7 57l219 1027q6 30 -1.5 58t-25 50.5t-43 36t-55.5 13.5h-158l-34 -158h80q36 0 53 -22.5t9 -56.5zM374.991 -631q-31.4854 0 -48.6592 23t-10.4951 56t33.3936 56t58.2002 23
q28.623 0 45.7969 10.5t28.623 30.5t18.1279 49.5t15.2656 67.5q-31.4854 0 -56.292 12.5t-41.0264 34t-22.4219 50q-6.20117 28.5 0.477539 61.5t24.3291 61.5q17.6514 28.5 42.458 50t54.8604 34q30.0547 12.5 61.54 12.5t55.8154 -12.5q24.3291 -12.5 40.5488 -34
t22.4219 -50q6.20117 -28.5 -0.477539 -61.5l-31.4854 -158q-12.4033 -59 -38.1641 -116t-62.9707 -101.5t-85.3926 -71.5q-48.1816 -27 -104.474 -27z" />
    <glyph glyph-name="Lcaron" unicode="&#x13d;" 
d="M421 1422h158l-269 -1264h632l-33 -158h-790zM769.991 1262q-31.4854 0 -48.6592 23.0732q-17.1738 23.0723 -10.4951 56.1777q6.67871 33.1045 33.3936 56.1777q26.7148 23.0723 58.2002 23.0723q28.623 0 45.7969 10.5342q17.1738 10.5332 28.623 30.5967
t18.1279 49.6572q6.67871 29.5928 15.2656 67.7139q-31.4854 0 -56.292 12.54q-24.8066 12.5391 -41.0264 34.1074t-22.4219 50.1592q-6.20117 28.5898 0.477539 61.6953q6.67871 33.1045 24.3291 61.6943q17.6514 28.5908 42.458 50.1592t54.8604 34.1074
q30.0547 12.54 61.54 12.54t55.8154 -12.54q24.3291 -12.5391 40.5488 -34.1074t22.4219 -50.1592q6.20117 -28.5898 -0.477539 -61.6943l-31.4854 -158.502q-12.4033 -59.1875 -38.1641 -116.368t-62.9707 -101.822t-85.3926 -71.7266q-48.1816 -27.0859 -104.474 -27.0859
z" />
    <glyph glyph-name="lcaron" unicode="&#x13e;" 
d="M191 158q-6 -30 1.5 -58t25.5 -50.5t44 -36t55 -13.5h159l32 158h-79q-40 0 -55 22t-7 57l219 1027q6 30 -1.5 58t-25 50.5t-43 36t-55.5 13.5h-158l-34 -158h80q36 0 53 -22.5t9 -56.5zM848.991 1264q-31.4854 0 -48.6592 23t-10.4951 56t33.3936 56t58.2002 23
q28.623 0 45.7969 10.5t28.623 30.5t18.1279 49.5t15.2656 67.5q-31.4854 0 -56.292 12.5t-41.0264 34t-22.4219 50q-6.20117 28.5 0.477539 61.5t24.3291 61.5q17.6514 28.5 42.458 50t54.8604 34q30.0547 12.5 61.54 12.5t55.8154 -12.5q24.3291 -12.5 40.5488 -34
t22.4219 -50q6.20117 -28.5 -0.477539 -61.5l-31.4854 -158q-12.4033 -59 -38.1641 -116t-62.9707 -101.5t-85.3926 -71.5q-48.1816 -27 -104.474 -27z" />
    <glyph glyph-name="Ldot" unicode="&#x13f;" 
d="M302 1422h158l-269 -1264h632l-33 -158h-790zM632 790q0 33 12.5 61.5t34 50t50 34t61.5 12.5t61.5 -12.5t50 -34t34 -50t12.5 -61.5t-12.5 -61.5t-34 -50t-50 -34t-61.5 -12.5t-61.5 12.5t-50 34t-34 50t-12.5 61.5z" />
    <glyph glyph-name="ldot" unicode="&#x140;" 
d="M191 158q-6 -30 1.5 -58t25.5 -50.5t44 -36t55 -13.5h159l32 158h-79q-40 0 -55 22t-7 57l219 1027q6 30 -1.5 58t-25 50.5t-43 36t-55.5 13.5h-158l-34 -158h80q36 0 53 -22.5t9 -56.5zM632 790q0 33 12.5 61.5t34 50t50 34t61.5 12.5t61.5 -12.5t50 -34t34 -50
t12.5 -61.5t-12.5 -61.5t-34 -50t-50 -34t-61.5 -12.5t-61.5 12.5t-50 34t-34 50t-12.5 61.5z" />
    <glyph glyph-name="Lslash" unicode="&#x141;" 
d="M83 455l670 553l94 -120l-670 -553zM427 1422h158l-269 -1264h632l-33 -158h-790z" />
    <glyph glyph-name="lslash" unicode="&#x142;" 
d="M210 466l233 136l141 662h-158l34 158h316l-152 -714l127 74l64 -142l-235 -137l-106 -503h-158l84 398l-127 -74z" />
    <glyph glyph-name="Nacute" unicode="&#x143;" 
d="M0 0l302 1422h158l250 -1052l224 1052h158l-302 -1422h-158l-251 1052l-223 -1052h-158zM553 1580l-79 79l395 237l79 -79z" />
    <glyph glyph-name="nacute" unicode="&#x144;" 
d="M596 948q-33 0 -66 -14t-64 -38t-59.5 -55t-51.5 -65t-39.5 -69t-24.5 -66l-133 -641h-158l235 1106h81l40 -160q19 33 48.5 62t65.5 50.5t77 34.5t83 13q82 0 147 -31t107 -84.5t58 -125.5t-1 -154l-151 -711h-158l151 711q10 49 0.5 92t-35 75.5t-64.5 51t-88 18.5z
M553 1264l-79 79l395 237l79 -79z" />
    <glyph glyph-name="Ncommaaccent" unicode="&#x145;" 
d="M0 0l302 1422h158l250 -1052l224 1052h158l-302 -1422h-158l-251 1052l-223 -1052h-158zM374.991 -631q-31.4854 0 -48.6592 23t-10.4951 56t33.3936 56t58.2002 23q28.623 0 45.7969 10.5t28.623 30.5t18.1279 49.5t15.2656 67.5q-31.4854 0 -56.292 12.5t-41.0264 34
t-22.4219 50q-6.20117 28.5 0.477539 61.5t24.3291 61.5q17.6514 28.5 42.458 50t54.8604 34q30.0547 12.5 61.54 12.5t55.8154 -12.5q24.3291 -12.5 40.5488 -34t22.4219 -50q6.20117 -28.5 -0.477539 -61.5l-31.4854 -158q-12.4033 -59 -38.1641 -116t-62.9707 -101.5
t-85.3926 -71.5q-48.1816 -27 -104.474 -27z" />
    <glyph glyph-name="ncommaaccent" unicode="&#x146;" 
d="M596 948q-33 0 -66 -14t-64 -38t-59.5 -55t-51.5 -65t-39.5 -69t-24.5 -66l-133 -641h-158l235 1106h81l40 -160q19 33 48.5 62t65.5 50.5t77 34.5t83 13q82 0 147 -31t107 -84.5t58 -125.5t-1 -154l-151 -711h-158l151 711q10 49 0.5 92t-35 75.5t-64.5 51t-88 18.5z
M374.991 -631q-31.4854 0 -48.6592 23t-10.4951 56t33.3936 56t58.2002 23q28.623 0 45.7969 10.5t28.623 30.5t18.1279 49.5t15.2656 67.5q-31.4854 0 -56.292 12.5t-41.0264 34t-22.4219 50q-6.20117 28.5 0.477539 61.5t24.3291 61.5q17.6514 28.5 42.458 50t54.8604 34
q30.0547 12.5 61.54 12.5t55.8154 -12.5q24.3291 -12.5 40.5488 -34t22.4219 -50q6.20117 -28.5 -0.477539 -61.5l-31.4854 -158q-12.4033 -59 -38.1641 -116t-62.9707 -101.5t-85.3926 -71.5q-48.1816 -27 -104.474 -27z" />
    <glyph glyph-name="Ncaron" unicode="&#x147;" 
d="M0 0l302 1422h158l250 -1052l224 1052h158l-302 -1422h-158l-251 1052l-223 -1052h-158zM474 1817l79 79l158 -158l158 158l79 -79l-237 -237z" />
    <glyph glyph-name="ncaron" unicode="&#x148;" 
d="M596 948q-33 0 -66 -14t-64 -38t-59.5 -55t-51.5 -65t-39.5 -69t-24.5 -66l-133 -641h-158l235 1106h81l40 -160q19 33 48.5 62t65.5 50.5t77 34.5t83 13q82 0 147 -31t107 -84.5t58 -125.5t-1 -154l-151 -711h-158l151 711q10 49 0.5 92t-35 75.5t-64.5 51t-88 18.5z
M474 1501l79 79l158 -158l158 158l79 -79l-237 -237z" />
    <glyph glyph-name="napostrophe" unicode="&#x149;" 
d="M596 948q-33 0 -66 -14t-64 -38t-59.5 -55t-51.5 -65t-39.5 -69t-24.5 -66l-133 -641h-158l235 1106h81l40 -160q19 33 48.5 62t65.5 50.5t77 34.5t83 13q82 0 147 -31t107 -84.5t58 -125.5t-1 -154l-151 -711h-158l151 711q10 49 0.5 92t-35 75.5t-64.5 51t-88 18.5z
M690.991 1027q-31.4854 0 -48.6592 23t-10.4951 56t33.3936 56t58.2002 23q28.623 0 45.7969 10.5t28.623 30.5t18.1279 49.5t15.2656 67.5q-31.4854 0 -56.292 12.5t-41.0264 34t-22.4219 50q-6.20117 28.5 0.477539 61.5t24.3291 61.5q17.6514 28.5 42.458 50t54.8604 34
q30.0547 12.5 61.54 12.5t55.8154 -12.5q24.3291 -12.5 40.5488 -34t22.4219 -50q6.20117 -28.5 -0.477539 -61.5l-31.4854 -158q-12.4033 -59 -38.1641 -116t-62.9707 -101.5t-85.3926 -71.5q-48.1816 -27 -104.474 -27z" />
    <glyph glyph-name="Eng" unicode="&#x14a;" 
d="M290 -474q-72 0 -132.5 24t-103 66.5t-66 100t-21.5 125.5h163q5 -35 21.5 -64t41.5 -50t58 -32.5t72 -11.5q49 0 97 18.5t87 51t67 75.5t39 92l17 79h-5l-242 1050l-223 -1050h-158l302 1422h165l242 -1047l223 1047h158l-319 -1501q-18 -82 -64.5 -154t-112 -125.5
t-145 -84.5t-161.5 -31z" />
    <glyph glyph-name="eng" unicode="&#x14b;" 
d="M361 -158q237 0 287 237l135 632q10 49 0.5 92t-35 75.5t-64.5 51t-88 18.5q-48 0 -94 -18t-84.5 -48.5t-66.5 -72t-40 -88.5l-153 -721h-158l235 1106h158l-17 -80q57 38 122 59t132 21q82 0 147 -31t107.5 -84.5t58 -125.5t-1.5 -154l-151 -711q-13 -59 -52 -116
t-93 -101.5t-117 -71.5t-122 -27h-316l34 158h237z" />
    <glyph glyph-name="Omacron" unicode="&#x14c;" 
d="M218 1027q17 82 63 154t111.5 125.5t144 84.5t160.5 31t147.5 -31t107.5 -84.5t57.5 -125.5t-1.5 -154l-135 -632q-17 -82 -63 -154t-111 -125.5t-143.5 -84.5t-160.5 -31q-83 0 -148 31t-107 84.5t-58 125.5t1 154zM663 1264q-49 0 -96 -19t-86 -51t-67 -75t-38 -92
l-135 -632q-10 -49 -0.5 -92t35 -75.5t64.5 -51t88 -18.5t96 18.5t86 51t67 75.5t38 92l135 632q10 49 0.5 92t-35 75.5t-64.5 51t-88 18.5zM316 1580l33 158h790l-33 -158h-790z" />
    <glyph glyph-name="omacron" unicode="&#x14d;" 
d="M151 711q17 82 63.5 154t111 125.5t143.5 84.5t161 31t147 -31t107.5 -84.5t58 -125.5t-1.5 -154l-68 -316q-17 -82 -63.5 -154t-111 -125.5t-143 -84.5t-160.5 -31t-147.5 31t-108 84.5t-58 125.5t1.5 154zM241 395q-10 -49 -0.5 -92t35 -75.5t64.5 -51t88 -18.5
t96 18.5t86.5 51t67 75.5t37.5 92l68 316q10 49 0.5 92t-35 75.5t-64.5 51t-88 18.5t-96 -18.5t-86.5 -51t-67 -75.5t-37.5 -92zM316.398 1265l26.3994 158h631.99l-26.3994 -158h-631.99z" />
    <glyph glyph-name="Obreve" unicode="&#x14e;" 
d="M218 1027q17 82 63 154t111.5 125.5t144 84.5t160.5 31t147.5 -31t107.5 -84.5t57.5 -125.5t-1.5 -154l-135 -632q-17 -82 -63 -154t-111 -125.5t-143.5 -84.5t-160.5 -31q-83 0 -148 31t-107 84.5t-58 125.5t1 154zM663 1264q-49 0 -96 -19t-86 -51t-67 -75t-38 -92
l-135 -632q-10 -49 -0.5 -92t35 -75.5t64.5 -51t88 -18.5t96 18.5t86 51t67 75.5t38 92l135 632q10 49 0.5 92t-35 75.5t-64.5 51t-88 18.5zM711 1580q-59 0 -103.5 27t-74 71.5t-44.5 101.5t-15 116h158q0 -30 1 -58t8.5 -50.5t23.5 -36t46 -13.5t46 13.5t23.5 36t8.5 50.5
t1 58h158q0 -59 -15 -116t-44.5 -101.5t-74 -71.5t-103.5 -27z" />
    <glyph glyph-name="obreve" unicode="&#x14f;" 
d="M151 711q17 82 63.5 154t111 125.5t143.5 84.5t161 31t147 -31t107.5 -84.5t58 -125.5t-1.5 -154l-68 -316q-17 -82 -63.5 -154t-111 -125.5t-143 -84.5t-160.5 -31t-147.5 31t-108 84.5t-58 125.5t1.5 154zM241 395q-10 -49 -0.5 -92t35 -75.5t64.5 -51t88 -18.5
t96 18.5t86.5 51t67 75.5t37.5 92l68 316q10 49 0.5 92t-35 75.5t-64.5 51t-88 18.5t-96 -18.5t-86.5 -51t-67 -75.5t-37.5 -92zM711 1264q-59 0 -103.5 27t-74 71.5t-44.5 101.5t-15 116h158q0 -30 1 -58t8.5 -50.5t23.5 -36t46 -13.5t46 13.5t23.5 36t8.5 50.5t1 58h158
q0 -59 -15 -116t-44.5 -101.5t-74 -71.5t-103.5 -27z" />
    <glyph glyph-name="Ohungarumlaut" unicode="&#x150;" 
d="M218 1027q17 82 63 154t111.5 125.5t144 84.5t160.5 31t147.5 -31t107.5 -84.5t57.5 -125.5t-1.5 -154l-135 -632q-17 -82 -63 -154t-111 -125.5t-143.5 -84.5t-160.5 -31q-83 0 -148 31t-107 84.5t-58 125.5t1 154zM663 1264q-49 0 -96 -19t-86 -51t-67 -75t-38 -92
l-135 -632q-10 -49 -0.5 -92t35 -75.5t64.5 -51t88 -18.5t96 18.5t86 51t67 75.5t38 92l135 632q10 49 0.5 92t-35 75.5t-64.5 51t-88 18.5zM382.158 1580l-65.8311 79l329.158 237l65.832 -79zM777.158 1580l-65.8311 79l329.158 237l65.832 -79z" />
    <glyph glyph-name="ohungarumlaut" unicode="&#x151;" 
d="M151 711q17 82 63.5 154t111 125.5t143.5 84.5t161 31t147 -31t107.5 -84.5t58 -125.5t-1.5 -154l-68 -316q-17 -82 -63.5 -154t-111 -125.5t-143 -84.5t-160.5 -31t-147.5 31t-108 84.5t-58 125.5t1.5 154zM241 395q-10 -49 -0.5 -92t35 -75.5t64.5 -51t88 -18.5
t96 18.5t86.5 51t67 75.5t37.5 92l68 316q10 49 0.5 92t-35 75.5t-64.5 51t-88 18.5t-96 -18.5t-86.5 -51t-67 -75.5t-37.5 -92zM382.158 1264l-65.8311 79l329.158 237l65.832 -79zM777.158 1264l-65.8311 79l329.158 237l65.832 -79z" />
    <glyph glyph-name="OE" unicode="&#x152;" 
d="M562 790h158l-33 -158h-158l-101 -474h316l-33 -158h-474l3 15q-39 -15 -82 -15q-59 0 -97.5 28.5t-57 80t-18 124.5t18.5 162l135 632q19 89 49.5 162t71 124.5t91 80t109.5 28.5q41 0 75 -16l4 16h474l-34 -158h-316zM426 1264q-30 0 -49 -15t-33 -44.5t-24.5 -74
t-22.5 -103.5l-135 -632q-12 -59 -20.5 -103.5t-7.5 -74t14 -44.5t43 -15q26 0 44.5 15t33.5 44.5t27 74t24 103.5l135 632q12 59 20.5 103.5t7.5 74t-14 44.5t-43 15z" />
    <glyph glyph-name="oe" unicode="&#x153;" 
d="M151 711q19 89 49 162t70.5 124.5t91 80t110.5 28.5q97 0 140 -79q37 38 81 58.5t95 20.5q58 0 96.5 -28.5t57.5 -80t18.5 -124.5t-19.5 -162l-51 -237h-316l-17 -79q-12 -59 -20.5 -103.5t-7.5 -74t14 -44.5t43 -15h237l-33 -158h-237q-51 0 -86 20.5t-55 58.5
q-38 -38 -81.5 -58.5t-93.5 -20.5q-59 0 -97.5 28.5t-57 80t-18 124.5t18.5 162zM241 395q-12 -59 -20.5 -103.5t-7.5 -74t14 -44.5t43 -15q27 0 45.5 13.5t32.5 40.5t25 67.5t22 94.5q1 5 1.5 10.5t2.5 10.5l68 316q12 59 20 103.5t7 74t-14 44.5t-42 15q-30 0 -49 -15
t-33 -44.5t-24.5 -74t-22.5 -103.5zM608 632h158l17 79q10 49 17.5 92t7 75.5t-12.5 51t-41 18.5q-30 0 -50 -19t-34.5 -51t-24.5 -75t-20 -92z" />
    <glyph glyph-name="Racute" unicode="&#x154;" 
d="M621 642q176 -641 176 -642h-181q-176 629 -174 632h-150l-134 -632h-158l302 1422h395q82 0 147.5 -31t107.5 -84.5t57.5 -125.5t-1.5 -154q-15 -70 -52 -133t-88.5 -114t-115 -87t-131.5 -51zM562 790q49 0 96 18.5t86 51t67 75.5t39 92q10 49 0.5 92t-35 75.5
t-64.5 51t-88 18.5h-237l-101 -474h237zM553 1580l-79 79l395 237l79 -79z" />
    <glyph glyph-name="racute" unicode="&#x155;" 
d="M0 0l235 1106h81l43 -160q23 31 68 59.5t97 51t102 36t83 13.5q71 0 117.5 -24t74.5 -66.5t38.5 -100.5t9.5 -125h-164q-4 34 -7.5 63t-13.5 50t-30.5 33t-58.5 12q-32 0 -70.5 -12.5t-78.5 -35t-78.5 -53t-70.5 -65.5t-54.5 -73.5t-30.5 -77.5l-134 -631h-158zM553 1264
l-79 79l395 237l79 -79z" />
    <glyph glyph-name="Rcommaaccent" unicode="&#x156;" 
d="M621 642q176 -641 176 -642h-181q-176 629 -174 632h-150l-134 -632h-158l302 1422h395q82 0 147.5 -31t107.5 -84.5t57.5 -125.5t-1.5 -154q-15 -70 -52 -133t-88.5 -114t-115 -87t-131.5 -51zM562 790q49 0 96 18.5t86 51t67 75.5t39 92q10 49 0.5 92t-35 75.5
t-64.5 51t-88 18.5h-237l-101 -474h237zM374.991 -631q-31.4854 0 -48.6592 23t-10.4951 56t33.3936 56t58.2002 23q28.623 0 45.7969 10.5t28.623 30.5t18.1279 49.5t15.2656 67.5q-31.4854 0 -56.292 12.5t-41.0264 34t-22.4219 50q-6.20117 28.5 0.477539 61.5
t24.3291 61.5q17.6514 28.5 42.458 50t54.8604 34q30.0547 12.5 61.54 12.5t55.8154 -12.5q24.3291 -12.5 40.5488 -34t22.4219 -50q6.20117 -28.5 -0.477539 -61.5l-31.4854 -158q-12.4033 -59 -38.1641 -116t-62.9707 -101.5t-85.3926 -71.5q-48.1816 -27 -104.474 -27z
" />
    <glyph glyph-name="rcommaaccent" unicode="&#x157;" 
d="M0 0l235 1106h81l43 -160q23 31 68 59.5t97 51t102 36t83 13.5q71 0 117.5 -24t74.5 -66.5t38.5 -100.5t9.5 -125h-164q-4 34 -7.5 63t-13.5 50t-30.5 33t-58.5 12q-32 0 -70.5 -12.5t-78.5 -35t-78.5 -53t-70.5 -65.5t-54.5 -73.5t-30.5 -77.5l-134 -631h-158z
M374.991 -631q-31.4854 0 -48.6592 23t-10.4951 56t33.3936 56t58.2002 23q28.623 0 45.7969 10.5t28.623 30.5t18.1279 49.5t15.2656 67.5q-31.4854 0 -56.292 12.5t-41.0264 34t-22.4219 50q-6.20117 28.5 0.477539 61.5t24.3291 61.5q17.6514 28.5 42.458 50t54.8604 34
q30.0547 12.5 61.54 12.5t55.8154 -12.5q24.3291 -12.5 40.5488 -34t22.4219 -50q6.20117 -28.5 -0.477539 -61.5l-31.4854 -158q-12.4033 -59 -38.1641 -116t-62.9707 -101.5t-85.3926 -71.5q-48.1816 -27 -104.474 -27z" />
    <glyph glyph-name="Rcaron" unicode="&#x158;" 
d="M621 642q176 -641 176 -642h-181q-176 629 -174 632h-150l-134 -632h-158l302 1422h395q82 0 147.5 -31t107.5 -84.5t57.5 -125.5t-1.5 -154q-15 -70 -52 -133t-88.5 -114t-115 -87t-131.5 -51zM562 790q49 0 96 18.5t86 51t67 75.5t39 92q10 49 0.5 92t-35 75.5
t-64.5 51t-88 18.5h-237l-101 -474h237zM474 1817l79 79l158 -158l158 158l79 -79l-237 -237z" />
    <glyph glyph-name="rcaron" unicode="&#x159;" 
d="M0 0l235 1106h81l43 -160q23 31 68 59.5t97 51t102 36t83 13.5q71 0 117.5 -24t74.5 -66.5t38.5 -100.5t9.5 -125h-164q-4 34 -7.5 63t-13.5 50t-30.5 33t-58.5 12q-32 0 -70.5 -12.5t-78.5 -35t-78.5 -53t-70.5 -65.5t-54.5 -73.5t-30.5 -77.5l-134 -631h-158zM474 1501
l79 79l158 -158l158 158l79 -79l-237 -237z" />
    <glyph glyph-name="Sacute" unicode="&#x15a;" 
d="M376 1027q-11 -49 -1.5 -92t35 -75.5t64.5 -51t88 -18.5q82 0 147.5 -31t108 -84.5t58 -125.5t-2.5 -154q-17 -82 -63 -154t-111 -125.5t-143.5 -84.5t-160.5 -31h-395l33 158h395q49 0 96 18.5t86 51t67 75.5t38 92q11 49 1.5 92t-35 75.5t-64.5 51t-88 18.5
q-82 0 -147.5 31t-108 84.5t-58 125.5t2.5 154q17 82 63 154t111.5 125.5t144 84.5t160.5 31h395l-34 -158h-395q-49 0 -96 -19t-86 -51t-67 -75t-38 -92zM553 1580l-79 79l395 237l79 -79z" />
    <glyph glyph-name="sacute" unicode="&#x15b;" 
d="M1025 1106l-34 -158h-395q-59 0 -106.5 -13.5t-81.5 -36t-55 -50.5t-28 -58q-6 -30 3 -58t34 -50.5t66.5 -36t100.5 -13.5q39 0 82.5 -7t84 -22t75.5 -39.5t58 -59.5t32 -81t-4 -105q-13 -60 -53.5 -117t-101.5 -102t-139.5 -72t-167.5 -27h-395l33 158h395
q59 0 106.5 13.5t81.5 36t55.5 51.5t27.5 59q6 29 -3 57t-33.5 50t-66.5 35.5t-101 13.5q-39 0 -82.5 7t-84 22.5t-75.5 40t-58 59.5t-31.5 81.5t3.5 105.5q13 59 53.5 116t101.5 101.5t140 71.5t168 27h395zM553 1264l-79 79l395 237l79 -79z" />
    <glyph glyph-name="Scircumflex" unicode="&#x15c;" 
d="M376 1027q-11 -49 -1.5 -92t35 -75.5t64.5 -51t88 -18.5q82 0 147.5 -31t108 -84.5t58 -125.5t-2.5 -154q-17 -82 -63 -154t-111 -125.5t-143.5 -84.5t-160.5 -31h-395l33 158h395q49 0 96 18.5t86 51t67 75.5t38 92q11 49 1.5 92t-35 75.5t-64.5 51t-88 18.5
q-82 0 -147.5 31t-108 84.5t-58 125.5t2.5 154q17 82 63 154t111.5 125.5t144 84.5t160.5 31h395l-34 -158h-395q-49 0 -96 -19t-86 -51t-67 -75t-38 -92zM711 1896l237 -237l-79 -79l-158 158l-158 -158l-79 79z" />
    <glyph glyph-name="scircumflex" unicode="&#x15d;" 
d="M1025 1106l-34 -158h-395q-59 0 -106.5 -13.5t-81.5 -36t-55 -50.5t-28 -58q-6 -30 3 -58t34 -50.5t66.5 -36t100.5 -13.5q39 0 82.5 -7t84 -22t75.5 -39.5t58 -59.5t32 -81t-4 -105q-13 -60 -53.5 -117t-101.5 -102t-139.5 -72t-167.5 -27h-395l33 158h395
q59 0 106.5 13.5t81.5 36t55.5 51.5t27.5 59q6 29 -3 57t-33.5 50t-66.5 35.5t-101 13.5q-39 0 -82.5 7t-84 22.5t-75.5 40t-58 59.5t-31.5 81.5t3.5 105.5q13 59 53.5 116t101.5 101.5t140 71.5t168 27h395zM711 1580l237 -237l-79 -79l-158 158l-158 -158l-79 79z" />
    <glyph glyph-name="Scedilla" unicode="&#x15e;" 
d="M332 79h158l-25 -121h-158zM376 1027q-11 -49 -1.5 -92t35 -75.5t64.5 -51t88 -18.5q82 0 147.5 -31t107.5 -84.5t58 -125.5t-2 -154q-17 -82 -63.5 -154t-111 -125.5t-143 -84.5t-160.5 -31h-395l33 158h395q49 0 96 18.5t86.5 51t67 75.5t37.5 92q11 49 1.5 92
t-35 75.5t-64.5 51t-88 18.5q-82 0 -147.5 31t-107.5 84.5t-58 125.5t2 154q17 82 63.5 154t111.5 125.5t143.5 84.5t160.5 31h395l-34 -158h-395q-49 0 -96 -18.5t-86.5 -51t-67 -75.5t-37.5 -92zM471 0q-19 -89 -64 -160.5t-114 -116t-160.5 -57t-202.5 17.5l34 158
q82 -30 142 -31t101.5 21t67 65.5t38.5 102.5h158z" />
    <glyph glyph-name="scedilla" unicode="&#x15f;" 
d="M474 0q-19 -89 -64 -160.5t-114.5 -116t-161.5 -57t-204 17.5l34 158q83 -30 143 -31t102 21t67.5 65.5t38.5 102.5h-315l33 158h395q59 0 106.5 13.5t81.5 36t55.5 51.5t27.5 59q6 29 -3 57t-33.5 50t-66.5 35.5t-101 13.5q-39 0 -82.5 7t-84 22.5t-75.5 40t-58 59.5
t-31.5 81.5t3.5 105.5q13 59 53.5 116t101.5 101.5t140 71.5t168 27h395l-34 -158h-395q-59 0 -106.5 -13.5t-81.5 -36t-55 -50.5t-28 -58q-6 -30 3 -58t34 -50.5t66.5 -36t100.5 -13.5q39 0 82.5 -7t84 -22t75.5 -39.5t58 -59.5t32 -81t-4 -105q-13 -60 -53.5 -117
t-101.5 -102t-140 -72q-42 -15 -87 -21z" />
    <glyph glyph-name="Scaron" unicode="&#x160;" 
d="M376 1027q-11 -49 -1.5 -92t35 -75.5t64.5 -51t88 -18.5q82 0 147.5 -31t108 -84.5t58 -125.5t-2.5 -154q-17 -82 -63 -154t-111 -125.5t-143.5 -84.5t-160.5 -31h-395l33 158h395q49 0 96 18.5t86 51t67 75.5t38 92q11 49 1.5 92t-35 75.5t-64.5 51t-88 18.5
q-82 0 -147.5 31t-108 84.5t-58 125.5t2.5 154q17 82 63 154t111.5 125.5t144 84.5t160.5 31h395l-34 -158h-395q-49 0 -96 -19t-86 -51t-67 -75t-38 -92zM316 1817l79 79l158 -158l158 158l79 -79l-237 -237z" />
    <glyph glyph-name="scaron" unicode="&#x161;" 
d="M1025 1106l-34 -158h-395q-59 0 -106.5 -13.5t-81.5 -36t-55 -50.5t-28 -58q-6 -30 3 -58t34 -50.5t66.5 -36t100.5 -13.5q39 0 82.5 -7t84 -22t75.5 -39.5t58 -59.5t32 -81t-4 -105q-13 -60 -53.5 -117t-101.5 -102t-139.5 -72t-167.5 -27h-395l33 158h395
q59 0 106.5 13.5t81.5 36t55.5 51.5t27.5 59q6 29 -3 57t-33.5 50t-66.5 35.5t-101 13.5q-39 0 -82.5 7t-84 22.5t-75.5 40t-58 59.5t-31.5 81.5t3.5 105.5q13 59 53.5 116t101.5 101.5t140 71.5t168 27h395zM316 1501l79 79l158 -158l158 158l79 -79l-237 -237z" />
    <glyph glyph-name="Tcommaaccent" unicode="&#x162;" 
d="M584 1264h-316l34 158h790l-34 -158h-316l-268 -1264h-158zM374.991 -631q-31.4854 0 -48.6592 23t-10.4951 56t33.3936 56t58.2002 23q28.623 0 45.7969 10.5t28.623 30.5t18.1279 49.5t15.2656 67.5q-31.4854 0 -56.292 12.5t-41.0264 34t-22.4219 50
q-6.20117 28.5 0.477539 61.5t24.3291 61.5q17.6514 28.5 42.458 50t54.8604 34q30.0547 12.5 61.54 12.5t55.8154 -12.5q24.3291 -12.5 40.5488 -34t22.4219 -50q6.20117 -28.5 -0.477539 -61.5l-31.4854 -158q-12.4033 -59 -38.1641 -116t-62.9707 -101.5t-85.3926 -71.5
q-48.1816 -27 -104.474 -27z" />
    <glyph glyph-name="tcommaaccent" unicode="&#x163;" 
d="M235 1106h158l67 316h158l-67 -316h316l-34 -158h-316l-118 -553q-10 -49 -0.5 -92t35 -75.5t64.5 -51t88 -18.5h237l-33 -158h-237q-82 0 -147.5 31t-108 84.5t-58 125.5t1.5 154l118 553h-158zM532.991 -631q-31.4854 0 -48.6592 23t-10.4951 56t33.3936 56t58.2002 23
q28.623 0 45.7969 10.5t28.623 30.5t18.1279 49.5t15.2656 67.5q-31.4854 0 -56.292 12.5t-41.0264 34t-22.4219 50q-6.20117 28.5 0.477539 61.5t24.3291 61.5q17.6514 28.5 42.458 50t54.8604 34q30.0547 12.5 61.54 12.5t55.8154 -12.5q24.3291 -12.5 40.5488 -34
t22.4219 -50q6.20117 -28.5 -0.477539 -61.5l-31.4854 -158q-12.4033 -59 -38.1641 -116t-62.9707 -101.5t-85.3926 -71.5q-48.1816 -27 -104.474 -27z" />
    <glyph glyph-name="Tcaron" unicode="&#x164;" 
d="M584 1264h-316l34 158h790l-34 -158h-316l-268 -1264h-158zM474 1817l79 79l158 -158l158 158l79 -79l-237 -237z" />
    <glyph glyph-name="tcaron" unicode="&#x165;" 
d="M235 1106h158l67 316h158l-67 -316h316l-34 -158h-316l-118 -553q-10 -49 -0.5 -92t35 -75.5t64.5 -51t88 -18.5h237l-33 -158h-237q-82 0 -147.5 31t-108 84.5t-58 125.5t1.5 154l118 553h-158zM769.991 1264q-31.4854 0 -48.6592 23t-10.4951 56t33.3936 56t58.2002 23
q28.623 0 45.7969 10.5t28.623 30.5t18.1279 49.5t15.2656 67.5q-31.4854 0 -56.292 12.5t-41.0264 34t-22.4219 50q-6.20117 28.5 0.477539 61.5t24.3291 61.5q17.6514 28.5 42.458 50t54.8604 34q30.0547 12.5 61.54 12.5t55.8154 -12.5q24.3291 -12.5 40.5488 -34
t22.4219 -50q6.20117 -28.5 -0.477539 -61.5l-31.4854 -158q-12.4033 -59 -38.1641 -116t-62.9707 -101.5t-85.3926 -71.5q-48.1816 -27 -104.474 -27z" />
    <glyph glyph-name="Tbar" unicode="&#x166;" 
d="M79 790l34 158h316l67 316h-316l34 158h790l-34 -158h-316l-67 -316h316l-34 -158h-316l-167 -790h-158l167 790h-316z" />
    <glyph glyph-name="tbar" unicode="&#x167;" 
d="M167 790h158l34 158h-158l34 158h158l67 316h158l-67 -316h316l-34 -158h-316l-34 -158h316l-33 -158h-316l-51 -237q-10 -49 -0.5 -92t35 -75.5t64.5 -51t88 -18.5h237l-33 -158h-237q-82 0 -147.5 31t-108 84.5t-58 125.5t1.5 154l51 237h-158z" />
    <glyph glyph-name="Utilde" unicode="&#x168;" 
d="M316 1422h158l-219 -1027q-10 -49 -0.5 -92t35 -75.5t64.5 -51t88 -18.5t96 18.5t86 51t67 75.5t38 92l219 1027h158l-219 -1027q-17 -82 -63 -154t-111 -125.5t-143.5 -84.5t-160.5 -31q-83 0 -148 31t-107 84.5t-58 125.5t1 154l84 395zM1106 1817q-119 -237 -237 -237
q-59 0 -94.5 11.5t-57.5 29.5t-35.5 38t-29 38t-38 29.5t-61.5 11.5q-30 0 -58 -13.5t-50.5 -36t-36 -50.5t-13.5 -58l-79 79q118 237 237 237q59 0 94.5 -11.5t57.5 -29.5t35.5 -38t29 -38t37.5 -29.5t62 -11.5q30 0 58 13.5t50.5 36t36 50.5t13.5 58z" />
    <glyph glyph-name="utilde" unicode="&#x169;" 
d="M766 632q-23 -104 -64 -191t-92 -150t-108 -98t-111 -35q-46 0 -80 20t-54 53t-24.5 76t8.5 88l152 711h-158l-152 -711q-13 -62 -7.5 -118t26.5 -103t57 -83.5t85 -59.5q32 -16 70 -23.5t79 -7.5q45 0 87.5 14t79.5 38.5t65 58.5t43 74q-2 -40 9 -74t28.5 -58.5
t40 -38.5t44.5 -14h76l30 158q-38 1 -51 22.5t-5 56.5l185 869h-158zM1106 1501q-119 -237 -237 -237q-59 0 -94.5 11.5t-57.5 29.5t-35.5 38t-29 38t-38 29.5t-61.5 11.5q-30 0 -58 -13.5t-50.5 -36t-36 -50.5t-13.5 -58l-79 79q118 237 237 237q59 0 94.5 -11.5
t57.5 -29.5t35.5 -38t29 -38t37.5 -29.5t62 -11.5q30 0 58 13.5t50.5 36t36 50.5t13.5 58z" />
    <glyph glyph-name="Umacron" unicode="&#x16a;" 
d="M316 1422h158l-219 -1027q-10 -49 -0.5 -92t35 -75.5t64.5 -51t88 -18.5t96 18.5t86 51t67 75.5t38 92l219 1027h158l-219 -1027q-17 -82 -63 -154t-111 -125.5t-143.5 -84.5t-160.5 -31q-83 0 -148 31t-107 84.5t-58 125.5t1 154l84 395zM316 1580l33 158h790l-33 -158
h-790z" />
    <glyph glyph-name="umacron" unicode="&#x16b;" 
d="M766 632q-23 -104 -64 -191t-92 -150t-108 -98t-111 -35q-46 0 -80 20t-54 53t-24.5 76t8.5 88l152 711h-158l-152 -711q-13 -62 -7.5 -118t26.5 -103t57 -83.5t85 -59.5q32 -16 70 -23.5t79 -7.5q45 0 87.5 14t79.5 38.5t65 58.5t43 74q-2 -40 9 -74t28.5 -58.5
t40 -38.5t44.5 -14h76l30 158q-38 1 -51 22.5t-5 56.5l185 869h-158zM316 1265l33 158h790l-33 -158h-790z" />
    <glyph glyph-name="Ubreve" unicode="&#x16c;" 
d="M316 1422h158l-219 -1027q-10 -49 -0.5 -92t35 -75.5t64.5 -51t88 -18.5t96 18.5t86 51t67 75.5t38 92l219 1027h158l-219 -1027q-17 -82 -63 -154t-111 -125.5t-143.5 -84.5t-160.5 -31q-83 0 -148 31t-107 84.5t-58 125.5t1 154l84 395zM711 1580q-59 0 -103.5 27
t-74 71.5t-44.5 101.5t-15 116h158q0 -30 1 -58t8.5 -50.5t23.5 -36t46 -13.5t46 13.5t23.5 36t8.5 50.5t1 58h158q0 -59 -15 -116t-44.5 -101.5t-74 -71.5t-103.5 -27z" />
    <glyph glyph-name="ubreve" unicode="&#x16d;" 
d="M766 632q-23 -104 -64 -191t-92 -150t-108 -98t-111 -35q-46 0 -80 20t-54 53t-24.5 76t8.5 88l152 711h-158l-152 -711q-13 -62 -7.5 -118t26.5 -103t57 -83.5t85 -59.5q32 -16 70 -23.5t79 -7.5q45 0 87.5 14t79.5 38.5t65 58.5t43 74q-2 -40 9 -74t28.5 -58.5
t40 -38.5t44.5 -14h76l30 158q-38 1 -51 22.5t-5 56.5l185 869h-158zM711 1264q-59 0 -103.5 27t-74 71.5t-44.5 101.5t-15 116h158q0 -30 1 -58t8.5 -50.5t23.5 -36t46 -13.5t46 13.5t23.5 36t8.5 50.5t1 58h158q0 -59 -15 -116t-44.5 -101.5t-74 -71.5t-103.5 -27z" />
    <glyph glyph-name="Uring" unicode="&#x16e;" 
d="M316 1422h158l-219 -1027q-10 -49 -0.5 -92t35 -75.5t64.5 -51t88 -18.5t96 18.5t86 51t67 75.5t38 92l219 1027h158l-219 -1027q-17 -82 -63 -154t-111 -125.5t-143.5 -84.5t-160.5 -31q-83 0 -148 31t-107 84.5t-58 125.5t1 154l84 395zM474 1817q0 49 18.5 92t51 75.5
t75.5 51t92 18.5t92 -18.5t75.5 -51t51 -75.5t18.5 -92t-18.5 -92t-51 -75.5t-75.5 -51t-92 -18.5t-92 18.5t-75.5 51t-51 75.5t-18.5 92zM632 1817q0 -33 23 -56t56 -23t56 23t23 56t-23 56t-56 23t-56 -23t-23 -56z" />
    <glyph glyph-name="uring" unicode="&#x16f;" 
d="M766 632q-23 -104 -64 -191t-92 -150t-108 -98t-111 -35q-46 0 -80 20t-54 53t-24.5 76t8.5 88l152 711h-158l-152 -711q-13 -62 -7.5 -118t26.5 -103t57 -83.5t85 -59.5q32 -16 70 -23.5t79 -7.5q45 0 87.5 14t79.5 38.5t65 58.5t43 74q-2 -40 9 -74t28.5 -58.5
t40 -38.5t44.5 -14h76l30 158q-38 1 -51 22.5t-5 56.5l185 869h-158zM474 1501q0 49 18.5 92t51 75.5t75.5 51t92 18.5t92 -18.5t75.5 -51t51 -75.5t18.5 -92t-18.5 -92t-51 -75.5t-75.5 -51t-92 -18.5t-92 18.5t-75.5 51t-51 75.5t-18.5 92zM632 1501q0 -33 23 -56t56 -23
t56 23t23 56t-23 56t-56 23t-56 -23t-23 -56z" />
    <glyph glyph-name="Uhungarumlaut" unicode="&#x170;" 
d="M316 1422h158l-219 -1027q-10 -49 -0.5 -92t35 -75.5t64.5 -51t88 -18.5t96 18.5t86 51t67 75.5t38 92l219 1027h158l-219 -1027q-17 -82 -63 -154t-111 -125.5t-143.5 -84.5t-160.5 -31q-83 0 -148 31t-107 84.5t-58 125.5t1 154l84 395zM382.158 1580l-65.8311 79
l329.158 237l65.832 -79zM777.158 1580l-65.8311 79l329.158 237l65.832 -79z" />
    <glyph glyph-name="uhungarumlaut" unicode="&#x171;" 
d="M766 632q-23 -104 -64 -191t-92 -150t-108 -98t-111 -35q-46 0 -80 20t-54 53t-24.5 76t8.5 88l152 711h-158l-152 -711q-13 -62 -7.5 -118t26.5 -103t57 -83.5t85 -59.5q32 -16 70 -23.5t79 -7.5q45 0 87.5 14t79.5 38.5t65 58.5t43 74q-2 -40 9 -74t28.5 -58.5
t40 -38.5t44.5 -14h76l30 158q-38 1 -51 22.5t-5 56.5l185 869h-158zM382.158 1264l-65.8311 79l329.158 237l65.832 -79zM777.158 1264l-65.8311 79l329.158 237l65.832 -79z" />
    <glyph glyph-name="Uogonek" unicode="&#x172;" 
d="M316 1422h158l-219 -1027q-10 -49 -0.5 -92t35 -75.5t64.5 -51t88 -18.5t96 18.5t86 51t67 75.5t38 92l219 1027h158l-219 -1027q-17 -82 -63 -154t-111 -125.5t-143.5 -84.5t-160.5 -31q-83 0 -148 31t-107 84.5t-58 125.5t1 154l84 395zM316.039 0
q0 -81.2812 29.498 -146.58t88.9941 -105.938q59.4961 -40.6406 148.491 -52.0566q88.9941 -11.416 206.987 15.9824v144.296q-88.9951 -27.3975 -149.491 -28.3105q-60.4961 -0.914062 -97.4941 19.1777q-36.9971 20.0928 -52.9961 59.8193
q-15.999 39.7275 -15.999 93.6104h-157.99z" />
    <glyph glyph-name="uogonek" unicode="&#x173;" 
d="M766 632q-23 -104 -64 -191t-92 -150t-108 -98t-111 -35q-46 0 -80 20t-54 53t-24.5 76t8.5 88l152 711h-158l-152 -711q-13 -62 -7.5 -118t26.5 -103t57 -83.5t85 -59.5q32 -16 70 -23.5t79 -7.5q45 0 87.5 14t79.5 38.5t65 58.5t43 74q-2 -40 9 -74t28.5 -58.5
t40 -38.5t44.5 -14h76l30 158q-38 1 -51 22.5t-5 56.5l185 869h-158zM316.039 0q0 -81.2812 29.498 -146.58t88.9941 -105.938q59.4961 -40.6406 148.491 -52.0566q88.9941 -11.416 206.987 15.9824v144.296q-88.9951 -27.3975 -149.491 -28.3105
q-60.4961 -0.914062 -97.4941 19.1777q-36.9971 20.0928 -52.9961 59.8193q-15.999 39.7275 -15.999 93.6104h-157.99z" />
    <glyph glyph-name="Wcircumflex" unicode="&#x174;" 
d="M934 1422h158l-302 -1422h-158l-137 474l-337 -474h-158l302 1422h158l-235 -1106l325 414l149 -414zM711 1896l237 -237l-79 -79l-158 158l-158 -158l-79 79z" />
    <glyph glyph-name="wcircumflex" unicode="&#x175;" 
d="M524 237q-17 -79 62 -79t96 79l185 869h158l-194 -909q-8 -41 -31.5 -77t-56 -62.5t-71.5 -42t-80 -15.5q-36 0 -66 12t-51 33t-32.5 50t-11.5 63h-7q-14 -34 -38 -63t-54 -50t-64.5 -33t-70.5 -12q-41 0 -74 15.5t-54 42t-28.5 62.5t0.5 77l194 909h158l-185 -869h1
q-18 -79 61 -79t95 79h1l84 395h158zM711 1580l237 -237l-79 -79l-158 158l-158 -158l-79 79z" />
    <glyph glyph-name="Ycircumflex" unicode="&#x176;" 
d="M416 472l-114 950h158l86 -711l388 711h158l-518 -948l-100 -474h-158zM711 1896l237 -237l-79 -79l-158 158l-158 -158l-79 79z" />
    <glyph glyph-name="ycircumflex" unicode="&#x177;" 
d="M241 395q-10 -49 -0.5 -92t35 -75.5t64.5 -51t88 -18.5q48 1 97 30.5t91 74.5t73.5 101t45.5 111l132 631h158l-252 -1185q-18 -82 -64 -154t-111 -125.5t-143.5 -84.5t-160.5 -31h-237l33 158h237q49 0 96 18.5t86 51t67 75.5t39 92l53 238q-15 -32 -42 -61t-63 -51
t-78.5 -34.5t-89.5 -12.5q-83 0 -148 31t-107 84.5t-58 125.5t1 154l152 711h158zM711 1580l237 -237l-79 -79l-158 158l-158 -158l-79 79z" />
    <glyph glyph-name="Ydieresis" unicode="&#x178;" 
d="M416 472l-114 950h158l86 -711l388 711h158l-518 -948l-100 -474h-158zM474 1659q0 33 23 56t56 23t56 -23t23 -56t-23 -56t-56 -23t-56 23t-23 56zM790 1659q0 33 23 56t56 23t56 -23t23 -56t-23 -56t-56 -23t-56 23t-23 56z" />
    <glyph glyph-name="Zacute" unicode="&#x179;" 
d="M33 158l844 1106h-609l34 158h790l-34 -158l-832 -1106h597l-33 -158h-790zM553 1580l-79 79l395 237l79 -79z" />
    <glyph glyph-name="zacute" unicode="&#x17a;" 
d="M803 948h-602l34 158h790l-34 -158l-771 -790h603l-33 -158h-790l33 158zM553 1264l-79 79l395 237l79 -79z" />
    <glyph glyph-name="Zdotaccent" unicode="&#x17b;" 
d="M33 158l844 1106h-609l34 158h790l-34 -158l-832 -1106h597l-33 -158h-790zM632 1659q0 33 23 56t56 23t56 -23t23 -56t-23 -56t-56 -23t-56 23t-23 56z" />
    <glyph glyph-name="zdotaccent" unicode="&#x17c;" 
d="M803 948h-602l34 158h790l-34 -158l-771 -790h603l-33 -158h-790l33 158zM632 1343q0 33 23 56t56 23t56 -23t23 -56t-23 -56t-56 -23t-56 23t-23 56z" />
    <glyph glyph-name="Zcaron" unicode="&#x17d;" 
d="M510 1659l96 79l124 -158l192 158l62 -79l-287 -237zM83 395l784 711l33 158h-632l34 158h790l-84 -395l-783 -711l-34 -158h632l-33 -158h-790z" />
    <glyph glyph-name="zcaron" unicode="&#x17e;" 
d="M443 1343l96 79l124 -158l192 158l62 -79l-287 -237zM816 869l17 79h-632l34 158h790l-68 -316l-749 -553l-17 -79h632l-33 -158h-790l67 316z" />
    <glyph glyph-name="longs" unicode="&#x17f;" 
d="M201 948h158l17 79q17 82 63.5 154t111.5 125.5t143.5 84.5t160.5 31h237l-34 -158h-237q-49 0 -96 -18.5t-86.5 -51t-67 -75.5t-37.5 -92l-218 -1027h-158l167 790h-158z" />
    <glyph glyph-name="uni0191" unicode="&#x191;" 
d="M632 1422h546l-34 -158h-388l-101 -474h340l-33 -158h-340l-134 -632l-17 -79q-18 -82 -64 -154t-111 -125.5t-143 -84.5t-160 -31h-79l33 158h79q49 0 96 18.5t86 51t66.5 75.5t38.5 92l17 79z" />
    <glyph glyph-name="florin" unicode="&#x192;" 
d="M979 1264q-49 0 -96 -18.5t-86.5 -51t-67 -75.5t-37.5 -92l-17 -79h316l-34 -158h-316l-184 -869q-18 -82 -64 -154t-111 -125.5t-143.5 -84.5t-159.5 -31h-79l33 158h78q49 0 96 18.5t86.5 51t67 75.5t38.5 92l184 869h-158l34 158h158l17 79q17 82 63.5 154
t111.5 125.5t143.5 84.5t160.5 31h79l-34 -158h-79v0z" />
    <glyph glyph-name="uni01CF" unicode="&#x1cf;" 
d="M33 158h316l235 1106h-316l34 158h790l-34 -158h-316l-235 -1106h316l-33 -158h-790zM474 1817l79 79l158 -158l158 158l79 -79l-237 -237z" />
    <glyph glyph-name="uni01D0" unicode="&#x1d0;" 
d="M474 1501l79 79l158 -158l158 158l79 -79l-237 -237zM517 948h-158l34 158h316l-235 -1106h-158z" />
    <glyph glyph-name="uni01D1" unicode="&#x1d1;" 
d="M218 1027q17 82 63 154t111.5 125.5t144 84.5t160.5 31t147.5 -31t107.5 -84.5t57.5 -125.5t-1.5 -154l-135 -632q-17 -82 -63 -154t-111 -125.5t-143.5 -84.5t-160.5 -31q-83 0 -148 31t-107 84.5t-58 125.5t1 154zM663 1264q-49 0 -96 -19t-86 -51t-67 -75t-38 -92
l-135 -632q-10 -49 -0.5 -92t35 -75.5t64.5 -51t88 -18.5t96 18.5t86 51t67 75.5t38 92l135 632q10 49 0.5 92t-35 75.5t-64.5 51t-88 18.5zM474 1817l79 79l158 -158l158 158l79 -79l-237 -237z" />
    <glyph glyph-name="uni01D2" unicode="&#x1d2;" 
d="M151 711q17 82 63.5 154t111 125.5t143.5 84.5t161 31t147 -31t107.5 -84.5t58 -125.5t-1.5 -154l-68 -316q-17 -82 -63.5 -154t-111 -125.5t-143 -84.5t-160.5 -31t-147.5 31t-108 84.5t-58 125.5t1.5 154zM241 395q-10 -49 -0.5 -92t35 -75.5t64.5 -51t88 -18.5
t96 18.5t86.5 51t67 75.5t37.5 92l68 316q10 49 0.5 92t-35 75.5t-64.5 51t-88 18.5t-96 -18.5t-86.5 -51t-67 -75.5t-37.5 -92zM316 1501l79 79l158 -158l158 158l79 -79l-237 -237z" />
    <glyph glyph-name="uni01D3" unicode="&#x1d3;" 
d="M316 1422h158l-219 -1027q-10 -49 -0.5 -92t35 -75.5t64.5 -51t88 -18.5t96 18.5t86 51t67 75.5t38 92l219 1027h158l-219 -1027q-17 -82 -63 -154t-111 -125.5t-143.5 -84.5t-160.5 -31q-83 0 -148 31t-107 84.5t-58 125.5t1 154l84 395zM474 1817l79 79l158 -158
l158 158l79 -79l-237 -237z" />
    <glyph glyph-name="uni01D4" unicode="&#x1d4;" 
d="M766 632q-23 -104 -64 -191t-92 -150t-108 -98t-111 -35q-46 0 -80 20t-54 53t-24.5 76t8.5 88l152 711h-158l-152 -711q-13 -62 -7.5 -118t26.5 -103t57 -83.5t85 -59.5q32 -16 70 -23.5t79 -7.5q45 0 87.5 14t79.5 38.5t65 58.5t43 74q-2 -40 9 -74t28.5 -58.5
t40 -38.5t44.5 -14h76l30 158q-38 1 -51 22.5t-5 56.5l185 869h-158zM474 1501l79 79l158 -158l158 158l79 -79l-237 -237z" />
    <glyph glyph-name="Gcaron" unicode="&#x1e6;" 
d="M665 158q-6 -30 -36.5 -58t-71.5 -50.5t-85 -36t-77 -13.5q-82 0 -147.5 31t-108 84.5t-58 125.5t1.5 154l135 632q17 82 63.5 154t111.5 125.5t143.5 84.5t160.5 31q72 0 131 -24t100.5 -66.5t65 -100.5t23.5 -125h-164q-5 34 -21 63t-40.5 50t-57 33t-71.5 12
q-49 0 -96 -18.5t-86.5 -51t-67 -75.5t-37.5 -92l-135 -632q-10 -49 -0.5 -92t35 -75.5t64.5 -51t88 -18.5q48 0 96.5 26t89 63t68 77.5t33.5 70.5l51 237h-158l33 158h316l-167 -790h-158zM474 1817l79 79l158 -158l158 158l79 -79l-237 -237z" />
    <glyph glyph-name="gcaron" unicode="&#x1e7;" 
d="M90 -316h237q49 0 96 18.5t86 51t67 75.5t39 92l43 208q-43 -63 -112 -96t-151 -33q-83 0 -148 31t-107 84.5t-58 125.5t1 154l68 316q17 82 63 154t111 125.5t144 84.5t161 31q43 0 78 -12t61 -31t42 -42t19 -45l118 130h77l-252 -1185q-18 -82 -64 -154t-111 -125.5
t-143.5 -84.5t-160.5 -31h-237zM241 395q-10 -49 -0.5 -92t35 -75.5t64.5 -51t88 -18.5q40 0 77.5 18t70 45.5t60 61t47 64.5t30 55t10.5 33l42 236q14 51 9.5 100.5t-26 89t-60 63.5t-92.5 24q-49 0 -96 -19t-86 -51t-67 -75t-38 -92zM474 1501l79 79l158 -158l158 158
l79 -79l-237 -237z" />
    <glyph glyph-name="uni01E8" unicode="&#x1e8;" 
d="M319 761l595 661h178l-625 -711l323 -711h-180l-317 638l-135 -638h-158l302 1422h158zM474 1817l79 79l158 -158l158 158l79 -79l-237 -237z" />
    <glyph glyph-name="uni01E9" unicode="&#x1e9;" 
d="M292 632h38l501 474h194l-571 -553l336 -553h-194l-300 474h-38l-100 -474h-158l302 1422h158zM474 1501l79 79l158 -158l158 158l79 -79l-237 -237z" />
    <glyph glyph-name="uni01F8" unicode="&#x1f8;" 
d="M0 0l302 1422h158l250 -1052l224 1052h158l-302 -1422h-158l-251 1052l-223 -1052h-158zM474.226 1738l34.2266 158l439.76 -237l-35.2637 -158z" />
    <glyph glyph-name="uni01F9" unicode="&#x1f9;" 
d="M596 948q-33 0 -66 -14t-64 -38t-59.5 -55t-51.5 -65t-39.5 -69t-24.5 -66l-133 -641h-158l235 1106h81l40 -160q19 33 48.5 62t65.5 50.5t77 34.5t83 13q82 0 147 -31t107 -84.5t58 -125.5t-1 -154l-151 -711h-158l151 711q10 49 0.5 92t-35 75.5t-64.5 51t-88 18.5z
M474.226 1422l34.2266 158l439.76 -237l-35.2637 -158z" />
    <glyph glyph-name="AEacute" unicode="&#x1fc;" 
d="M238.012 1106q12.1543 59 51.6543 116t94.1914 101.5q54.6924 44.5 118.5 71.5t123.563 27h480.075l-34.4355 -158h-320.05l-102.295 -474h160.025l-33.4229 -158h-160.025l-102.295 -474h320.051l-33.4229 -158h-480.075l135.717 632h-160.025l-135.717 -632h-160.025z
M489.19 790l102.295 474q-45.5771 0 -80.0127 -18.5t-58.7432 -44t-37.9805 -52.5t-16.7119 -43l-68.8711 -316h160.024zM553 1580l-79 79l395 237l79 -79z" />
    <glyph glyph-name="aeacute" unicode="&#x1fd;" 
d="M237 0q-59 0 -98 27t-59 71.5t-23 101.5t10 116q12 59 39 116t66 101.5t89.5 71.5t109.5 27h79q25 118 25 182.5t-16 94t-43 34.5t-57 5l34 158q16 0 39.5 -1t50 -5.5t54.5 -15t51 -29.5q28 23 59.5 37t61.5 14h79q59 0 97.5 -27t58.5 -71.5t23 -101.5t-9.5 -116
t-39.5 -116t-66 -101.5t-89.5 -71.5t-109.5 -27h-79q-17 -79 -25 -133t-10 -89t1 -54.5t10.5 -28t16.5 -10t19 -1.5q18 0 35.5 13.5t32.5 36t26.5 50.5t18.5 58h158q-19 -89 -47 -149.5t-65.5 -97.5t-85 -53t-106.5 -16h-316zM337 474q-17 0 -34 -13.5t-32.5 -36
t-27.5 -50.5t-18 -58q-7 -30 -7 -58t6 -50.5t17.5 -36t28.5 -13.5h79l67 316h-79zM687 632q17 0 34.5 13.5t32.5 36t27 50.5t18 58q7 30 7 58t-6 50.5t-17.5 36t-28.5 13.5h-79l-67 -316h79zM553 1264l-79 79l395 237l79 -79z" />
    <glyph glyph-name="Oslashacute" unicode="&#x1fe;" 
d="M553 1580l-79 79l395 237l79 -79zM184.489 0h-181.331q1.96094 6.42871 4.90137 15.4287t14.2119 30.2139q11.2725 21.2139 33.8164 60.4277q22.543 39.2148 61.75 104.785q-23.5244 63 -30.875 138.214q-7.35156 75.2139 5.39062 158.784l66.6514 406.283
q16.6631 105.428 62.2402 197.999q45.5771 92.5703 108.798 161.355t140.653 108.643q77.4336 39.8564 157.807 39.8564q50.9688 0 94.5859 -16.7139t80.8633 -46.2852l38.2266 62.999h181.33q-0.979492 -6.42871 -4.90039 -16.0713t-15.6826 -30.8564
q-11.7617 -21.2148 -33.8154 -59.7861q-22.0537 -38.5703 -61.2607 -104.142q23.5244 -63 30.875 -138.214q7.35156 -75.2139 -5.39062 -158.784l-66.6514 -406.283q-16.6631 -105.428 -62.2402 -197.998q-45.5771 -92.5713 -108.798 -161.356t-140.164 -108.643
q-76.9424 -39.8564 -157.315 -39.8564q-50.9688 0 -95.5664 16.7139q-44.5977 16.7148 -80.8633 46.2861zM778.468 914.137q2.94043 21.8574 3.9209 43.7139q0.980469 21.8574 0 42.4287l-455.776 -761.138q44.1074 -36 103.897 -36q48.0283 0 94.0957 23.7852
q46.0684 23.7861 84.7842 65.5713q38.7168 41.7852 65.6709 97.0703q26.9551 55.2861 36.7568 118.285zM247.22 507.854q-7.8418 -48.8564 -3.9209 -87.4277l454.796 762.424q-21.5635 16.7139 -47.5381 26.3564t-55.3789 9.64258q-48.0283 0 -94.0957 -23.7852
q-46.0684 -23.7861 -84.7842 -65.5713q-38.7168 -41.7852 -65.6709 -97.0703q-26.9551 -55.2852 -36.7568 -118.285z" />
    <glyph glyph-name="oslashacute" unicode="&#x1ff;" 
d="M553 1264l-79 79l395 237l79 -79zM177 0h-185q2 5 5 12t14.5 23.5t34.5 47t63 81.5q-24 49 -31.5 107.5t5.5 123.5l68 316q17 82 63.5 154t111 125.5t143.5 84.5t161 31q52 0 96.5 -13t82.5 -36l39 49h185q-1 -5 -5 -12.5t-16 -24t-34.5 -46.5t-62.5 -81
q24 -49 31.5 -107.5t-5.5 -123.5l-68 -316q-17 -82 -63.5 -154t-111 -125.5t-143 -84.5t-160.5 -31q-52 0 -97.5 13t-82.5 36zM783 711q3 17 4 34t0 33l-465 -592q45 -28 106 -28q49 0 96 18.5t86.5 51t67 75.5t37.5 92zM241 395q-8 -38 -4 -68l464 593q-22 13 -48.5 20.5
t-56.5 7.5q-49 0 -96 -18.5t-86.5 -51t-67 -75.5t-37.5 -92z" />
    <glyph glyph-name="Scommaaccent" unicode="&#x218;" 
d="M376 1027q-11 -49 -1.5 -92t35 -75.5t64.5 -51t88 -18.5q82 0 147.5 -31t108 -84.5t58 -125.5t-2.5 -154q-17 -82 -63 -154t-111 -125.5t-143.5 -84.5t-160.5 -31h-395l33 158h395q49 0 96 18.5t86 51t67 75.5t38 92q11 49 1.5 92t-35 75.5t-64.5 51t-88 18.5
q-82 0 -147.5 31t-108 84.5t-58 125.5t2.5 154q17 82 63 154t111.5 125.5t144 84.5t160.5 31h395l-34 -158h-395q-49 0 -96 -19t-86 -51t-67 -75t-38 -92zM327 -631q-33 0 -51 23t-11 56t35 56t61 23q30 0 48 10.5t30 30.5t19 49.5t16 67.5q-33 0 -59 12.5t-43 34t-23.5 50
t0.5 61.5t25.5 61.5t44.5 50t57.5 34t64.5 12.5t58.5 -12.5t42.5 -34t23.5 -50t-0.5 -61.5l-33 -158q-13 -59 -40 -116t-66 -101.5t-89.5 -71.5t-109.5 -27z" />
    <glyph glyph-name="scommaaccent" unicode="&#x219;" 
d="M1025 1106l-34 -158h-395q-59 0 -106.5 -13.5t-81.5 -36t-55 -50.5t-28 -58q-6 -30 3 -58t34 -50.5t66.5 -36t100.5 -13.5q39 0 82.5 -7t84 -22t75.5 -39.5t58 -59.5t32 -81t-4 -105q-13 -60 -53.5 -117t-101.5 -102t-139.5 -72t-167.5 -27h-395l33 158h395
q59 0 106.5 13.5t81.5 36t55.5 51.5t27.5 59q6 29 -3 57t-33.5 50t-66.5 35.5t-101 13.5q-39 0 -82.5 7t-84 22.5t-75.5 40t-58 59.5t-31.5 81.5t3.5 105.5q13 59 53.5 116t101.5 101.5t140 71.5t168 27h395zM327.962 -631q-32.8955 0 -50.8379 23t-10.9648 56t34.8887 56
t60.8066 23q29.9043 0 47.8477 10.5q17.9424 10.5 29.9043 30.5t18.9404 49.5q6.97754 29.5 15.9492 67.5q-32.8955 0 -58.8135 12.5q-25.917 12.5 -42.8633 34t-23.4258 50t0.499023 61.5q6.97754 33 25.4189 61.5t44.3584 50q25.918 21.5 57.3174 34
q31.4004 12.5 64.2959 12.5q32.8945 0 58.3145 -12.5q25.4189 -12.5 42.3652 -34q16.9453 -21.5 23.4248 -50t-0.498047 -61.5l-32.8955 -158q-12.959 -59 -39.873 -116t-65.791 -101.5q-38.876 -44.5 -89.2158 -71.5q-50.3389 -27 -109.152 -27z" />
    <glyph glyph-name="uni021A" unicode="&#x21a;" 
d="M584 1264h-316l34 158h790l-34 -158h-316l-268 -1264h-158zM327 -631q-33 0 -51 23t-11 56t35 56t61 23q30 0 48 10.5t30 30.5t19 49.5t16 67.5q-33 0 -59 12.5t-43 34t-23.5 50t0.5 61.5t25.5 61.5t44.5 50t57.5 34t64.5 12.5t58.5 -12.5t42.5 -34t23.5 -50t-0.5 -61.5
l-33 -158q-13 -59 -40 -116t-66 -101.5t-89.5 -71.5t-109.5 -27z" />
    <glyph glyph-name="uni021B" unicode="&#x21b;" 
d="M235 1106h158l67 316h158l-67 -316h316l-34 -158h-316l-118 -553q-10 -49 -0.5 -92t35 -75.5t64.5 -51t88 -18.5h237l-33 -158h-237q-82 0 -147.5 31t-108 84.5t-58 125.5t1.5 154l118 553h-158zM485 -631q-33 0 -51 23t-11 56t35 56t61 23q30 0 48 10.5t30 30.5t19 49.5
t16 67.5q-33 0 -59 12.5t-43 34t-23.5 50t0.5 61.5t25.5 61.5t44.5 50t57.5 34t64.5 12.5t58.5 -12.5t42.5 -34t23.5 -50t-0.5 -61.5l-33 -158q-13 -59 -40 -116t-66 -101.5t-89.5 -71.5t-109.5 -27z" />
    <glyph glyph-name="uni0226" unicode="&#x226;" 
d="M158 0l218 474h395l19 -474h158l-93 1422h-158l-697 -1422h158zM725 1185l41 -553h-316zM790 1659q0 33 23 56t56 23t56 -23t23 -56t-23 -56t-56 -23t-56 23t-23 56z" />
    <glyph glyph-name="uni0227" unicode="&#x227;" 
d="M316 0q45 0 94 22t93.5 56.5t79 76.5t49.5 82q-2 -40 3.5 -82t23 -76.5t48.5 -56.5t82 -22l32 158q-38 1 -52 22.5t-6 56.5h-1l184 869h-77l-98 -79q-51 42 -106 60.5t-114 18.5q-82 0 -160.5 -31t-143.5 -84.5t-110.5 -125.5t-61.5 -154l-68 -316q-17 -83 0 -155
t59.5 -125.5t107 -84t142.5 -30.5zM316 158q-48 0 -81.5 20t-53 53t-24 76t4.5 88l68 316q10 49 37.5 92t66.5 75.5t86.5 51t96.5 18.5t86.5 -18.5t61.5 -50.5t34 -75t5 -93q-6 -57 -25 -120t-47.5 -124.5t-65 -117.5t-77.5 -98.5t-85 -67.5t-88 -25zM632 1343q0 33 23 56
t56 23t56 -23t23 -56t-23 -56t-56 -23t-56 23t-23 56z" />
    <glyph glyph-name="uni0232" unicode="&#x232;" 
d="M416 472l-114 950h158l86 -711l388 711h158l-518 -948l-100 -474h-158zM316 1738l33 158h790l-33 -158h-790z" />
    <glyph glyph-name="uni0233" unicode="&#x233;" 
d="M241 395q-10 -49 -0.5 -92t35 -75.5t64.5 -51t88 -18.5q48 1 97 30.5t91 74.5t73.5 101t45.5 111l132 631h158l-252 -1185q-18 -82 -64 -154t-111 -125.5t-143.5 -84.5t-160.5 -31h-237l33 158h237q49 0 96 18.5t86 51t67 75.5t39 92l53 238q-15 -32 -42 -61t-63 -51
t-78.5 -34.5t-89.5 -12.5q-83 0 -148 31t-107 84.5t-58 125.5t1 154l152 711h158zM316 1422l33 158h790l-33 -158h-790z" />
    <glyph glyph-name="circumflex" unicode="&#x2c6;" 
d="M553 1580l237 -237l-79 -79l-158 158l-158 -158l-79 79z" />
    <glyph glyph-name="caron" unicode="&#x2c7;" 
d="M316 1501l79 79l158 -158l158 158l79 -79l-237 -237z" />
    <glyph glyph-name="breve" unicode="&#x2d8;" 
d="M553 1264q-59 0 -103.5 27t-74 71.5t-44.5 101.5t-15 116h158q0 -30 1 -58t8.5 -50.5t23.5 -36t46 -13.5t46 13.5t23.5 36t8.5 50.5t1 58h158q0 -59 -15 -116t-44.5 -101.5t-74 -71.5t-103.5 -27z" />
    <glyph glyph-name="dotaccent" unicode="&#x2d9;" 
d="M316 1343q0 33 23 56t56 23t56 -23t23 -56t-23 -56t-56 -23t-56 23t-23 56z" />
    <glyph glyph-name="ring" unicode="&#x2da;" 
d="M316 1501q0 49 18.5 92t51 75.5t75.5 51t92 18.5t92 -18.5t75.5 -51t51 -75.5t18.5 -92t-18.5 -92t-51 -75.5t-75.5 -51t-92 -18.5t-92 18.5t-75.5 51t-51 75.5t-18.5 92zM474 1501q0 -33 23 -56t56 -23t56 23t23 56t-23 56t-56 23t-56 -23t-23 -56z" />
    <glyph glyph-name="ogonek" unicode="&#x2db;" 
d="M474 0q0 -59 16 -102.5t53 -65.5t97.5 -21t149.5 31v-158q-118 -30 -207 -17.5t-148.5 57t-89 116t-29.5 160.5h158z" />
    <glyph glyph-name="tilde" unicode="&#x2dc;" 
d="M948 1501q-119 -237 -237 -237q-59 0 -94.5 11.5t-57.5 29.5t-35.5 38t-29 38t-38 29.5t-61.5 11.5q-30 0 -58 -13.5t-50.5 -36t-36 -50.5t-13.5 -58l-79 79q118 237 237 237q59 0 94.5 -11.5t57.5 -29.5t35.5 -38t29 -38t37.5 -29.5t62 -11.5q30 0 58 13.5t50.5 36
t36 50.5t13.5 58z" />
    <glyph glyph-name="hungarumlaut" unicode="&#x2dd;" 
d="M619.158 1264l-65.8311 79l329.158 237l65.832 -79zM225.158 1264l-65.8311 79l329.158 237l65.832 -79z" />
    <glyph glyph-name="uni037E" unicode="&#x37e;" 
d="M325 790q7 33 25.5 61.5t45 50t58 34t63.5 12.5q33 0 59 -12.5t42.5 -34t23 -50t-0.5 -61.5t-25.5 -61.5t-44.5 -50t-57 -34t-64 -12.5t-59 12.5t-43 34t-23.5 50t0.5 61.5zM169 -316q-33 0 -51 23t-11 56t35 56t61 23q30 0 48.5 10.5t29.5 30.5t18.5 49.5t16.5 67.5
q-33 0 -59 12.5t-43 34t-23.5 50t0.5 61.5t25.5 61.5t44.5 50t57.5 34t64.5 12.5q32 0 58 -12.5t43 -34t23.5 -50t-0.5 -61.5l-33 -158q-13 -59 -40 -116t-66 -101.5t-89 -71.5t-110 -27z" />
    <glyph glyph-name="Alpha" unicode="&#x391;" 
d="M158 0l218 474h395l19 -474h158l-93 1422h-158l-697 -1422h158zM725 1185l41 -553h-316z" />
    <glyph glyph-name="Beta" unicode="&#x392;" 
d="M302 1422h395q82 0 147.5 -31t107.5 -84.5t57.5 -125.5t-1.5 -154q-21 -98 -82 -180t-144 -136q60 -54 86 -136.5t5 -179.5q-17 -82 -63.5 -154t-111 -125.5t-143 -84.5t-160.5 -31h-395zM562 790q49 0 96 18.5t86.5 51t67 75.5t38.5 92q10 49 0.5 92t-35 75.5t-64.5 51
t-88 18.5h-237l-101 -474h237zM428 158q49 0 96 18.5t86.5 51t67 75.5t37.5 92q11 49 1.5 92t-35 75.5t-64.5 51t-88 18.5h-237l-101 -474h237z" />
    <glyph glyph-name="Gamma" unicode="&#x393;" 
d="M302 1422h790l-34 -158h-632l-268 -1264h-158z" />
    <glyph glyph-name="uni0394" unicode="&#x394;" 
d="M790 0h-790l33 158l585 1264h158l47 -1264zM152 158h486l-22 995z" />
    <glyph glyph-name="Epsilon" unicode="&#x395;" 
d="M302 1422h790l-34 -158h-632l-101 -474h474l-33 -158h-474l-101 -474h632l-33 -158h-790z" />
    <glyph glyph-name="Zeta" unicode="&#x396;" 
d="M33 158l844 1106h-609l34 158h790l-34 -158l-832 -1106h597l-33 -158h-790z" />
    <glyph glyph-name="Eta" unicode="&#x397;" 
d="M302 1422h158l-135 -632h474l135 632h158l-302 -1422h-158l134 632h-474l-134 -632h-158z" />
    <glyph glyph-name="Theta" unicode="&#x398;" 
d="M218 1027q17 82 63.5 154t111.5 125.5t143.5 84.5t160.5 31t147.5 -31t107.5 -84.5t57.5 -125.5t-1.5 -154l-135 -632q-17 -82 -63.5 -154t-111 -125.5t-143 -84.5t-160.5 -31t-147.5 31t-108 84.5t-58 125.5t1.5 154zM663 1264q-49 0 -96 -18.5t-86.5 -51t-67 -75.5
t-37.5 -92l-135 -632q-10 -49 -0.5 -92t35 -75.5t64.5 -51t88 -18.5t96 18.5t86.5 51t67 75.5t37.5 92l135 632q10 49 0.5 92t-35 75.5t-64.5 51t-88 18.5zM483 790h158l-33 -158h-158z" />
    <glyph glyph-name="Iota" unicode="&#x399;" 
d="M33 158h316l235 1106h-316l34 158h790l-34 -158h-316l-235 -1106h316l-33 -158h-790z" />
    <glyph glyph-name="Kappa" unicode="&#x39a;" 
d="M317.807 761l589.045 661h176.218l-618.744 -711l319.767 -711h-178.197l-313.827 638l-133.649 -638h-156.418l298.977 1422h156.419z" />
    <glyph glyph-name="Lambda" unicode="&#x39b;" 
d="M158 0l618 1422h158l13 -1422h-158l-16 1040l-458 -1040h-157z" />
    <glyph glyph-name="Mu" unicode="&#x39c;" 
d="M866.889 1106l-324.583 -414l-148.81 414l-234.698 -1106h-157.798l301.613 1422h157.797l135.826 -474l337.566 474h157.798l-301.613 -1422h-157.798z" />
    <glyph glyph-name="Nu" unicode="&#x39d;" 
d="M0 0l302 1422h158l250 -1052l224 1052h158l-302 -1422h-158l-251 1052l-223 -1052h-158z" />
    <glyph glyph-name="Xi" unicode="&#x39e;" 
d="M302 1422h790l-34 -158h-790zM33 158h790l-33 -158h-790zM325 790h474l-33 -158h-474z" />
    <glyph glyph-name="Omicron" unicode="&#x39f;" 
d="M218 1027q17 82 63 154t111.5 125.5t144 84.5t160.5 31t147.5 -31t107.5 -84.5t57.5 -125.5t-1.5 -154l-135 -632q-17 -82 -63 -154t-111 -125.5t-143.5 -84.5t-160.5 -31q-83 0 -148 31t-107 84.5t-58 125.5t1 154zM663 1264q-49 0 -96 -19t-86 -51t-67 -75t-38 -92
l-135 -632q-10 -49 -0.5 -92t35 -75.5t64.5 -51t88 -18.5t96 18.5t86 51t67 75.5t38 92l135 632q10 49 0.5 92t-35 75.5t-64.5 51t-88 18.5z" />
    <glyph glyph-name="Pi" unicode="&#x3a0;" 
d="M302 1422h790l-302 -1422h-158l268 1264h-474l-268 -1264h-158z" />
    <glyph glyph-name="Rho" unicode="&#x3a1;" 
d="M158 0h-158l302 1422h395q82 0 147.5 -31t107.5 -84.5t57.5 -125.5t-1.5 -154q-18 -82 -64 -154t-111 -125.5t-143.5 -84.5t-160.5 -31h-237zM562 790q53 0 102 23t88 58t65 76.5t33 79.5q10 49 0.5 92t-35 75.5t-64.5 51t-88 18.5h-237l-101 -474h237z" />
    <glyph glyph-name="Sigma" unicode="&#x3a3;" 
d="M1058 1264h-632l199 -553l-434 -553h632l-33 -158h-790l33 158l434 553l-199 553l34 158h790z" />
    <glyph glyph-name="Tau" unicode="&#x3a4;" 
d="M461.904 1264h-302.962l32.5967 158h757.405l-32.5967 -158h-302.963l-256.941 -1264h-151.481z" />
    <glyph glyph-name="Upsilon" unicode="&#x3a5;" 
d="M273 472l-114 950h158l86 -711l388 711h158l-518 -948l-100 -474h-158z" />
    <glyph glyph-name="Phi" unicode="&#x3a6;" 
d="M383 316h-79q-82 0 -147.5 31t-107.5 84.5t-57.5 125.5t2.5 154q16 82 62.5 154t111 125.5t143.5 84.5t161 31h79l67 316h158l-67 -316h79q82 0 147 -31t107.5 -84.5t58 -125.5t-1.5 -154q-18 -82 -64 -154t-111 -125.5t-143.5 -84.5t-160.5 -31h-79l-67 -316h-158z
M675 948l-101 -474h79q49 0 96 18.5t86.5 51t67 75.5t38.5 92q10 49 0.5 92t-35 75.5t-64.5 51t-88 18.5h-79zM151 711q-11 -49 -1.5 -92t35 -75.5t64.5 -51t88 -18.5h79l101 474h-79q-49 0 -96 -18.5t-86.5 -51t-67 -75.5t-37.5 -92z" />
    <glyph glyph-name="Chi" unicode="&#x3a7;" 
d="M586.531 904l339.149 518h165.584l-459.847 -711l158.603 -711h-165.585l-120.697 517l-338.151 -517h-164.587l458.849 711l-158.602 711h165.584z" />
    <glyph glyph-name="uni03A9" unicode="&#x3a9;" 
d="M545 169q72 19 141 68.5t126 121t100 161.5t65 191q24 114 14.5 215t-47 176t-100.5 118.5t-145 43.5t-163 -43.5t-150.5 -118.5t-122 -176t-76.5 -215q-22 -101 -17 -191t32 -161.5t74 -121t111 -68.5l-35 -169h-474l34 158h205q-37 49 -61.5 110t-36.5 131.5t-9.5 149
t20.5 162.5q30 147 101 276.5t166.5 226t208.5 152.5t227 56t203 -56t143.5 -152.5t70.5 -226t-15 -276.5q-18 -84 -49.5 -162.5t-73.5 -149t-93 -131.5t-108 -110h206l-33 -158h-474z" />
    <glyph glyph-name="Iotadieresis" unicode="&#x3aa;" 
d="M33 158h316l235 1106h-316l34 158h790l-34 -158h-316l-235 -1106h316l-33 -158h-790zM474 1659q0 33 23 56t56 23t56 -23t23 -56t-23 -56t-56 -23t-56 23t-23 56zM790 1659q0 33 23 56t56 23t56 -23t23 -56t-23 -56t-56 -23t-56 23t-23 56z" />
    <glyph glyph-name="Upsilondieresis" unicode="&#x3ab;" 
d="M273 472l-114 950h158l86 -711l388 711h158l-518 -948l-100 -474h-158zM316 1659q0 33 23 56t56 23t56 -23t23 -56t-23 -56t-56 -23t-56 23t-23 56zM632 1659q0 33 23 56t56 23t56 -23t23 -56t-23 -56t-56 -23t-56 23t-23 56z" />
    <glyph glyph-name="alphatonos" unicode="&#x3ac;" 
d="M684 237q-85 -119 -180 -178t-186 -59q-82 0 -147.5 31t-107.5 84.5t-57.5 125.5t1.5 154l68 316q16 82 62.5 154t111 125.5t143.5 84.5t161 31q94 0 162.5 -59t102.5 -178l130 237h158q-371 -553 -235 -1106h-158zM164 395q-10 -49 -0.5 -92t35 -75.5t64.5 -51t88 -18.5
q66 0 123 34t101 89.5t75.5 126.5t47.5 145t14.5 145t-22 126.5t-63 89.5t-108.5 34q-49 0 -96 -18.5t-86.5 -51t-67 -75.5t-37.5 -92zM553 1264l-79 79l395 237l79 -79z" />
    <glyph glyph-name="epsilontonos" unicode="&#x3ad;" 
d="M809.443 237q-29.2334 -51 -75.6943 -94.5t-106.495 -75t-128.42 -49.5q-68.3867 -18 -140.428 -18q-85.6133 0 -155.565 25q-69.9531 25 -116.414 68t-65.7764 100.5q-19.3145 57.5 -4.69824 122.5q7.30859 35 28.1904 68.5q20.8809 33.5 50.6367 63.5t65.2549 56.5
q35.498 26.5 73.084 48.5q-27.1455 22 -51.1592 48.5t-40.1963 56.5t-22.4473 63.5t1.04395 68.5q14.6172 65 60.0342 122.5t110.671 100.5t146.169 68t166.529 25q72.04 0 132.597 -18q60.5557 -18 106.494 -49.5q45.9395 -31.5 73.085 -75t33.4102 -94.5l-169.139 -79
q7.30859 33 -5.2207 61.5q-12.5283 28.5 -41.7627 50q-29.2334 21.5 -71.5186 34q-42.2842 12.5 -93.4443 12.5q-51.1592 0 -98.6641 -12.5t-86.1357 -34q-38.6299 -21.5 -64.7314 -50t-33.4102 -61.5t3.13184 -61.5t44.373 -50q33.9316 -21.5 94.4883 -34
q60.5557 -12.5 153.478 -12.5l-35.498 -158q-92.9219 0 -158.177 -11q-65.2539 -11 -108.583 -31.5q-43.3281 -20.5 -66.2979 -49.5t-31.3223 -66t4.17676 -66q12.5283 -29 42.2842 -49.5t72.041 -31.5q42.2842 -11 93.4443 -11q48.0264 0 92.9219 12
q44.8945 12 82.4805 33.5q37.5869 21.5 65.2549 50.5t40.1963 62zM395 1264l-79 79l395 237l79 -79z" />
    <glyph glyph-name="etatonos" unicode="&#x3ae;" 
d="M596 948q-48 0 -94.5 -18t-85 -48.5t-66 -72t-39.5 -88.5l-153 -721h-158l235 1106h158l-17 -80q58 38 122.5 59t131.5 21q82 0 147 -31t107.5 -84.5t58 -125.5t-1.5 -154l-219 -1027h-158l219 1027q10 49 0.5 92t-35 75.5t-64.5 51t-88 18.5zM395 1264l-79 79l395 237
l79 -79z" />
    <glyph glyph-name="alpha" unicode="&#x3b1;" 
d="M684 237q-85 -119 -180 -178t-186 -59q-82 0 -147.5 31t-107.5 84.5t-57.5 125.5t1.5 154l68 316q16 82 62.5 154t111 125.5t143.5 84.5t161 31q94 0 162.5 -59t102.5 -178l130 237h158q-371 -553 -235 -1106h-158zM164 395q-10 -49 -0.5 -92t35 -75.5t64.5 -51t88 -18.5
q66 0 123 34t101 89.5t75.5 126.5t47.5 145t14.5 145t-22 126.5t-63 89.5t-108.5 34q-49 0 -96 -18.5t-86.5 -51t-67 -75.5t-37.5 -92z" />
    <glyph glyph-name="beta" unicode="&#x3b2;" 
d="M252 1027q21 102 71.5 176.5t117 123t142 72t148.5 23.5q82 0 147.5 -31t107.5 -84.5t57.5 -125.5t-1.5 -154q-21 -98 -82 -180t-144 -136q60 -54 86 -136.5t5 -179.5q-17 -82 -63.5 -154t-111 -125.5t-143 -84.5t-160.5 -31q-67 0 -123 21t-98 58l-50 -237h-157z
M462 158q49 0 96 18.5t86.5 51t67 75.5t37.5 92q11 49 1.5 92t-35 75.5t-64.5 51t-88 18.5h-79l33 158h79q49 0 96 18.5t86.5 51t67 75.5t38.5 92q10 49 0.5 92t-35 75.5t-64.5 51t-88 18.5q-43 0 -88.5 -15t-85.5 -44.5t-70.5 -74t-42.5 -103.5l-137 -642q-12 -56 -1.5 -98
t36.5 -71t66 -43.5t88 -14.5z" />
    <glyph glyph-name="delta" unicode="&#x3b4;" 
d="M409 1580h632l-33 -158h-395l343 -430q45 -56 61 -133q6 -51 5 -84t-7 -64l-68 -316q-17 -82 -73 -154t-134 -125.5t-169.5 -84.5t-180.5 -31t-167.5 31t-134 84.5t-80.5 125.5t-8 154l68 316q16 82 72 154t134 125.5t170 84.5t181 31q2 0 4 -0.5t4 -0.5l-257 317z
M157 395q-10 -49 8 -92t55.5 -75.5t90.5 -51t112 -18.5t120 18.5t112.5 51t87.5 75.5t46 92l68 316q-5 71 -26 117t-54.5 72.5t-80.5 37t-105 10.5q-59 0 -120 -18.5t-112.5 -51t-87.5 -75.5t-46 -92z" />
    <glyph glyph-name="epsilon" unicode="&#x3b5;" 
d="M827 237q-28 -51 -72.5 -94.5t-102 -75t-123 -49.5t-134.5 -18q-82 0 -149 25t-111.5 68t-63 100.5t-4.5 122.5q7 35 27 68.5t48.5 63.5t62.5 56.5t70 48.5q-26 22 -49 48.5t-38.5 56.5t-21.5 63.5t1 68.5q14 65 57.5 122.5t106 100.5t140 68t159.5 25q69 0 127 -18
t102 -49.5t70 -75t32 -94.5l-162 -79q7 33 -5 61.5t-40 50t-68.5 34t-89.5 12.5t-94.5 -12.5t-82.5 -34t-62 -50t-32 -61.5t3 -61.5t42.5 -50t90.5 -34t147 -12.5l-34 -158q-89 0 -151.5 -11t-104 -31.5t-63.5 -49.5t-30 -66t4 -66t40.5 -49.5t69 -31.5t89.5 -11q46 0 89 12
t79 33.5t62.5 50.5t38.5 62z" />
    <glyph glyph-name="eta" unicode="&#x3b7;" 
d="M596 948q-48 0 -94.5 -18t-85 -48.5t-66 -72t-39.5 -88.5l-153 -721h-158l235 1106h158l-17 -80q58 38 122.5 59t131.5 21q82 0 147 -31t107.5 -84.5t58 -125.5t-1.5 -154l-219 -1027h-158l219 1027q10 49 0.5 92t-35 75.5t-64.5 51t-88 18.5z" />
    <glyph glyph-name="omicron" unicode="&#x3bf;" 
d="M151 711q17 82 63.5 154t111 125.5t143.5 84.5t161 31t147 -31t107.5 -84.5t58 -125.5t-1.5 -154l-68 -316q-17 -82 -63.5 -154t-111 -125.5t-143 -84.5t-160.5 -31t-147.5 31t-108 84.5t-58 125.5t1.5 154zM241 395q-10 -49 -0.5 -92t35 -75.5t64.5 -51t88 -18.5
t96 18.5t86.5 51t67 75.5t37.5 92l68 316q10 49 0.5 92t-35 75.5t-64.5 51t-88 18.5t-96 -18.5t-86.5 -51t-67 -75.5t-37.5 -92z" />
    <glyph glyph-name="pi" unicode="&#x3c0;" 
d="M675 948h-316l-201 -948h-158l201 948h-158l34 158h948l-34 -158h-158l-134 -632q-13 -59 -6 -91t26 -47t46.5 -17.5t57.5 -2.5l-33 -158q-89 0 -144 26t-84.5 63t-37 77.5t-0.5 70.5z" />
    <glyph glyph-name="sigma" unicode="&#x3c3;" 
d="M834 948q27 -50 35.5 -110t-5.5 -127l-68 -316q-17 -82 -63.5 -154t-111 -125.5t-143 -84.5t-160.5 -31t-147.5 31t-107.5 84.5t-57.5 125.5t1.5 154l68 316q16 82 62.5 154t111 125.5t143.5 84.5t161 31h553l-34 -158h-238zM519 948q-49 0 -96 -18.5t-86.5 -51
t-67 -75.5t-37.5 -92l-68 -316q-10 -49 -0.5 -92t35 -75.5t64.5 -51t88 -18.5t96 18.5t86.5 51t67 75.5t37.5 92l68 316q10 48 1 90t-33 74t-61 51.5t-84 21.5h-10z" />
    <glyph glyph-name="tau" unicode="&#x3c4;" 
d="M632 0q-119 0 -202 27t-133 71.5t-67.5 101.5t-4.5 116l134 632h-316l34 158h948l-34 -158h-474l-134 -632q-7 -30 3 -58t42.5 -50.5t90 -36t146.5 -13.5z" />
    <glyph glyph-name="phi" unicode="&#x3c6;" 
d="M500 869q16 77 61.5 129t103.5 78t120 26t109.5 -26t72 -77.5t7.5 -129.5l-101 -474q-15 -72 -52.5 -136t-91 -115.5t-119 -87t-135.5 -48.5l-69 -324h-158l69 324q-65 13 -115 48.5t-81.5 87t-42 115.5t4.5 136l152 711h158l-152 -711q-8 -39 -4 -74t19 -64.5t39 -51.5
t57 -34zM794 763q19 89 4 133.5t-45 44.5t-64 -44.5t-53 -133.5l-126 -592q36 12 70 34t61 51.5t46.5 64.5t27.5 74z" />
    <glyph glyph-name="uni1E02" unicode="&#x1e02;" 
d="M302 1422h395q82 0 147.5 -31t107.5 -84.5t57.5 -125.5t-1.5 -154q-21 -98 -82 -180t-144 -136q60 -54 86 -136.5t5 -179.5q-17 -82 -63.5 -154t-111 -125.5t-143 -84.5t-160.5 -31h-395zM562 790q49 0 96 18.5t86.5 51t67 75.5t38.5 92q10 49 0.5 92t-35 75.5t-64.5 51
t-88 18.5h-237l-101 -474h237zM428 158q49 0 96 18.5t86.5 51t67 75.5t37.5 92q11 49 1.5 92t-35 75.5t-64.5 51t-88 18.5h-237l-101 -474h237zM632 1659q0 33 23 56t56 23t56 -23t23 -56t-23 -56t-56 -23t-56 23t-23 56z" />
    <glyph glyph-name="uni1E03" unicode="&#x1e03;" 
d="M302 1422h157l-104 -468q22 27 52.5 54.5t66 49t75 35t80.5 13.5q82 0 147 -31t107 -84.5t58 -125.5t-1 -154l-68 -316q-17 -82 -63 -154t-111 -125.5t-143.5 -84.5t-159.5 -31q-63 0 -120 19.5t-102 58.5l-94 -78h-79zM240 395q-10 -49 -0.5 -92t35 -75.5t64.5 -51
t88 -18.5t96 18.5t86 51t67 75.5t38 92l68 316q10 49 0.5 92t-35 75.5t-64.5 51t-88 18.5q-37 0 -75.5 -15t-75.5 -45.5t-71.5 -77t-62.5 -109.5zM632 1343q0 33 23 56t56 23t56 -23t23 -56t-23 -56t-56 -23t-56 23t-23 56z" />
    <glyph glyph-name="uni1E08" unicode="&#x1e08;" 
d="M665 1264q-51 0 -99 -18.5t-87 -51t-66.5 -75.5t-37.5 -92l-135 -632q-10 -49 -0.5 -92t34.5 -75.5t65 -51t91 -18.5q42 0 81.5 11.5t74.5 32.5t63.5 50t48.5 64h158q-29 -68 -76 -126t-107.5 -100t-130.5 -66t-145 -24q-84 0 -150 31t-109 84.5t-58 125.5t2 154l135 632
q17 82 63 154t111.5 125.5t144.5 84.5t163 31q75 0 135.5 -24t102 -66.5t64.5 -100.5t23 -125h-158q-5 34 -21.5 63t-42 50t-60.5 33t-77 12zM475 0q0 -81.2812 -29.5 -146.58t-89 -105.938q-59.5 -40.6406 -148.5 -52.0566t-207 15.9824v144.296
q89 -27.3975 149.5 -28.3105q60.5 -0.914062 97.5 19.1777q37 20.0928 53 59.8193q16 39.7275 16 93.6104h158zM553 1580l-79 79l395 237l79 -79z" />
    <glyph glyph-name="uni1E09" unicode="&#x1e09;" 
d="M241 395q-10 -49 2 -92t39.5 -75.5t69 -51t90.5 -18.5q39 0 76.5 11.5t71 32.5t61.5 50t48 64h158q-29 -68 -76.5 -125.5t-107.5 -100t-129 -66.5t-141 -24q-82 0 -148.5 31t-110.5 84.5t-61 125.5t0 154l68 316q17 82 65 154t114 125.5t146 84.5t162 31q72 0 130.5 -24
t100.5 -66.5t65.5 -100.5t22.5 -125h-158q-4 34 -20 63t-40.5 50t-57 33t-71.5 12q-49 0 -98.5 -18.5t-91 -51t-71.5 -75.5t-40 -92zM475 0q0 -81.2812 -29.5 -146.58t-89 -105.938q-59.5 -40.6406 -148.5 -52.0566t-207 15.9824v144.296q89 -27.3975 149.5 -28.3105
q60.5 -0.914062 97.5 19.1777q37 20.0928 53 59.8193q16 39.7275 16 93.6104h158zM553 1264l-79 79l395 237l79 -79z" />
    <glyph glyph-name="uni1E0A" unicode="&#x1e0a;" 
d="M302 1422h395q82 0 147.5 -31t107.5 -84.5t57.5 -125.5t-1.5 -154l-135 -632q-17 -82 -63.5 -154t-111 -125.5t-143 -84.5t-160.5 -31h-395zM428 158q49 0 96 18.5t86.5 51t67 75.5t37.5 92l135 632q10 49 0.5 92t-35 75.5t-64.5 51t-88 18.5h-237l-235 -1106h237z
M632 1659q0 33 23 56t56 23t56 -23t23 -56t-23 -56t-56 -23t-56 23t-23 56z" />
    <glyph glyph-name="uni1E0B" unicode="&#x1e0b;" 
d="M934 1422l-104 -475q-6 32 -27 61t-49 50.5t-61 34.5t-63 13q-82 0 -160.5 -31t-143 -84.5t-110 -125.5t-61.5 -154l-68 -316q-14 -84 2 -156t57 -125.5t105 -83.5t145 -30q45 0 88 14t79.5 38.5t65 58.5t43.5 74q-2 -40 10 -74t36.5 -58.5t62 -38.5t88.5 -14l31 158
q-38 1 -52 22.5t-6 56.5h-1l251 1185h-158zM395 158q-48 0 -81.5 20t-53 53t-24 76t4.5 88l68 316q10 49 37.5 92t66.5 75.5t86.5 51t96.5 18.5q47 0 81.5 -24.5t55.5 -64t29 -89t1 -99.5q-16 -119 -53 -213.5t-87.5 -161.5t-109.5 -102.5t-118 -35.5zM474 1343q0 33 23 56
t56 23t56 -23t23 -56t-23 -56t-56 -23t-56 23t-23 56z" />
    <glyph glyph-name="uni1E1E" unicode="&#x1e1e;" 
d="M302 1422h790l-34 -158h-632l-101 -474h474l-33 -158h-474l-134 -632h-158zM632 1659q0 33 23 56t56 23t56 -23t23 -56t-23 -56t-56 -23t-56 23t-23 56z" />
    <glyph glyph-name="uni1E1F" unicode="&#x1e1f;" 
d="M201 948h158l17 79q17 82 63.5 154t111.5 125.5t143.5 84.5t160.5 31h127l-34 -158h-127q-49 0 -96 -18.5t-86.5 -51t-67 -75.5t-37.5 -92l-17 -79h316l-34 -158h-316l-167 -790h-158l167 790h-158zM632 1659q0 33 23 56t56 23t56 -23t23 -56t-23 -56t-56 -23t-56 23
t-23 56z" />
    <glyph glyph-name="uni1E22" unicode="&#x1e22;" 
d="M302 1422h158l-135 -632h474l135 632h158l-302 -1422h-158l134 632h-474l-134 -632h-158zM632 1659q0 33 23 56t56 23t56 -23t23 -56t-23 -56t-56 -23t-56 23t-23 56z" />
    <glyph glyph-name="uni1E23" unicode="&#x1e23;" 
d="M783 711q10 49 0.5 92t-35 75.5t-64.5 51t-88 18.5q-33 0 -66 -14t-64 -38t-59.5 -55t-51.5 -65t-39.5 -69t-24.5 -66l-133 -641h-158l302 1422h158l-104 -476q26 35 58.5 64.5t68 50.5t73.5 33t74 12q82 0 147 -31t107 -84.5t58 -125.5t-1 -154l-151 -711h-158z
M632 1343q0 33 23 56t56 23t56 -23t23 -56t-23 -56t-56 -23t-56 23t-23 56z" />
    <glyph glyph-name="uni1E26" unicode="&#x1e26;" 
d="M302 1422h158l-135 -632h474l135 632h158l-302 -1422h-158l134 632h-474l-134 -632h-158zM474 1659q0 33 23 56t56 23t56 -23t23 -56t-23 -56t-56 -23t-56 23t-23 56zM790 1659q0 33 23 56t56 23t56 -23t23 -56t-23 -56t-56 -23t-56 23t-23 56z" />
    <glyph glyph-name="uni1E27" unicode="&#x1e27;" 
d="M783 711q10 49 0.5 92t-35 75.5t-64.5 51t-88 18.5q-33 0 -66 -14t-64 -38t-59.5 -55t-51.5 -65t-39.5 -69t-24.5 -66l-133 -641h-158l302 1422h158l-104 -476q26 35 58.5 64.5t68 50.5t73.5 33t74 12q82 0 147 -31t107 -84.5t58 -125.5t-1 -154l-151 -711h-158z
M632 1501q0 33 23 56t56 23t56 -23t23 -56t-23 -56t-56 -23t-56 23t-23 56zM948 1501q0 33 23 56t56 23t56 -23t23 -56t-23 -56t-56 -23t-56 23t-23 56z" />
    <glyph glyph-name="uni1E30" unicode="&#x1e30;" 
d="M319 761l595 661h178l-625 -711l323 -711h-180l-317 638l-135 -638h-158l302 1422h158zM553 1580l-79 79l395 237l79 -79z" />
    <glyph glyph-name="uni1E31" unicode="&#x1e31;" 
d="M292 632h38l501 474h194l-571 -553l336 -553h-194l-300 474h-38l-100 -474h-158l302 1422h158zM553 1264l-79 79l395 237l79 -79z" />
    <glyph glyph-name="uni1E3E" unicode="&#x1e3e;" 
d="M867 1106l-325 -414l-149 414l-235 -1106h-158l302 1422h158l136 -474l338 474h158l-302 -1422h-158zM553 1580l-79 79l395 237l79 -79z" />
    <glyph glyph-name="uni1E3F" unicode="&#x1e3f;" 
d="M500 869h-1q18 79 -61 79t-95 -79h-1l-184 -869h-158l235 1106h197q36 0 65.5 -12t50.5 -33t32.5 -50t11.5 -63h7q14 34 37.5 63t54 50t65.5 33t71 12q41 0 73.5 -15.5t53.5 -42t29 -62.5t0 -77l-193 -909h-158l184 869q16 79 -62 79q-80 0 -96 -79l-184 -869h-158z
M553 1264l-79 79l395 237l79 -79z" />
    <glyph glyph-name="uni1E40" unicode="&#x1e40;" 
d="M867 1106l-325 -414l-149 414l-235 -1106h-158l302 1422h158l136 -474l338 474h158l-302 -1422h-158zM632 1659q0 33 23 56t56 23t56 -23t23 -56t-23 -56t-56 -23t-56 23t-23 56z" />
    <glyph glyph-name="uni1E41" unicode="&#x1e41;" 
d="M500 869h-1q18 79 -61 79t-95 -79h-1l-184 -869h-158l235 1106h197q36 0 65.5 -12t50.5 -33t32.5 -50t11.5 -63h7q14 34 37.5 63t54 50t65.5 33t71 12q41 0 73.5 -15.5t53.5 -42t29 -62.5t0 -77l-193 -909h-158l184 869q16 79 -62 79q-80 0 -96 -79l-184 -869h-158z
M632 1343q0 33 23 56t56 23t56 -23t23 -56t-23 -56t-56 -23t-56 23t-23 56z" />
    <glyph glyph-name="uni1E44" unicode="&#x1e44;" 
d="M0 0l302 1422h158l250 -1052l224 1052h158l-302 -1422h-158l-251 1052l-223 -1052h-158zM632 1659q0 33 23 56t56 23t56 -23t23 -56t-23 -56t-56 -23t-56 23t-23 56z" />
    <glyph glyph-name="uni1E45" unicode="&#x1e45;" 
d="M596 948q-33 0 -66 -14t-64 -38t-59.5 -55t-51.5 -65t-39.5 -69t-24.5 -66l-133 -641h-158l235 1106h81l40 -160q19 33 48.5 62t65.5 50.5t77 34.5t83 13q82 0 147 -31t107 -84.5t58 -125.5t-1 -154l-151 -711h-158l151 711q10 49 0.5 92t-35 75.5t-64.5 51t-88 18.5z
M632 1343q0 33 23 56t56 23t56 -23t23 -56t-23 -56t-56 -23t-56 23t-23 56z" />
    <glyph glyph-name="uni1E54" unicode="&#x1e54;" 
d="M158 0h-158l302 1422h395q82 0 147.5 -31t107.5 -84.5t57.5 -125.5t-1.5 -154q-18 -82 -64 -154t-111 -125.5t-143.5 -84.5t-160.5 -31h-237zM562 790q53 0 102 23t88 58t65 76.5t33 79.5q10 49 0.5 92t-35 75.5t-64.5 51t-88 18.5h-237l-101 -474h237zM553 1580l-79 79
l395 237l79 -79z" />
    <glyph glyph-name="uni1E55" unicode="&#x1e55;" 
d="M235 1106h81l40 -160q11 18 36 45t61 52.5t81 44t96 18.5q82 0 147 -31t107 -84.5t58 -125.5t-1 -154l-68 -316q-17 -82 -63 -154t-111 -125.5t-143.5 -84.5t-160.5 -31q-46 0 -80 12.5t-58 34.5t-39 50.5t-24 61.5l-137 -633h-158zM596 948q-48 0 -97 -27.5t-92 -72
t-74.5 -101.5t-43.5 -116l-28 -156q-12 -59 -5.5 -116t28.5 -101.5t59 -72t85 -27.5q49 0 96 18.5t86 51t67 75.5t38 92l68 316q10 49 0.5 92t-35 75.5t-64.5 51t-88 18.5zM553 1264l-79 79l395 237l79 -79z" />
    <glyph glyph-name="uni1E56" unicode="&#x1e56;" 
d="M158 0h-158l302 1422h395q82 0 147.5 -31t107.5 -84.5t57.5 -125.5t-1.5 -154q-18 -82 -64 -154t-111 -125.5t-143.5 -84.5t-160.5 -31h-237zM562 790q53 0 102 23t88 58t65 76.5t33 79.5q10 49 0.5 92t-35 75.5t-64.5 51t-88 18.5h-237l-101 -474h237zM632 1659
q0 33 23 56t56 23t56 -23t23 -56t-23 -56t-56 -23t-56 23t-23 56z" />
    <glyph glyph-name="uni1E57" unicode="&#x1e57;" 
d="M235 1106h81l40 -160q11 18 36 45t61 52.5t81 44t96 18.5q82 0 147 -31t107 -84.5t58 -125.5t-1 -154l-68 -316q-17 -82 -63 -154t-111 -125.5t-143.5 -84.5t-160.5 -31q-46 0 -80 12.5t-58 34.5t-39 50.5t-24 61.5l-137 -633h-158zM596 948q-48 0 -97 -27.5t-92 -72
t-74.5 -101.5t-43.5 -116l-28 -156q-12 -59 -5.5 -116t28.5 -101.5t59 -72t85 -27.5q49 0 96 18.5t86 51t67 75.5t38 92l68 316q10 49 0.5 92t-35 75.5t-64.5 51t-88 18.5zM635 1343q0 33 23 56t56 23t56 -23t23 -56t-23 -56t-56 -23t-56 23t-23 56z" />
    <glyph glyph-name="uni1E60" unicode="&#x1e60;" 
d="M376 1027q-11 -49 -1.5 -92t35 -75.5t64.5 -51t88 -18.5q82 0 147.5 -31t108 -84.5t58 -125.5t-2.5 -154q-17 -82 -63 -154t-111 -125.5t-143.5 -84.5t-160.5 -31h-395l33 158h395q49 0 96 18.5t86 51t67 75.5t38 92q11 49 1.5 92t-35 75.5t-64.5 51t-88 18.5
q-82 0 -147.5 31t-108 84.5t-58 125.5t2.5 154q17 82 63 154t111.5 125.5t144 84.5t160.5 31h395l-34 -158h-395q-49 0 -96 -19t-86 -51t-67 -75t-38 -92zM632 1659q0 33 23 56t56 23t56 -23t23 -56t-23 -56t-56 -23t-56 23t-23 56z" />
    <glyph glyph-name="uni1E61" unicode="&#x1e61;" 
d="M1025 1106l-34 -158h-395q-59 0 -106.5 -13.5t-81.5 -36t-55 -50.5t-28 -58q-6 -30 3 -58t34 -50.5t66.5 -36t100.5 -13.5q39 0 82.5 -7t84 -22t75.5 -39.5t58 -59.5t32 -81t-4 -105q-13 -60 -53.5 -117t-101.5 -102t-139.5 -72t-167.5 -27h-395l33 158h395
q59 0 106.5 13.5t81.5 36t55.5 51.5t27.5 59q6 29 -3 57t-33.5 50t-66.5 35.5t-101 13.5q-39 0 -82.5 7t-84 22.5t-75.5 40t-58 59.5t-31.5 81.5t3.5 105.5q13 59 53.5 116t101.5 101.5t140 71.5t168 27h395zM632 1343q0 33 23 56t56 23t56 -23t23 -56t-23 -56t-56 -23
t-56 23t-23 56z" />
    <glyph glyph-name="uni1E6A" unicode="&#x1e6a;" 
d="M584 1264h-316l34 158h790l-34 -158h-316l-268 -1264h-158zM632 1659q0 33 23 56t56 23t56 -23t23 -56t-23 -56t-56 -23t-56 23t-23 56z" />
    <glyph glyph-name="uni1E6B" unicode="&#x1e6b;" 
d="M235 1106h158l67 316h158l-67 -316h316l-34 -158h-316l-118 -553q-10 -49 -0.5 -92t35 -75.5t64.5 -51t88 -18.5h237l-33 -158h-237q-82 0 -147.5 31t-108 84.5t-58 125.5t1.5 154l118 553h-158zM474 1659q0 33 23 56t56 23t56 -23t23 -56t-23 -56t-56 -23t-56 23t-23 56
z" />
    <glyph glyph-name="Wgrave" unicode="&#x1e80;" 
d="M934 1422h158l-302 -1422h-158l-137 474l-337 -474h-158l302 1422h158l-235 -1106l325 414l149 -414zM474.226 1738l34.2266 158l439.76 -237l-35.2637 -158z" />
    <glyph glyph-name="wgrave" unicode="&#x1e81;" 
d="M524 237q-17 -79 62 -79t96 79l185 869h158l-194 -909q-8 -41 -31.5 -77t-56 -62.5t-71.5 -42t-80 -15.5q-36 0 -66 12t-51 33t-32.5 50t-11.5 63h-7q-14 -34 -38 -63t-54 -50t-64.5 -33t-70.5 -12q-41 0 -74 15.5t-54 42t-28.5 62.5t0.5 77l194 909h158l-185 -869h1
q-18 -79 61 -79t95 79h1l84 395h158zM395.226 1422l34.2266 158l439.76 -237l-35.2637 -158z" />
    <glyph glyph-name="Wacute" unicode="&#x1e82;" 
d="M934 1422h158l-302 -1422h-158l-137 474l-337 -474h-158l302 1422h158l-235 -1106l325 414l149 -414zM553 1580l-79 79l395 237l79 -79z" />
    <glyph glyph-name="wacute" unicode="&#x1e83;" 
d="M524 237q-17 -79 62 -79t96 79l185 869h158l-194 -909q-8 -41 -31.5 -77t-56 -62.5t-71.5 -42t-80 -15.5q-36 0 -66 12t-51 33t-32.5 50t-11.5 63h-7q-14 -34 -38 -63t-54 -50t-64.5 -33t-70.5 -12q-41 0 -74 15.5t-54 42t-28.5 62.5t0.5 77l194 909h158l-185 -869h1
q-18 -79 61 -79t95 79h1l84 395h158zM553 1264l-79 79l395 237l79 -79z" />
    <glyph glyph-name="Wdieresis" unicode="&#x1e84;" 
d="M934 1422h158l-302 -1422h-158l-137 474l-337 -474h-158l302 1422h158l-235 -1106l325 414l149 -414zM474 1659q0 33 23 56t56 23t56 -23t23 -56t-23 -56t-56 -23t-56 23t-23 56zM790 1659q0 33 23 56t56 23t56 -23t23 -56t-23 -56t-56 -23t-56 23t-23 56z" />
    <glyph glyph-name="wdieresis" unicode="&#x1e85;" 
d="M524 237q-17 -79 62 -79t96 79l185 869h158l-194 -909q-8 -41 -31.5 -77t-56 -62.5t-71.5 -42t-80 -15.5q-36 0 -66 12t-51 33t-32.5 50t-11.5 63h-7q-14 -34 -38 -63t-54 -50t-64.5 -33t-70.5 -12q-41 0 -74 15.5t-54 42t-28.5 62.5t0.5 77l194 909h158l-185 -869h1
q-18 -79 61 -79t95 79h1l84 395h158zM474 1343q0 33 23 56t56 23t56 -23t23 -56t-23 -56t-56 -23t-56 23t-23 56zM790 1343q0 33 23 56t56 23t56 -23t23 -56t-23 -56t-56 -23t-56 23t-23 56z" />
    <glyph glyph-name="uni1E86" unicode="&#x1e86;" 
d="M934 1422h158l-302 -1422h-158l-137 474l-337 -474h-158l302 1422h158l-235 -1106l325 414l149 -414zM632 1659q0 33 23 56t56 23t56 -23t23 -56t-23 -56t-56 -23t-56 23t-23 56z" />
    <glyph glyph-name="uni1E87" unicode="&#x1e87;" 
d="M524 237q-17 -79 62 -79t96 79l185 869h158l-194 -909q-8 -41 -31.5 -77t-56 -62.5t-71.5 -42t-80 -15.5q-36 0 -66 12t-51 33t-32.5 50t-11.5 63h-7q-14 -34 -38 -63t-54 -50t-64.5 -33t-70.5 -12q-41 0 -74 15.5t-54 42t-28.5 62.5t0.5 77l194 909h158l-185 -869h1
q-18 -79 61 -79t95 79h1l84 395h158zM632 1343q0 33 23 56t56 23t56 -23t23 -56t-23 -56t-56 -23t-56 23t-23 56z" />
    <glyph glyph-name="uni1E8A" unicode="&#x1e8a;" 
d="M587 904l340 518h166l-461 -711l159 -711h-166l-121 517l-339 -517h-165l460 711l-159 711h166zM632 1659q0 33 23 56t56 23t56 -23t23 -56t-23 -56t-56 -23t-56 23t-23 56z" />
    <glyph glyph-name="uni1E8B" unicode="&#x1e8b;" 
d="M545 706l309 400h173l-429 -553l194 -553h-173l-140 398l-309 -398h-173l428 553l-193 553h173zM632 1343q0 33 23 56t56 23t56 -23t23 -56t-23 -56t-56 -23t-56 23t-23 56z" />
    <glyph glyph-name="uni1E8C" unicode="&#x1e8c;" 
d="M587 904l340 518h166l-461 -711l159 -711h-166l-121 517l-339 -517h-165l460 711l-159 711h166zM474 1659q0 33 23 56t56 23t56 -23t23 -56t-23 -56t-56 -23t-56 23t-23 56zM790 1659q0 33 23 56t56 23t56 -23t23 -56t-23 -56t-56 -23t-56 23t-23 56z" />
    <glyph glyph-name="uni1E8D" unicode="&#x1e8d;" 
d="M545 706l309 400h173l-429 -553l194 -553h-173l-140 398l-309 -398h-173l428 553l-193 553h173zM474 1343q0 33 23 56t56 23t56 -23t23 -56t-23 -56t-56 -23t-56 23t-23 56zM790 1343q0 33 23 56t56 23t56 -23t23 -56t-23 -56t-56 -23t-56 23t-23 56z" />
    <glyph glyph-name="uni1E8E" unicode="&#x1e8e;" 
d="M416 472l-114 950h158l86 -711l388 711h158l-518 -948l-100 -474h-158zM632 1659q0 33 23 56t56 23t56 -23t23 -56t-23 -56t-56 -23t-56 23t-23 56z" />
    <glyph glyph-name="uni1E8F" unicode="&#x1e8f;" 
d="M241 395q-10 -49 -0.5 -92t35 -75.5t64.5 -51t88 -18.5q48 1 97 30.5t91 74.5t73.5 101t45.5 111l132 631h158l-252 -1185q-18 -82 -64 -154t-111 -125.5t-143.5 -84.5t-160.5 -31h-237l33 158h237q49 0 96 18.5t86 51t67 75.5t39 92l53 238q-15 -32 -42 -61t-63 -51
t-78.5 -34.5t-89.5 -12.5q-83 0 -148 31t-107 84.5t-58 125.5t1 154l152 711h158zM632 1343q0 33 23 56t56 23t56 -23t23 -56t-23 -56t-56 -23t-56 23t-23 56z" />
    <glyph glyph-name="uni1EBC" unicode="&#x1ebc;" 
d="M302 1422h790l-34 -158h-632l-101 -474h474l-33 -158h-474l-101 -474h632l-33 -158h-790zM1106 1817q-119 -237 -237 -237q-59 0 -94.5 11.5t-57.5 29.5t-35.5 38t-29 38t-38 29.5t-61.5 11.5q-30 0 -58 -13.5t-50.5 -36t-36 -50.5t-13.5 -58l-79 79q118 237 237 237
q59 0 94.5 -11.5t57.5 -29.5t35.5 -38t29 -38t37.5 -29.5t62 -11.5q30 0 58 13.5t50.5 36t36 50.5t13.5 58z" />
    <glyph glyph-name="uni1EBD" unicode="&#x1ebd;" 
d="M83 395q-17 -82 3 -154t67 -125.5t116 -84.5t152 -31q72 0 142 24t131.5 66t109.5 100t76 126h-164q-20 -35 -49 -64t-63.5 -50t-73 -32.5t-76.5 -11.5q-39 0 -76 11.5t-66.5 32.5t-49 50t-24.5 64q90 29 166.5 60t148.5 66.5t143.5 77.5t152.5 92q52 47 73 101.5
t17.5 109.5t-29 106t-67 90.5t-96.5 63t-117 23.5q-82 0 -161 -31t-144 -84.5t-111 -125.5t-63 -154zM309 711q10 49 38 92t67 75t86 51t96 19q67 0 110.5 -26t61.5 -63t11.5 -78t-37.5 -70q-68 -36 -128.5 -69t-118.5 -62.5t-116 -55.5t-121 -50zM1106 1501
q-119 -237 -237 -237q-59 0 -94.5 11.5t-57.5 29.5t-35.5 38t-29 38t-38 29.5t-61.5 11.5q-30 0 -58 -13.5t-50.5 -36t-36 -50.5t-13.5 -58l-79 79q118 237 237 237q59 0 94.5 -11.5t57.5 -29.5t35.5 -38t29 -38t37.5 -29.5t62 -11.5q30 0 58 13.5t50.5 36t36 50.5t13.5 58z
" />
    <glyph glyph-name="Ygrave" unicode="&#x1ef2;" 
d="M416 472l-114 950h158l86 -711l388 711h158l-518 -948l-100 -474h-158zM474.226 1738l34.2266 158l439.76 -237l-35.2637 -158z" />
    <glyph glyph-name="ygrave" unicode="&#x1ef3;" 
d="M241 395q-10 -49 -0.5 -92t35 -75.5t64.5 -51t88 -18.5q48 1 97 30.5t91 74.5t73.5 101t45.5 111l132 631h158l-252 -1185q-18 -82 -64 -154t-111 -125.5t-143.5 -84.5t-160.5 -31h-237l33 158h237q49 0 96 18.5t86 51t67 75.5t39 92l53 238q-15 -32 -42 -61t-63 -51
t-78.5 -34.5t-89.5 -12.5q-83 0 -148 31t-107 84.5t-58 125.5t1 154l152 711h158zM474.226 1422l34.2266 158l439.76 -237l-35.2637 -158z" />
    <glyph glyph-name="uni1EF8" unicode="&#x1ef8;" 
d="M416 472l-114 950h158l86 -711l388 711h158l-518 -948l-100 -474h-158zM1106 1817q-119 -237 -237 -237q-59 0 -94.5 11.5t-57.5 29.5t-35.5 38t-29 38t-38 29.5t-61.5 11.5q-30 0 -58 -13.5t-50.5 -36t-36 -50.5t-13.5 -58l-79 79q118 237 237 237q59 0 94.5 -11.5
t57.5 -29.5t35.5 -38t29 -38t37.5 -29.5t62 -11.5q30 0 58 13.5t50.5 36t36 50.5t13.5 58z" />
    <glyph glyph-name="uni1EF9" unicode="&#x1ef9;" 
d="M241 395q-10 -49 -0.5 -92t35 -75.5t64.5 -51t88 -18.5q48 1 97 30.5t91 74.5t73.5 101t45.5 111l132 631h158l-252 -1185q-18 -82 -64 -154t-111 -125.5t-143.5 -84.5t-160.5 -31h-237l33 158h237q49 0 96 18.5t86 51t67 75.5t39 92l53 238q-15 -32 -42 -61t-63 -51
t-78.5 -34.5t-89.5 -12.5q-83 0 -148 31t-107 84.5t-58 125.5t1 154l152 711h158zM1027 1501q-119 -237 -237 -237q-59 0 -94.5 11.5t-57.5 29.5t-35.5 38t-29 38t-38 29.5t-61.5 11.5q-30 0 -58 -13.5t-50.5 -36t-36 -50.5t-13.5 -58l-79 79q118 237 237 237
q59 0 94.5 -11.5t57.5 -29.5t35.5 -38t29 -38t37.5 -29.5t62 -11.5q30 0 58 13.5t50.5 36t36 50.5t13.5 58z" />
    <glyph glyph-name="endash" unicode="&#x2013;" 
d="M158 473v157h788v-157h-788z" />
    <glyph glyph-name="emdash" unicode="&#x2014;" 
d="M0 475v156h1106v-156h-315h-791z" />
    <glyph glyph-name="afii00208" unicode="&#x2015;" 
d="M0 475v156h1106v-156h-315h-791z" />
    <glyph glyph-name="uni2016" unicode="&#x2016;" 
d="M316 1422h158v-1422h-158v1422zM632 1422h158v-1422h-158v1422z" />
    <glyph glyph-name="underscoredbl" unicode="&#x2017;" 
d="M0 0h1106v-158h-1106v158zM0 -316h1106v-158h-1106v158z" />
    <glyph glyph-name="quoteleft" unicode="&#x2018;" 
d="M730 1580q33 0 51.5 -23t11.5 -56t-35 -56t-61 -23q-30 0 -48.5 -10.5t-30 -30.5t-19 -49.5t-15.5 -67.5q33 0 59 -12.5t43 -34t23.5 -50t-0.5 -61.5t-26 -61.5t-45 -50t-57 -34t-64 -12.5t-59 12.5t-43 34t-23 50t1 61.5l33 158q13 59 40 116t66 101.5t89 71.5t109 27z
" />
    <glyph glyph-name="quoteright" unicode="&#x2019;" 
d="M327 943.994q-33 0 -51 23.1465q-18 23.1455 -11 56.3555q7 33.209 35 56.3555q28 23.1455 61 23.1455q30 0 48 10.5664q18 10.5674 30 30.6943t19 49.8135q7 29.6875 16 67.9287q-33 0 -59 12.5791t-43 34.2158t-23.5 50.3174t0.5 61.8906t25.5 61.8906t44.5 50.3174
t57.5 34.2158t64.5 12.5791t58.5 -12.5791t42.5 -34.2158t23.5 -50.3174t-0.5 -61.8906l-33 -159.003q-13 -59.375 -40 -116.736t-66 -102.145q-39 -44.7822 -89.5 -71.9531q-50.5 -27.1719 -109.5 -27.1719z" />
    <glyph glyph-name="quotesinglbase" unicode="&#x201a;" 
d="M169 -316q-33 0 -51 23t-11 56t35 56t61 23q30 0 48 10.5t30 30.5t19 49.5t16 67.5q-33 0 -59 12.5t-43 34t-23.5 50t0.5 61.5t25.5 61.5t44.5 50t57.5 34t64.5 12.5t58.5 -12.5t42.5 -34t23.5 -50t-0.5 -61.5l-33 -158q-13 -59 -40 -116t-66 -101.5t-89.5 -71.5
t-109.5 -27z" />
    <glyph glyph-name="quotedblleft" unicode="&#x201c;" 
d="M456 1561q33 0 51.5 -23t11.5 -56t-35 -56t-61 -23q-30 0 -48.5 -10.5t-30 -30.5t-19 -49.5t-15.5 -67.5q33 0 59 -12.5t43 -34t23.5 -50t-0.5 -61.5t-26 -61.5t-45 -50t-57 -34t-64 -12.5t-59 12.5t-43 34t-23 50t1 61.5l33 158q13 59 40 116t66 101.5t89 71.5t109 27z
M927.684 1561q32.8945 0 51.3359 -23t11.4639 -56t-34.8896 -56q-27.9102 -23 -60.8057 -23q-29.9053 0 -48.3467 -10.5t-29.9043 -30.5q-11.4639 -20 -18.9395 -49.5q-7.47656 -29.5 -15.4512 -67.5q32.8955 0 58.8125 -12.5q25.918 -12.5 42.8633 -34
q16.9463 -21.5 23.4258 -50t-0.498047 -61.5q-6.97852 -33 -25.918 -61.5t-44.8574 -50q-25.917 -21.5 -56.8184 -34q-30.9023 -12.5 -63.7969 -12.5q-32.8955 0 -58.8125 12.5q-25.918 12.5 -42.8643 34t-22.9268 50t0.99707 61.5l32.8955 158q12.958 59 39.873 116
q26.9141 57 65.79 101.5t88.7178 71.5q49.8408 27 108.654 27z" />
    <glyph glyph-name="quotedblright" unicode="&#x201d;" 
d="M341.962 962q-32.8955 0 -50.8379 23t-10.9648 56t34.8887 56t60.8066 23q29.9043 0 47.8477 10.5q17.9424 10.5 29.9043 30.5t18.9404 49.5q6.97754 29.5 15.9492 67.5q-32.8955 0 -58.8135 12.5q-25.917 12.5 -42.8633 34t-23.4258 50t0.499023 61.5
q6.97754 33 25.4189 61.5t44.3584 50q25.918 21.5 57.3174 34q31.4004 12.5 64.2959 12.5q32.8945 0 58.3145 -12.5q25.4189 -12.5 42.3652 -34q16.9453 -21.5 23.4248 -50t-0.498047 -61.5l-32.8955 -158q-12.959 -59 -39.873 -116t-65.791 -101.5
q-38.876 -44.5 -89.2158 -71.5q-50.3389 -27 -109.152 -27zM815.962 962q-32.8955 0 -50.8379 23t-10.9648 56t34.8887 56t60.8066 23q29.9043 0 47.8477 10.5q17.9424 10.5 29.9043 30.5t18.9404 49.5q6.97754 29.5 15.9492 67.5q-32.8955 0 -58.8135 12.5
q-25.917 12.5 -42.8633 34t-23.4258 50t0.499023 61.5q6.97754 33 25.4189 61.5t44.3584 50q25.918 21.5 57.3174 34q31.4004 12.5 64.2959 12.5q32.8945 0 58.3145 -12.5q25.4189 -12.5 42.3652 -34q16.9453 -21.5 23.4248 -50t-0.498047 -61.5l-32.8955 -158
q-12.959 -59 -39.873 -116t-65.791 -101.5q-38.876 -44.5 -89.2158 -71.5q-50.3389 -27 -109.152 -27z" />
    <glyph glyph-name="quotedblbase" unicode="&#x201e;" 
d="M11 -316q-32 0 -50 23t-11 56t34.5 56t60.5 23q30 0 48 10.5t30 30.5t19 49.5t16 67.5q-33 0 -59 12.5t-43 34t-23.5 50t0.5 61.5t25.5 61.5t44.5 50t57.5 34t64.5 12.5t58.5 -12.5t42.5 -34t23.5 -50t-0.5 -61.5l-33 -158q-13 -59 -40 -116t-66 -101.5t-89.5 -71.5
t-109.5 -27zM485 -316q-33 0 -51 23t-11 56t35 56t61 23q30 0 48 10.5t30 30.5t19 49.5t16 67.5q-33 0 -59 12.5t-43 34t-23.5 50t0.5 61.5t25.5 61.5t44.5 50t57.5 34t64.5 12.5t58.5 -12.5t42.5 -34t23.5 -50t-0.5 -61.5l-33 -158q-13 -59 -40 -116t-66 -101.5
t-89.5 -71.5t-109.5 -27z" />
    <glyph glyph-name="dagger" unicode="&#x2020;" 
d="M474 948h-316v158h316v316h158v-316h316v-158h-316v-632h-158v632z" />
    <glyph glyph-name="daggerdbl" unicode="&#x2021;" 
d="M474 316h-316v158h316v474h-316v158h316v316h158v-316h316v-158h-316v-474h316v-158h-316v-316h-158v316z" />
    <glyph glyph-name="bullet" unicode="&#x2022;" 
d="M316 711q0 49 18.5 92t51 75.5t75.5 51t92 18.5t92 -18.5t75.5 -51t51 -75.5t18.5 -92t-18.5 -92t-51 -75.5t-75.5 -51t-92 -18.5t-92 18.5t-75.5 51t-51 75.5t-18.5 92z" />
    <glyph glyph-name="onedotenleader" unicode="&#x2024;" 
d="M316 158q7 33 25.5 61.5t44.5 50t57.5 34t64.5 12.5t58.5 -12.5t42.5 -34t23.5 -50t-0.5 -61.5t-25.5 -61.5t-44.5 -50t-57 -34t-64 -12.5t-59 12.5t-43 34t-23.5 50t0.5 61.5z" />
    <glyph glyph-name="ellipsis" unicode="&#x2026;" 
d="M158 316h158v-316h-158v316zM474 316h158v-316h-158v316zM790 316h158v-316h-158v316z" />
    <glyph glyph-name="perthousand" unicode="&#x2030;" 
d="M188 158h-188l760 1106h188l-437 -636q20 4 42 4q48 0 90 -19q38 -16 67 -43q29 27 66 43q43 19 91 19t90.5 -18.5t74 -51t50 -75.5t18.5 -92t-18.5 -92t-50 -75.5t-74 -51t-90.5 -18.5t-91 18q-37 17 -66 44q-29 -27 -67 -44q-42 -18 -90 -18t-90.5 18.5t-74 51
t-50.5 75.5q-10 25 -15 51zM8 1027q0 49 18.5 92t50 75.5t74 51t90.5 18.5t90.5 -18.5t74 -51t50 -75.5t18.5 -92t-18.5 -92t-50 -75.5t-74 -51t-90.5 -18.5t-90.5 18.5t-74 51t-50 75.5t-18.5 92zM163 1027q0 -33 23 -56t55 -23t55 23t23 56t-23 56t-55 23t-55 -23t-23 -56
zM790 395q0 -33 22.5 -56t54.5 -23t55 23t23 56t-23 56t-55 23t-54.5 -23t-22.5 -56zM476 395q0 -33 22.5 -56t54.5 -23t55 23t23 56t-23 56t-55 23t-54.5 -23t-22.5 -56z" />
    <glyph glyph-name="guilsinglleft" unicode="&#x2039;" 
d="M632 948l79 -79l-237 -316l237 -316l-80 -79l-315 395z" />
    <glyph glyph-name="guilsinglright" unicode="&#x203a;" 
d="M395.039 948l-78.9961 -79l236.986 -316l-236.986 -316l79.9951 -79l314.981 395z" />
    <glyph glyph-name="exclamdbl" unicode="&#x203c;" 
d="M461 1422h158l-202 -948h-158zM226 316h158l-67 -316h-158zM776 1422h158l-202 -948h-158zM541 316h158l-67 -316h-158z" />
    <glyph glyph-name="uni203E" unicode="&#x203e;" 
d="M0 1424v156h1106v-156h-315h-791z" />
    <glyph glyph-name="fraction" unicode="&#x2044;" 
d="M790 1580h158l-632 -1580h-158z" />
    <glyph glyph-name="zerosuperior" unicode="&#x2070;" 
d="M158 1185q0 82 18.5 154t51 125.5t75.5 84.5t92 31t92 -31t75.5 -84.5t51 -125.5t18.5 -154t-18.5 -154t-51 -125.5t-75.5 -84.5t-92 -31t-92 31t-75.5 84.5t-51 125.5t-18.5 154zM316 1185q0 -49 6 -92t17 -75.5t25 -51t31 -18.5q16 0 30.5 18.5t25.5 51t17 75.5t6 92
t-6 92t-17 75.5t-25.5 51t-30.5 18.5q-17 0 -31 -18.5t-25 -51t-17 -75.5t-6 -92z" />
    <glyph glyph-name="foursuperior" unicode="&#x2074;" 
d="M158 1264l316 316h158v-790h-158v158h-316v316zM474 1106v237l-158 -158v-79h158z" />
    <glyph glyph-name="fivesuperior" unicode="&#x2075;" 
d="M158 948q59 0 116 1t101.5 8.5t71.5 23.5t27 46t-27 46t-71.5 23.5t-101.5 8.5t-116 1v474h474v-158h-316v-158q89 0 149.5 -15t97.5 -44.5t53 -74t16 -103.5t-16 -103.5t-53 -74t-97.5 -44.5t-149.5 -15h-158v158z" />
    <glyph glyph-name="sixsuperior" unicode="&#x2076;" 
d="M158 1027q0 40 1 68.5t7.5 57t21 62t41 81.5t67 116.5t99.5 167.5h158l-200 -320l42 4q49 0 92 -18.5t75.5 -51t51 -75.5t18.5 -92t-18.5 -92t-51 -75.5t-75.5 -51t-92 -18.5t-92 18.5t-75.5 51t-51 75.5t-18.5 92zM316 1027q0 -33 23 -56t56 -23t56 23t23 56t-23 56
t-56 23t-56 -23t-23 -56z" />
    <glyph glyph-name="sevensuperior" unicode="&#x2077;" 
d="M632 1422l-158 -632h-158l158 632h-316v158h474v-158z" />
    <glyph glyph-name="eightsuperior" unicode="&#x2078;" 
d="M158 1027q0 45 15.5 85.5t44.5 72.5q-29 32 -44.5 72t-15.5 86q0 49 18.5 92t51 75.5t75.5 51t92 18.5t92 -18.5t75.5 -51t51 -75.5t18.5 -92q0 -46 -16 -86t-44 -72q28 -32 44 -72.5t16 -85.5q0 -49 -18.5 -92t-51 -75.5t-75.5 -51t-92 -18.5t-92 18.5t-75.5 51
t-51 75.5t-18.5 92zM316 1027q0 -33 23 -56t56 -23t56 23t23 56t-23 56t-56 23t-56 -23t-23 -56zM316 1343q0 -33 23 -56t56 -23t56 23t23 56t-23 56t-56 23t-56 -23t-23 -56z" />
    <glyph glyph-name="ninesuperior" unicode="&#x2079;" 
d="M632 1343q0 -39 -1 -68t-7.5 -57.5t-21 -62t-41 -81.5t-67 -116.5t-99.5 -167.5h-158l200 320l-42 -4q-49 0 -92 18.5t-75.5 51t-51 75.5t-18.5 92t18.5 92t51 75.5t75.5 51t92 18.5t92 -18.5t75.5 -51t51 -75.5t18.5 -92zM474 1343q0 33 -23 56t-56 23t-56 -23t-23 -56
t23 -56t56 -23t56 23t23 56z" />
    <glyph glyph-name="uni207A" unicode="&#x207a;" 
d="M158 1264h158v158h158v-158h158v-158h-158v-158h-158v158h-158v158z" />
    <glyph glyph-name="uni207B" unicode="&#x207b;" 
d="M158 1264h474v-158h-474v158z" />
    <glyph glyph-name="uni207C" unicode="&#x207c;" 
d="M158 1422h474v-158h-474v158zM158 1106h474v-158h-474v158z" />
    <glyph glyph-name="parenleftsuperior" unicode="&#x207d;" 
d="M632 790q-89 0 -149.5 28.5t-97.5 80t-53 124.5t-16 162t16 162t53 124.5t97.5 80t149.5 28.5v-158q-40 0 -67 -12t-44.5 -32t-27 -45t-14 -51.5t-5 -51.5t-0.5 -45t0.5 -45t5 -51.5t14 -51.5t27 -45t44.5 -32t67 -12v-158z" />
    <glyph glyph-name="parenrightsuperior" unicode="&#x207e;" 
d="M316 948q39 0 66.5 12t45 32t27 45t14 51.5t5 51.5t0.5 45t-0.5 45t-5 51.5t-14 51.5t-27 45t-45 32t-66.5 12v158q89 0 149.5 -28.5t97.5 -80t53 -124.5t16 -162t-16 -162t-53 -124.5t-97.5 -80t-149.5 -28.5v158z" />
    <glyph glyph-name="nsuperior" unicode="&#x207f;" 
d="M395 1422q-30 0 -46 -13.5t-23.5 -36t-8.5 -50.5t-1 -58v-474h-158v790h158v-57q14 21 26.5 33t25.5 17t27.5 6t32.5 1q47 0 84.5 -16t64 -53t41 -97.5t14.5 -149.5v-474h-158v474q0 30 -1 58t-8.5 50.5t-23.5 36t-46 13.5z" />
    <glyph glyph-name="zeroinferior" unicode="&#x2080;" 
d="M158 233q0 82 18.5 154t51 125.5t75.5 84.5t92 31t92 -31t75.5 -84.5t51 -125.5t18.5 -154t-18.5 -154t-51 -125.5t-75.5 -84.5t-92 -31t-92 31t-75.5 84.5t-51 125.5t-18.5 154zM316 233q0 -49 6 -92t17 -75.5t25 -51t31 -18.5q16 0 30.5 18.5t25.5 51t17 75.5t6 92
t-6 92t-17 75.5t-25.5 51t-30.5 18.5q-17 0 -31 -18.5t-25 -51t-17 -75.5t-6 -92z" />
    <glyph glyph-name="oneinferior" unicode="&#x2081;" 
d="M316 1v474l-158 -158v158l158 158h158v-632h158v-158h-474v158h158z" />
    <glyph glyph-name="twoinferior" unicode="&#x2082;" 
d="M158.672 1q0 20 23.4512 51.5t58.3789 68.5t75.8418 77.5q40.915 40.5 75.8428 77.5t58.3789 68.5t23.4512 51.5q0 30 -13.4727 46q-13.4717 16 -35.9248 23.5t-50.8945 8.5q-28.4404 1 -57.3809 1h-157.672v158h235.511q237.506 0 237.506 -237q0 -30 -26.9443 -73.5
q-26.9434 -43.5 -71.3516 -95q-44.4072 -51.5 -101.289 -109.5t-115.76 -117h315.345v-158h-473.017v158z" />
    <glyph glyph-name="threeinferior" unicode="&#x2083;" 
d="M158.338 1h158.337q30.0645 0 58.124 2t50.6084 10q22.5479 8 36.0762 24q13.5293 16 13.5293 43t-13.5293 43q-13.5283 16 -36.0762 24q-22.5488 8 -50.6084 10t-58.124 2v158q30.0645 0 58.625 2q28.5615 2 51.1094 10t36.0771 24q13.5283 16 13.5283 43t-13.5283 43
q-13.5293 16 -36.0771 24t-51.1094 10q-28.5605 2 -58.625 2h-158.337v158h237.506q237.506 0 237.506 -237q0 -59 -18.5391 -93.5t-61.6309 -64.5q43.0918 -30 61.6309 -64.5t18.5391 -93.5q0 -237 -237.506 -237h-237.506v158z" />
    <glyph glyph-name="fourinferior" unicode="&#x2084;" 
d="M158 317l316 316h158v-790h-158v158h-316v316zM474 159v237l-158 -158v-79h158z" />
    <glyph glyph-name="fiveinferior" unicode="&#x2085;" 
d="M158 1q59 0 116 1t101.5 8.5t71.5 23.5t27 46t-27 46t-71.5 23.5t-101.5 8.5t-116 1v474h474v-158h-316v-158q89 0 149.5 -15t97.5 -44.5t53 -74t16 -103.5t-16 -103.5t-53 -74t-97.5 -44.5t-149.5 -15h-158v158z" />
    <glyph glyph-name="sixinferior" unicode="&#x2086;" 
d="M158 80q0 40 1 68.5t7.5 57t21 62t41 81.5t67 116.5t99.5 167.5h158l-200 -320l42 4q49 0 92 -18.5t75.5 -51t51 -75.5t18.5 -92t-18.5 -92t-51 -75.5t-75.5 -51t-92 -18.5t-92 18.5t-75.5 51t-51 75.5t-18.5 92zM316 80q0 -33 23 -56t56 -23t56 23t23 56t-23 56t-56 23
t-56 -23t-23 -56z" />
    <glyph glyph-name="seveninferior" unicode="&#x2087;" 
d="M632 475l-158 -632h-158l158 632h-316v158h474v-158z" />
    <glyph glyph-name="eightinferior" unicode="&#x2088;" 
d="M158 80q0 45 15.5 85.5t44.5 72.5q-29 32 -44.5 72t-15.5 86q0 49 18.5 92t51 75.5t75.5 51t92 18.5t92 -18.5t75.5 -51t51 -75.5t18.5 -92q0 -46 -16 -86t-44 -72q28 -32 44 -72.5t16 -85.5q0 -49 -18.5 -92t-51 -75.5t-75.5 -51t-92 -18.5t-92 18.5t-75.5 51t-51 75.5
t-18.5 92zM316 80q0 -33 23 -56t56 -23t56 23t23 56t-23 56t-56 23t-56 -23t-23 -56zM316 396q0 -33 23 -56t56 -23t56 23t23 56t-23 56t-56 23t-56 -23t-23 -56z" />
    <glyph glyph-name="nineinferior" unicode="&#x2089;" 
d="M632 396q0 -39 -1 -68t-7.5 -57.5t-21 -62t-41 -81.5t-67 -116.5t-99.5 -167.5h-158l200 320l-42 -4q-49 0 -92 18.5t-75.5 51t-51 75.5t-18.5 92t18.5 92t51 75.5t75.5 51t92 18.5t92 -18.5t75.5 -51t51 -75.5t18.5 -92zM474 396q0 33 -23 56t-56 23t-56 -23t-23 -56
t23 -56t56 -23t56 23t23 56z" />
    <glyph glyph-name="uni208A" unicode="&#x208a;" 
d="M158 316h158v158h158v-158h158v-158h-158v-158h-158v158h-158v158z" />
    <glyph glyph-name="uni208B" unicode="&#x208b;" 
d="M158 316h474v-158h-474v158z" />
    <glyph glyph-name="uni208C" unicode="&#x208c;" 
d="M158 474h474v-158h-474v158zM158 158h474v-158h-474v158z" />
    <glyph glyph-name="parenleftinferior" unicode="&#x208d;" 
d="M632 -158q-89 0 -149.5 28.5t-97.5 80t-53 124.5t-16 162t16 162t53 124.5t97.5 80t149.5 28.5v-158q-40 0 -67 -12t-44.5 -32t-27 -45t-14 -51.5t-5 -51.5t-0.5 -45t0.5 -45t5 -51.5t14 -51.5t27 -45t44.5 -32t67 -12v-158z" />
    <glyph glyph-name="parenrightinferior" unicode="&#x208e;" 
d="M316 0q39 0 66.5 12t45 32t27 45t14 51.5t5 51.5t0.5 45t-0.5 45t-5 51.5t-14 51.5t-27 45t-45 32t-66.5 12v158q89 0 149.5 -28.5t97.5 -80t53 -124.5t16 -162t-16 -162t-53 -124.5t-97.5 -80t-149.5 -28.5v158z" />
    <glyph glyph-name="franc" unicode="&#x20a3;" 
d="M43 316h146l235 1106h680l-34 -158h-522l-101 -474h474l-33 -158h-474l-67 -316h158l-34 -158h-158l-33 -158h-158l33 158h-146z" />
    <glyph glyph-name="lira" unicode="&#x20a4;" 
d="M134 632h158l33 158h-158l34 158h158l34 158q12 59 51 116t93 101.5t117 71.5t122 27t110 -27t86 -71.5t50 -101.5t3 -116h-158q6 30 -1.5 58t-25.5 50.5t-43.5 36t-54.5 13.5q-30 0 -61 -13.5t-58 -36t-46.5 -50.5t-25.5 -58l-34 -158h316l-34 -158h-316l-33 -158h316
l-34 -158h-316l-67 -316h474l-33 -158h-790l33 158h158l67 316h-158z" />
    <glyph glyph-name="peseta" unicode="&#x20a7;" 
d="M1017 632q-30 0 -58.5 -1t-52.5 -8.5t-41 -23.5t-23 -46q-6 -28 14 -45t52 -30.5t70.5 -25.5t70 -29t49.5 -42.5t10 -64.5l-34 -158q-6 -30 -27 -58t-55.5 -50.5t-81.5 -36t-106 -13.5h-158q-59 0 -100.5 16t-63 53t-23.5 97.5t17 149.5l134 632q-13 -59 -40 -116
t-66 -101.5t-89 -71.5t-109 -27h-79l-134 -632h-158l302 1422h237q59 0 100 -16t62.5 -53t24 -97.5t-16.5 -149.5l67 316h158l-67 -316h158l-34 -158h-158l-66 -310q8 31 29 59t54.5 48.5t80 32.5t105.5 12h182l-33 -158h-103zM486 1106q6 30 9 58t-0.5 50.5t-16.5 36
t-38 13.5h-79l-101 -474h86q27 0 44.5 13.5t29.5 36t19 50.5t13 58zM634 316q-7 -30 -12 -58t-2 -50.5t16 -36t43 -13.5h79q59 0 92.5 6.5t51 18t23 25.5t8.5 29q6 30 -13.5 48t-52 31t-71 24.5t-70 28t-49.5 41t-10 64.5z" />
    <glyph glyph-name="Euro" unicode="&#x20ac;" 
d="M860 104q-74 -50 -154 -77t-165 -27q-98 0 -174.5 35t-130.5 98t-84 150t-35 191h-129l55 158h82q10 78 33 158h-103l55 158h108q49 103 116.5 190t148 150t172 98.5t188.5 35.5q78 0 141.5 -22.5t114.5 -64.5l-123 -124q-33 26 -74.5 39.5t-92.5 13.5q-65 0 -126 -23
t-116 -65t-102 -100t-84 -128h318l-70 -158h-313q-23 -80 -33 -158h349l-70 -158h-282q7 -70 30 -128t60 -100t88.5 -65t115.5 -23q65 0 125.5 22t160.5 -76z" />
    <glyph glyph-name="afii61248" unicode="&#x2105;" 
d="M557 395q18 82 51.5 154t77.5 125.5t93.5 84.5t98.5 31t85.5 -31t57.5 -84.5t24.5 -125.5t-14.5 -154q-17 -82 -51 -154t-77.5 -125.5t-93 -84.5t-98.5 -31t-85.5 31t-58 84.5t-24.5 125.5t14 154zM948 1580h158l-948 -1580h-158zM251 1185q-10 -49 -13 -92t1 -75.5
t14 -51t27 -18.5q13 0 27 11.5t28 32.5t27.5 50t25.5 64h158q-23 -68 -56.5 -125.5t-73 -100t-83.5 -66.5t-87 -24q-49 0 -85 31t-57.5 84.5t-24.5 125.5t14 154q18 82 51.5 154t77.5 125.5t93.5 84.5t98.5 31q43 0 76.5 -24t55 -66.5t30.5 -100.5t3 -125h-158q3 34 2 63
t-6 50t-14 33t-22 12q-17 0 -35 -18.5t-36 -51t-33 -75.5t-26 -92zM715 395q-10 -49 -13 -92t1 -75.5t14 -51t27 -18.5q16 0 34.5 18.5t36.5 51t33 75.5t25 92q11 49 14 92t-1 75.5t-14.5 51t-26.5 18.5q-17 0 -35 -18.5t-36 -51t-33 -75.5t-26 -92z" />
    <glyph glyph-name="uni2106" unicode="&#x2106;" 
d="M715 395q-10 -49 -13 -92t1 -75.5t14 -51t27 -18.5q16 0 34.5 18.5t36.5 51t33 75.5t25 92l84 395h158l-81 -382l-3 -13q-17 -82 -51 -154t-77.5 -125.5t-93 -84.5t-98.5 -31t-85.5 31t-58 84.5t-24.5 125.5t14 154l84 395l-483 -790h-158l948 1580h158l-465 -790h158z
M251 1185q-10 -49 -13 -92t1 -75.5t14 -51t27 -18.5q13 0 27 11.5t28 32.5t27.5 50t25.5 64h158q-23 -68 -56.5 -125.5t-73 -100t-83.5 -66.5t-87 -24q-49 0 -85 31t-57.5 84.5t-24.5 125.5t14 154q18 82 51.5 154t77.5 125.5t93.5 84.5t98.5 31q43 0 76.5 -24t55 -66.5
t30.5 -100.5t3 -125h-158q3 34 2 63t-6 50t-14 33t-22 12q-17 0 -35 -18.5t-36 -51t-33 -75.5t-26 -92z" />
    <glyph glyph-name="trademark" unicode="&#x2122;" 
d="M553 1264h-158l-101 -474h-158l101 474h-158l34 158h632l45 -158l113 158h158l-135 -632h-158l84 395l-112 -158l-46 158l-84 -395h-159z" />
    <glyph glyph-name="Omega" unicode="&#x2126;" 
d="M601 167q77 18 134 67.5t98.5 121.5t70.5 163t51 192q24 114 17.5 215t-42 176t-99.5 118.5t-154 43.5t-160.5 -43.5t-124.5 -118.5t-92 -176t-62 -215q-22 -101 -20.5 -192t25.5 -163t71 -121.5t116 -67.5l-35 -167h-429l34 158h160q-72 99 -93.5 241t14.5 312
q30 147 86.5 276.5t136.5 226t182.5 152.5t224.5 56q123 0 212.5 -56t142 -152.5t65.5 -226t-18 -276.5q-18 -84 -36 -162.5t-43.5 -149t-63 -131.5t-94.5 -110h151l-33 -158h-428z" />
    <glyph glyph-name="estimated" unicode="&#x212e;" 
d="M677 303q4 6 8 13h164q-17 -39 -39 -75q-47 -72 -111.5 -125.5t-143 -84.5t-160.5 -31t-147.5 31t-108 84.5t-58 125.5t1.5 154l68 316q17 82 63.5 154t111 125.5t143.5 84.5t161 31t147 -31t107.5 -84.5t58 -125.5t-1.5 -154l-51 -237h-632l-17 -79q-10 -49 -0.5 -92
t35 -75.5t64.5 -51t88 -18.5t96 18.5t86.5 51t66.5 75.5zM292 632h474l17 79q10 49 0.5 92t-35 75.5t-64.5 51t-88 18.5t-96 -18.5t-86.5 -51t-67 -75.5t-37.5 -92z" />
    <glyph glyph-name="uni2141" unicode="&#x2141;" 
d="M441.041 1264.01q5.99902 29.998 36.4971 57.9961t71.4961 50.4971q40.9971 22.499 84.9951 35.998q43.9971 13.499 76.9951 13.499q81.9951 0 147.49 -30.998q65.4961 -30.998 107.994 -84.4951q42.4971 -53.4961 57.9961 -125.492q15.499 -71.9951 -1.5 -153.99
l-134.991 -631.962q-16.999 -81.9951 -63.4961 -153.99q-46.498 -71.9961 -111.493 -125.492q-64.9961 -53.4971 -143.491 -84.4951q-78.4961 -30.998 -160.49 -30.998q-71.9961 0 -130.992 23.998q-58.9971 23.999 -100.494 66.4961q-41.4971 42.498 -64.9961 100.494
q-23.498 57.9961 -23.498 124.992h163.989q5 -33.998 20.999 -62.9961t40.4971 -49.9971q24.499 -20.998 56.9971 -32.998q32.498 -11.999 71.4951 -11.999q48.9971 0 95.9941 18.499t86.4951 50.9971t66.9961 75.4951t37.498 91.9941l134.991 631.962
q9.99902 48.9971 0.5 91.9941t-34.998 75.4951q-25.498 32.498 -64.4961 50.9971q-38.9971 18.499 -87.9941 18.499q-47.9971 0 -96.4941 -25.998q-48.4971 -25.999 -88.9951 -62.9971q-40.4971 -36.9971 -67.9951 -77.4951q-27.499 -40.4971 -33.498 -70.4951
l-50.9971 -236.985h157.99l-32.998 -157.991h-315.98l166.989 789.952h157.991z" />
    <glyph glyph-name="onethird" unicode="&#x2153;" 
d="M159 948v474l-158 -158v158l158 158h158v-632h158v-158h-474v158h158zM790 1580h158l-632 -1580h-158zM625.996 159h159.996q30.3789 0 58.7334 2q28.3535 2 51.1377 10t36.4551 24q13.6699 16 13.6699 43t-13.6699 43q-13.6709 16 -36.4551 24t-51.1377 10
q-28.3545 2 -58.7334 2v158q30.3789 0 59.2393 2t51.6445 10t36.4551 24q13.6699 16 13.6699 43t-13.6699 43q-13.6709 16 -36.4551 24t-51.6445 10t-59.2393 2h-159.996v158h239.994q239.994 0 239.994 -237q0 -59 -18.7334 -93.5t-62.2764 -64.5q43.543 -30 62.2764 -64.5
t18.7334 -93.5q0 -237 -239.994 -237h-239.994v158z" />
    <glyph glyph-name="twothirds" unicode="&#x2154;" 
d="M790 1580h158l-632 -1580h-158zM632 159h158q30 0 58 2t50.5 10t36 24t13.5 43t-13.5 43t-36 24t-50.5 10t-58 2v158q30 0 58.5 2t51 10t36 24t13.5 43t-13.5 43t-36 24t-51 10t-58.5 2h-158v158h237q237 0 237 -237q0 -59 -18.5 -93.5t-61.5 -64.5q43 -30 61.5 -64.5
t18.5 -93.5q0 -237 -237 -237h-237v158zM1.66211 948q0 20 23.4502 51.5t58.375 68.5t75.8379 77.5q40.9121 40.5 75.8369 77.5q34.9258 37 58.376 68.5q23.4492 31.5 23.4492 51.5q0 30 -13.4707 46q-13.4717 16 -35.9238 23.5q-22.4512 7.5 -50.8906 8.5t-57.377 1
h-157.663v158h235.496q237.492 0 237.492 -237q0 -30 -26.9424 -73.5t-71.3477 -95t-101.283 -109.5t-115.752 -117h315.325v-158h-472.988v158z" />
    <glyph glyph-name="uni2155" unicode="&#x2155;" 
d="M158 948v474l-158 -158v158l158 158h158v-632h158v-158h-474v158h158zM790 1580h158l-632 -1580h-158zM632 159q59 0 116 1t101.5 8.5t71.5 23.5t27 46t-27 46t-71.5 23.5t-101.5 8.5t-116 1v474h474v-158h-316v-158q89 0 149.5 -15t97.5 -44.5t53 -74t16 -103.5
t-16 -103.5t-53 -74t-97.5 -44.5t-149.5 -15h-158v158z" />
    <glyph glyph-name="uni2156" unicode="&#x2156;" 
d="M790 1580h158l-632 -1580h-158zM1 948q0 20 23.5 51.5t58.5 68.5t76 77.5t76 77.5t58.5 68.5t23.5 51.5q0 30 -13.5 46t-36 23.5t-51 8.5t-57.5 1h-158v158h236q238 0 238 -237q0 -30 -27 -73.5t-71.5 -95t-101.5 -109.5t-116 -117h316v-158h-474v158zM632 159
q59 0 116 1t101.5 8.5t71.5 23.5t27 46t-27 46t-71.5 23.5t-101.5 8.5t-116 1v474h474v-158h-316v-158q89 0 149.5 -15t97.5 -44.5t53 -74t16 -103.5t-16 -103.5t-53 -74t-97.5 -44.5t-149.5 -15h-158v158z" />
    <glyph glyph-name="uni2157" unicode="&#x2157;" 
d="M790 1580h158l-632 -1580h-158zM1 948h158q30 0 58 2t50.5 10t36 24t13.5 43t-13.5 43t-36 24t-50.5 10t-58 2v158q30 0 58.5 2t51 10t36 24t13.5 43t-13.5 43t-36 24t-51 10t-58.5 2h-158v158h237q237 0 237 -237q0 -59 -18.5 -93.5t-61.5 -64.5q43 -30 61.5 -64.5
t18.5 -93.5q0 -237 -237 -237h-237v158zM632 159q59 0 116 1t101.5 8.5t71.5 23.5t27 46t-27 46t-71.5 23.5t-101.5 8.5t-116 1v474h474v-158h-316v-158q89 0 149.5 -15t97.5 -44.5t53 -74t16 -103.5t-16 -103.5t-53 -74t-97.5 -44.5t-149.5 -15h-158v158z" />
    <glyph glyph-name="uni2158" unicode="&#x2158;" 
d="M790 1580h158l-632 -1580h-158zM1 1264l316 316h158v-790h-158v158h-316v316zM317 1106v237l-158 -158v-79h158zM632 159q59 0 116 1t101.5 8.5t71.5 23.5t27 46t-27 46t-71.5 23.5t-101.5 8.5t-116 1v474h474v-158h-316v-158q89 0 149.5 -15t97.5 -44.5t53 -74
t16 -103.5t-16 -103.5t-53 -74t-97.5 -44.5t-149.5 -15h-158v158z" />
    <glyph glyph-name="uni2159" unicode="&#x2159;" 
d="M158 948v474l-158 -158v158l158 158h158v-632h158v-158h-474v158h158zM790 1580h158l-632 -1580h-158zM632 238q0 40 1 68.5t7.5 57t21 62t41 81.5t67 116.5t99.5 167.5h158l-200 -320l42 4q49 0 92 -18.5t75.5 -51t51 -75.5t18.5 -92t-18.5 -92t-51 -75.5t-75.5 -51
t-92 -18.5t-92 18.5t-75.5 51t-51 75.5t-18.5 92zM790 238q0 -33 23 -56t56 -23t56 23t23 56t-23 56t-56 23t-56 -23t-23 -56z" />
    <glyph glyph-name="uni215A" unicode="&#x215a;" 
d="M790 1580h158l-632 -1580h-158zM3.33496 948q58.751 0 115.511 1q56.7607 1 101.073 8.5t71.1982 23.5q26.8867 16 26.8867 46t-26.8867 46q-26.8857 16 -71.1982 23.5t-101.073 8.5q-56.7598 1 -115.511 1v474h472.003v-158h-314.669v-158q88.625 0 148.871 -15
q60.2451 -15 97.0889 -44.5t52.7773 -74q15.9316 -44.5 15.9316 -103.5t-15.9316 -103.5q-15.9336 -44.5 -52.7773 -74t-97.0889 -44.5q-60.2461 -15 -148.871 -15h-157.334v158zM630 224q0 40 1 68.5t7.5 57t21 62t41 81.5t67 116.5t99.5 167.5h158l-200 -320l42 4
q49 0 92 -18.5t75.5 -51t51 -75.5t18.5 -92t-18.5 -92t-51 -75.5t-75.5 -51t-92 -18.5t-92 18.5t-75.5 51t-51 75.5t-18.5 92zM788 224q0 -33 23 -56t56 -23t56 23t23 56t-23 56t-56 23t-56 -23t-23 -56z" />
    <glyph glyph-name="oneeighth" unicode="&#x215b;" 
d="M159 948v474l-158 -158v158l158 158h158v-632h158v-158h-474v158h158zM790 1580h158l-632 -1580h-158zM632 238q0 45 15.5 85.5t44.5 72.5q-29 32 -44.5 72t-15.5 86q0 49 18.5 92t51 75.5t75.5 51t92 18.5t92 -18.5t75.5 -51t51 -75.5t18.5 -92q0 -46 -16 -86t-44 -72
q28 -32 44 -72.5t16 -85.5q0 -49 -18.5 -92t-51 -75.5t-75.5 -51t-92 -18.5t-92 18.5t-75.5 51t-51 75.5t-18.5 92zM790 238q0 -33 23 -56t56 -23t56 23t23 56t-23 56t-56 23t-56 -23t-23 -56zM790 554q0 -33 23 -56t56 -23t56 23t23 56t-23 56t-56 23t-56 -23t-23 -56z" />
    <glyph glyph-name="threeeighths" unicode="&#x215c;" 
d="M790 1580h158l-632 -1580h-158zM1 948h158q30 0 58 2t50.5 10t36 24t13.5 43t-13.5 43t-36 24t-50.5 10t-58 2v158q30 0 58.5 2t51 10t36 24t13.5 43t-13.5 43t-36 24t-51 10t-58.5 2h-158v158h237q237 0 237 -237q0 -59 -18.5 -93.5t-61.5 -64.5q43 -30 61.5 -64.5
t18.5 -93.5q0 -237 -237 -237h-237v158zM632 238q0 45 15.5 85.5t44.5 72.5q-29 32 -44.5 72t-15.5 86q0 49 18.5 92t51 75.5t75.5 51t92 18.5t92 -18.5t75.5 -51t51 -75.5t18.5 -92q0 -46 -16 -86t-44 -72q28 -32 44 -72.5t16 -85.5q0 -49 -18.5 -92t-51 -75.5t-75.5 -51
t-92 -18.5t-92 18.5t-75.5 51t-51 75.5t-18.5 92zM790 238q0 -33 23 -56t56 -23t56 23t23 56t-23 56t-56 23t-56 -23t-23 -56zM790 554q0 -33 23 -56t56 -23t56 23t23 56t-23 56t-56 23t-56 -23t-23 -56z" />
    <glyph glyph-name="fiveeighths" unicode="&#x215d;" 
d="M790 1580h158l-632 -1580h-158zM632 238q0 45 15.5 85.5t44.5 72.5q-29 32 -44.5 72t-15.5 86q0 49 18.5 92t51 75.5t75.5 51t92 18.5t92 -18.5t75.5 -51t51 -75.5t18.5 -92q0 -46 -16 -86t-44 -72q28 -32 44 -72.5t16 -85.5q0 -49 -18.5 -92t-51 -75.5t-75.5 -51
t-92 -18.5t-92 18.5t-75.5 51t-51 75.5t-18.5 92zM790 238q0 -33 23 -56t56 -23t56 23t23 56t-23 56t-56 23t-56 -23t-23 -56zM790 554q0 -33 23 -56t56 -23t56 23t23 56t-23 56t-56 23t-56 -23t-23 -56zM1 949.588q59 0 116 1.00293q57 1.00391 101.5 8.53223t71.5 23.5889
t27 46.1748q0 30.1133 -27 46.1738t-71.5 23.5889t-101.5 8.53223t-116 1.00391v475.793h474v-158.598h-316v-158.598q89 0 149.5 -15.0566t97.5 -44.6689q37 -29.6113 53 -74.2793q16 -44.6689 16 -103.892q0 -59.2236 -16 -103.892q-16 -44.6689 -53 -74.2803
t-97.5 -44.6689q-60.5 -15.0566 -149.5 -15.0566h-158v158.599z" />
    <glyph glyph-name="seveneighths" unicode="&#x215e;" 
d="M790 1580h158l-632 -1580h-158zM632 238q0 45 15.5 85.5t44.5 72.5q-29 32 -44.5 72t-15.5 86q0 49 18.5 92t51 75.5t75.5 51t92 18.5t92 -18.5t75.5 -51t51 -75.5t18.5 -92q0 -46 -16 -86t-44 -72q28 -32 44 -72.5t16 -85.5q0 -49 -18.5 -92t-51 -75.5t-75.5 -51
t-92 -18.5t-92 18.5t-75.5 51t-51 75.5t-18.5 92zM790 238q0 -33 23 -56t56 -23t56 23t23 56t-23 56t-56 23t-56 -23t-23 -56zM790 554q0 -33 23 -56t56 -23t56 23t23 56t-23 56t-56 23t-56 -23t-23 -56zM475.35 1422l-158.337 -632h-158.338l158.338 632h-316.675v158
h475.012v-158z" />
    <glyph glyph-name="uni215F" unicode="&#x215f;" 
d="M158 948v474l-158 -158v158l158 158h158v-632h158v-158h-474v158h158zM790 1580h158l-632 -1580h-158z" />
    <glyph glyph-name="arrowleft" unicode="&#x2190;" 
d="M0 711l395 395h79v-316h632v-158h-632v-316h-79z" />
    <glyph glyph-name="arrowup" unicode="&#x2191;" 
d="M553 1422l395 -395v-79h-316v-632h-158v632h-316v79z" />
    <glyph glyph-name="arrowright" unicode="&#x2192;" 
d="M1106 711l-394.976 395h-78.9951v-316h-631.962v-158h631.962v-316h78.9951z" />
    <glyph glyph-name="arrowdown" unicode="&#x2193;" 
d="M553 0.0869141l395 394.976v78.9951h-316v631.962h-158v-631.962h-316v-78.9951z" />
    <glyph glyph-name="arrowboth" unicode="&#x2194;" 
d="M395 1106h79v-316h158v316h79l395 -395l-395 -395h-79v316h-158v-316h-79l-395 395z" />
    <glyph glyph-name="arrowupdn" unicode="&#x2195;" 
d="M948 1027v-79h-316v-474h316v-79l-395 -395l-395 395v79h316v474h-316v79l395 395z" />
    <glyph glyph-name="uni21A4" unicode="&#x21a4;" 
d="M948 632h-474v-316h-79l-395 395l395 395h79v-316h474v316h158v-790h-158v316z" />
    <glyph glyph-name="uni21A5" unicode="&#x21a5;" 
d="M158 158h316v790h-316v79l395 395l395 -395v-79h-316v-790h316v-158h-790v158z" />
    <glyph glyph-name="uni21A6" unicode="&#x21a6;" 
d="M158.058 632h473.972v-316h78.9951l394.976 395l-394.976 395h-78.9951v-316h-473.972v316h-157.99v-790h157.99v316z" />
    <glyph glyph-name="uni21A7" unicode="&#x21a7;" 
d="M158 1264.01h316v-789.952h-316v-78.9951l395 -394.976l395 394.976v78.9951h-316v789.952h316v157.99h-790v-157.99z" />
    <glyph glyph-name="arrowupdnbse" unicode="&#x21a8;" 
d="M158 0h790v-158h-790v158zM948 1027v-79h-316v-474h316v-79l-395 -395l-395 395v79h316v474h-316v79l395 395z" />
    <glyph glyph-name="uni21B0" unicode="&#x21b0;" 
d="M790 632h-316v-316h-79l-395 395l395 395h79v-316h474v-790h-158v632z" />
    <glyph glyph-name="uni21B1" unicode="&#x21b1;" 
d="M316.048 632h315.981v-316h78.9951l394.976 395l-394.976 395h-78.9951v-316h-473.972v-790h157.99v632z" />
    <glyph glyph-name="uni21B2" unicode="&#x21b2;" 
d="M790 790.039h-316v315.98h-79l-395 -394.977l395 -394.976h79v315.98h474v789.952h-158v-631.961z" />
    <glyph glyph-name="uni21B3" unicode="&#x21b3;" 
d="M316.048 790.039h315.981v315.98h78.9951l394.976 -394.977l-394.976 -394.976h-78.9951v315.98h-473.972v789.952h157.99v-631.961z" />
    <glyph glyph-name="uni21B4" unicode="&#x21b4;" 
d="M0 1106h632v-632h316v-79l-395 -395l-395 395v79h316v474h-474v158z" />
    <glyph glyph-name="uni21BE" unicode="&#x21be;" 
d="M474 1422h79l395 -395v-79h-316v-632h-158v1106z" />
    <glyph glyph-name="uni21BF" unicode="&#x21bf;" 
d="M632.029 1422h-78.9951l-394.977 -395v-79h315.981v-632h157.99v1106z" />
    <glyph glyph-name="uni21C2" unicode="&#x21c2;" 
d="M474 0.0869141h79l395 394.976v78.9951h-316v631.962h-158v-1105.93z" />
    <glyph glyph-name="uni21C3" unicode="&#x21c3;" 
d="M630.029 0.0869141h-78.9951l-394.977 394.976v78.9951h315.981v631.962h157.99v-1105.93z" />
    <glyph glyph-name="uni21C5" unicode="&#x21c5;" 
d="M395 1580l395 -395v-79h-316v-632h-158v632h-316v79zM711 -158l395 395v79h-316v632h-158v-632h-316v-79z" />
    <glyph glyph-name="uni21C8" unicode="&#x21c8;" 
d="M395 1422l158 -158l158 158l395 -395v-79h-316v-948h-158v948h-158v-948h-158v948h-316v79z" />
    <glyph glyph-name="partialdiff" unicode="&#x2202;" 
d="M1070 1027q-66 -193 -127 -339t-118 -254.5t-110 -182.5t-103 -122.5t-98 -74.5t-94 -38t-91 -14t-90 -2q-58 0 -100.5 18.5t-70.5 49t-44 70.5t-21.5 84t-3 88.5t10.5 84.5q32 148 98 253t148.5 171.5t173 97.5t172.5 31q74 0 134 -25t102 -70l74 174q20 49 20 92
t-18.5 75.5t-54 51t-84.5 18.5q1 0 -0.5 11.5t-3 29.5t-1 38t7.5 38t22.5 29.5t42.5 11.5q82 0 140.5 -31t89.5 -84.5t31 -125.5t-34 -154zM242 553q-14 -20 -28 -57t-23 -80.5t-12 -89.5t5.5 -83t30 -61t61.5 -24q49 0 109.5 18t122 67t119 135.5t103.5 223.5q8 40 0 74.5
t-30 59.5t-55.5 39.5t-76.5 14.5q-49 0 -98 -18.5t-93 -51t-79.5 -75.5t-55.5 -92z" />
    <glyph glyph-name="Delta" unicode="&#x2206;" 
d="M948 0h-790l33 158l585 1264h158l47 -1264zM310 158h486l-22 995z" />
    <glyph glyph-name="gradient" unicode="&#x2207;" 
d="M190.072 1422h758.273l-31.6748 -157.875l-561.506 -1263h-151.654l-45.1123 1263zM802.45 1264.12h-466.481l21.1162 -994.21z" />
    <glyph glyph-name="product" unicode="&#x220f;" 
d="M395 1422h742l-403 -1896h-158l369 1738h-426l-369 -1738h-157z" />
    <glyph glyph-name="summation" unicode="&#x2211;" 
d="M900 1264h-474l199 -553l-434 -553h474l34 158h158l-67 -316h-790l33 158l434 553l-199 553l34 158h790l-67 -316h-158z" />
    <glyph glyph-name="minus" unicode="&#x2212;" 
d="M191 790h790l-33 -158h-790z" />
    <glyph glyph-name="uni2215" unicode="&#x2215;" 
d="M790 1580h158l-632 -1580h-158z" />
    <glyph glyph-name="uni2219" unicode="&#x2219;" 
d="M316 790q0 33 12.5 61.5t34 50t50 34t61.5 12.5t61.5 -12.5t50 -34t34 -50t12.5 -61.5t-12.5 -61.5t-34 -50t-50 -34t-61.5 -12.5t-61.5 12.5t-50 34t-34 50t-12.5 61.5z" />
    <glyph glyph-name="radical" unicode="&#x221a;" 
d="M316 0l-316 553l158 79l237 -395l553 1106l158 -79l-632 -1264h-158z" />
    <glyph glyph-name="infinity" unicode="&#x221e;" 
d="M0 632q0 65 25 122.5t68 100.5t100.5 68t122.5 25q30 0 70.5 -15t77.5 -44.5t63 -74t26 -103.5q0 59 26 103.5t63 74t77.5 44.5t70.5 15q65 0 122.5 -25t100.5 -68t68 -100.5t25 -122.5t-25 -122.5t-68 -100.5t-100.5 -68t-122.5 -25q-30 0 -70.5 15t-77.5 44.5t-63 74
t-26 103.5q0 -59 -26 -103.5t-63 -74t-77.5 -44.5t-70.5 -15q-65 0 -122.5 25t-100.5 68t-68 100.5t-25 122.5zM632 632q0 -33 12.5 -61.5t34 -50t50 -34t61.5 -12.5t61.5 12.5t50 34t34 50t12.5 61.5t-12.5 61.5t-34 50t-50 34t-61.5 12.5t-61.5 -12.5t-50 -34t-34 -50
t-12.5 -61.5zM158 632q0 -33 12.5 -61.5t34 -50t50 -34t61.5 -12.5t61.5 12.5t50 34t34 50t12.5 61.5t-12.5 61.5t-34 50t-50 34t-61.5 12.5t-61.5 -12.5t-50 -34t-34 -50t-12.5 -61.5z" />
    <glyph glyph-name="intersection" unicode="&#x2229;" 
d="M158 711q0 82 31 154t84.5 125.5t125.5 84.5t154 31t154 -31t125.5 -84.5t84.5 -125.5t31 -154v-711h-158v711q0 49 -18.5 92t-51 75.5t-75.5 51t-92 18.5t-92 -18.5t-75.5 -51t-51 -75.5t-18.5 -92v-711h-158v711z" />
    <glyph glyph-name="union" unicode="&#x222a;" 
d="M158 1106h158v-711q0 -49 18.5 -92t51 -75.5t75.5 -51t92 -18.5t92 18.5t75.5 51t51 75.5t18.5 92v711h158v-711q0 -82 -31 -154t-84.5 -125.5t-125.5 -84.5t-154 -31t-154 31t-125.5 84.5t-84.5 125.5t-31 154v711z" />
    <glyph glyph-name="integral" unicode="&#x222b;" 
d="M917 1343q7 33 -11 56t-51 23t-61 -23t-35 -56l-269 -1264q-10 -49 -37.5 -92t-67 -75.5t-86.5 -51t-96 -18.5t-88 18.5t-64.5 51t-35 75.5t0.5 92l17 79h158l-17 -79q-7 -33 11.5 -56t51.5 -23t60.5 23t34.5 56q50 227 87 400.5t65 302.5l79 371q13 61 20 96.5
t10.5 54.5t4.5 26l3 13q10 49 38 92t67 75.5t86 51t96 18.5t88 -18.5t65 -51t35 -75.5t-1 -92l-17 -79h-158z" />
    <glyph glyph-name="therefore" unicode="&#x2234;" 
d="M158 395q0 33 23 56t56 23t56 -23t23 -56t-23 -56t-56 -23t-56 23t-23 56zM474 1027q0 33 23 56t56 23t56 -23t23 -56t-23 -56t-56 -23t-56 23t-23 56zM790 395q0 33 23 56t56 23t56 -23t23 -56t-23 -56t-56 -23t-56 23t-23 56z" />
    <glyph glyph-name="uni2235" unicode="&#x2235;" 
d="M158 1027.02q0 -32.998 23 -55.9971q23 -22.998 56 -22.998t56 22.998q23 22.999 23 55.9971t-23 55.9961q-23 22.999 -56 22.999t-56 -22.999q-23 -22.998 -23 -55.9961zM474 395.062q0 -32.998 23 -55.9961q23 -22.999 56 -22.999t56 22.999q23 22.998 23 55.9961
t-23 55.9971q-23 22.998 -56 22.998t-56 -22.998q-23 -22.999 -23 -55.9971zM790 1027.02q0 -32.998 23 -55.9971q23 -22.998 56 -22.998t56 22.998q23 22.999 23 55.9971t-23 55.9961q-23 22.999 -56 22.999t-56 -22.999q-23 -22.998 -23 -55.9961z" />
    </font>
</defs>
</svg>
